<svg id="Camada_7" data-name="Camada 7" xmlns="http://www.w3.org/2000/svg" viewBox="0 0 179.17 121.91"><defs><style>.cls-1,.cls-2,.cls-3{fill:#fff;stroke-linecap:round;stroke-linejoin:round;}.cls-1,.cls-2{stroke:#df1995;}.cls-1{stroke-width:3.72px;}.cls-2,.cls-3{stroke-width:3.52px;}.cls-3{stroke:#409;}</style></defs><title>casa</title><path class="cls-1" d="M228.31,126.94l0,75c0,3.38-2.45,6.13-5.47,6.13L100.31,208c-3,0-5.46-2.75-5.46-6.14l0-74.9" transform="translate(-74.05 -88.11)"/><polygon class="cls-2" points="150.22 1.76 137.59 1.76 40.01 1.76 24.18 1.76 1.76 36.8 177.41 37.62 150.22 1.76"/><rect class="cls-3" x="84.61" y="65.41" width="52.83" height="36.14"/><path class="cls-3" d="M141.18,208.26H114.44a.72.72,0,0,1-.72-.74l0-53.79a.74.74,0,0,1,.73-.74l26.74,0a.73.73,0,0,1,.72.73l0,53.8A.73.73,0,0,1,141.18,208.26Z" transform="translate(-74.05 -88.11)"/></svg>