<svg xmlns="http://www.w3.org/2000/svg" viewBox="0 0 91.04 170.07"><defs><style>.cls-1{fill:#409;}.cls-2{fill:#df1995;}.cls-3{fill:none;stroke:#df1995;stroke-linecap:round;stroke-linejoin:round;stroke-width:3.33px;}</style></defs><title>celular</title><g id="pulmão"><path class="cls-1" d="M156.68,136.83a3.12,3.12,0,1,1,3.11-3.11A3.12,3.12,0,0,1,156.68,136.83Zm0-5.61a2.5,2.5,0,1,0,2.5,2.5A2.5,2.5,0,0,0,156.68,131.22Z" transform="translate(-111.16 -48.68)"/><rect class="cls-1" x="45.21" y="80.45" width="0.62" height="1.77"/><path class="cls-1" d="M157.4,129.45H156a.31.31,0,1,1,0-.62h1.44a.31.31,0,0,1,0,.62Z" transform="translate(-111.16 -48.68)"/><rect class="cls-1" x="154.71" y="130.35" width="0.62" height="1.01" transform="translate(-155.82 46.36) rotate(-30)"/><path class="cls-1" d="M154.33,131a.31.31,0,0,1-.15-.58l.87-.51a.32.32,0,0,1,.43.12.31.31,0,0,1-.12.42l-.87.5A.3.3,0,0,1,154.33,131Z" transform="translate(-111.16 -48.68)"/><rect class="cls-1" x="153.17" y="130.98" width="0.62" height="1.77" transform="translate(-148.62 150.17) rotate(-60)"/><path class="cls-1" d="M152.35,132.36a.28.28,0,0,1-.15,0,.31.31,0,0,1-.12-.42l.72-1.25a.31.31,0,0,1,.43-.11.3.3,0,0,1,.11.42l-.72,1.25A.31.31,0,0,1,152.35,132.36Z" transform="translate(-111.16 -48.68)"/><rect class="cls-1" x="41.71" y="84.72" width="1.01" height="0.62"/><path class="cls-1" d="M152.86,134.53a.31.31,0,0,1-.31-.31v-1a.31.31,0,0,1,.62,0v1A.31.31,0,0,1,152.86,134.53Z" transform="translate(-111.16 -48.68)"/><rect class="cls-1" x="152.59" y="135.25" width="1.77" height="0.62" transform="translate(-158.37 46.2) rotate(-29.99)"/><path class="cls-1" d="M153.07,136.94a.33.33,0,0,1-.27-.16l-.72-1.24a.31.31,0,0,1,.12-.42.3.3,0,0,1,.42.11l.72,1.25a.3.3,0,0,1-.11.42A.29.29,0,0,1,153.07,136.94Z" transform="translate(-111.16 -48.68)"/><rect class="cls-1" x="154.52" y="136.27" width="1.01" height="0.62" transform="translate(-151.93 153.85) rotate(-60)"/><path class="cls-1" d="M155.21,137.58a.29.29,0,0,1-.16,0l-.87-.5a.31.31,0,0,1-.11-.43.31.31,0,0,1,.42-.11l.87.5a.32.32,0,0,1,.12.43A.32.32,0,0,1,155.21,137.58Z" transform="translate(-111.16 -48.68)"/><rect class="cls-1" x="45.21" y="87.84" width="0.62" height="1.77"/><path class="cls-1" d="M157.4,138.61H156a.31.31,0,0,1-.31-.31A.31.31,0,0,1,156,138h1.44a.31.31,0,0,1,.31.31A.31.31,0,0,1,157.4,138.61Z" transform="translate(-111.16 -48.68)"/><rect class="cls-1" x="158.02" y="136.08" width="0.62" height="1.01" transform="translate(-158.24 48.77) rotate(-30)"/><path class="cls-1" d="M158.15,137.58a.31.31,0,0,1-.27-.15A.32.32,0,0,1,158,137l.88-.5a.31.31,0,0,1,.42.11.32.32,0,0,1-.11.43l-.88.5A.28.28,0,0,1,158.15,137.58Z" transform="translate(-111.16 -48.68)"/><rect class="cls-1" x="159.57" y="134.68" width="0.62" height="1.77" transform="translate(-148.63 157.54) rotate(-60)"/><path class="cls-1" d="M160.28,136.94a.28.28,0,0,1-.15,0,.3.3,0,0,1-.11-.42l.71-1.25a.31.31,0,0,1,.43-.11.3.3,0,0,1,.11.42l-.72,1.24A.32.32,0,0,1,160.28,136.94Z" transform="translate(-111.16 -48.68)"/><rect class="cls-1" x="48.33" y="84.72" width="1.01" height="0.62"/><path class="cls-1" d="M160.49,134.53a.31.31,0,0,1-.31-.31v-1a.31.31,0,0,1,.62,0v1A.31.31,0,0,1,160.49,134.53Z" transform="translate(-111.16 -48.68)"/><rect class="cls-1" x="158.99" y="131.56" width="1.77" height="0.62" transform="translate(-155.67 48.9) rotate(-29.99)"/><path class="cls-1" d="M161,132.36a.32.32,0,0,1-.27-.15L160,131a.31.31,0,1,1,.53-.31l.72,1.25a.3.3,0,0,1-.11.42A.29.29,0,0,1,161,132.36Z" transform="translate(-111.16 -48.68)"/><rect class="cls-1" x="157.83" y="130.54" width="1.01" height="0.62" transform="translate(-145.31 153.86) rotate(-60)"/><path class="cls-1" d="M159,131a.3.3,0,0,1-.15,0l-.88-.5a.31.31,0,0,1-.11-.42.31.31,0,0,1,.42-.12l.88.51a.31.31,0,0,1,.11.42A.32.32,0,0,1,159,131Z" transform="translate(-111.16 -48.68)"/><path class="cls-1" d="M155.75,132.59a.31.31,0,0,1-.22-.09.29.29,0,0,1-.09-.22.13.13,0,0,1,0-.06.08.08,0,0,1,0-.05.14.14,0,0,1,0-.06.1.1,0,0,0,0-.05.32.32,0,0,1,.28-.08l.06,0,0,0,.05,0,0,.05,0,.06a.17.17,0,0,0,0,.05v.06a.29.29,0,0,1-.09.22A.31.31,0,0,1,155.75,132.59Z" transform="translate(-111.16 -48.68)"/><path class="cls-1" d="M158.16,133.17a.31.31,0,0,1-.22-.09l0-.05,0-.05s0,0,0-.06a.19.19,0,0,1,0-.12s0,0,0-.06l0-.05,0-.05.05,0,0,0,.06,0a.32.32,0,0,1,.28.08.31.31,0,0,1,.09.22.13.13,0,0,1,0,.06s0,0,0,.06l0,.05,0,.05A.31.31,0,0,1,158.16,133.17Z" transform="translate(-111.16 -48.68)"/><path class="cls-1" d="M157.06,134.12l-.12,0-.1-.07a.29.29,0,0,1-.09-.22v-.06s0,0,0-.06l0-.05,0,0a.33.33,0,0,1,.44,0l0,0a.09.09,0,0,1,0,.05.14.14,0,0,1,0,.06.13.13,0,0,1,0,.06.34.34,0,0,1-.09.22A.31.31,0,0,1,157.06,134.12Z" transform="translate(-111.16 -48.68)"/><path class="cls-1" d="M155.18,134.23l-.12,0-.1-.07,0,0,0-.05a.13.13,0,0,1,0-.06.55.55,0,0,1,0-.18l0-.05,0-.05a.33.33,0,0,1,.44,0l0,.05a.08.08,0,0,1,0,.05.14.14,0,0,1,0,.06.18.18,0,0,1,0,.12.14.14,0,0,1,0,.06s0,0,0,.05l0,0-.05,0,0,0h-.12Z" transform="translate(-111.16 -48.68)"/><path class="cls-1" d="M156.24,135.81a.31.31,0,0,1-.22-.09.36.36,0,0,1-.07-.1.5.5,0,0,1,0-.12.31.31,0,0,1,.09-.22.32.32,0,0,1,.28-.08l.06,0,0,0,.05,0a.31.31,0,0,1,.09.22.5.5,0,0,1,0,.12.36.36,0,0,1-.07.1A.31.31,0,0,1,156.24,135.81Z" transform="translate(-111.16 -48.68)"/><path class="cls-1" d="M158,135l-.12,0-.1-.07,0,0,0-.06s0,0,0,0a.15.15,0,0,1,0-.07.31.31,0,0,1,.53-.21.27.27,0,0,1,.09.21.29.29,0,0,1-.09.22A.31.31,0,0,1,158,135Z" transform="translate(-111.16 -48.68)"/><path class="cls-2" d="M129.52,167.34a5,5,0,0,1-3-.85c-2.65-1.82-3.69-6.43-3.69-16.44,0-18.59,12.12-27.42,19.34-31,2.92-1.46,5.27-1.65,7-.56,2.49,1.57,2.45,5.14,2.45,5.29a1.23,1.23,0,1,1-2.45,0c0-.65-.21-2.49-1.31-3.17s-3.15,0-4.59.68c-6.72,3.36-18,11.57-18,28.84,0,8.61.84,13.19,2.63,14.43,1.25.86,3.37.32,6.39-.83,5.44-2.06,11.37-7.67,13.67-10a4,4,0,0,0,1.19-2.88V140.34a1.23,1.23,0,1,1,2.45,0v10.44a6.53,6.53,0,0,1-1.9,4.61c-3,3-8.87,8.4-14.54,10.55A17.1,17.1,0,0,1,129.52,167.34Z" transform="translate(-111.16 -48.68)"/><path class="cls-2" d="M183.83,167.34a17.1,17.1,0,0,1-5.7-1.4c-5.66-2.15-11.54-7.54-14.53-10.56a6.45,6.45,0,0,1-1.9-4.6V140.34a1.22,1.22,0,1,1,2.44,0v10.44a4.08,4.08,0,0,0,1.19,2.88c2.3,2.32,8.24,7.93,13.67,10,3,1.15,5.15,1.69,6.4.83,1.79-1.24,2.63-5.82,2.63-14.43,0-17.27-11.27-25.48-18-28.84-1.45-.72-3.41-1.43-4.6-.68s-1.31,2.52-1.31,3.18a1.23,1.23,0,0,1-1.2,1.24,1.21,1.21,0,0,1-1.24-1.2c0-.15,0-3.72,2.44-5.29,1.72-1.09,4.08-.9,7,.56,7.22,3.61,19.33,12.44,19.33,31,0,10-1,14.62-3.68,16.44A5.09,5.09,0,0,1,183.83,167.34Z" transform="translate(-111.16 -48.68)"/><path class="cls-2" d="M168,140.66a3.38,3.38,0,0,1-2.39-1l-8.89-8.88-8.89,8.88a3.4,3.4,0,0,1-4.8,0l-.34-.35a3.37,3.37,0,0,1,0-4.79L153,124.14V101.31a1.23,1.23,0,0,1,2.45,0v23.34a1.24,1.24,0,0,1-.36.87l-10.75,10.74a1,1,0,0,0-.28.67.91.91,0,0,0,.28.66l.34.35a1,1,0,0,0,1.34,0l9.75-9.75a1.22,1.22,0,0,1,1.73,0l9.76,9.75a.94.94,0,0,0,1.33,0l.35-.35a.91.91,0,0,0,.28-.66,1,1,0,0,0-.28-.67l-10.75-10.74a1.24,1.24,0,0,1-.36-.87V101.31a1.23,1.23,0,0,1,2.45,0v22.83l10.39,10.39a3.39,3.39,0,0,1,0,4.79l-.35.35A3.38,3.38,0,0,1,168,140.66Z" transform="translate(-111.16 -48.68)"/><path class="cls-1" d="M139.05,130.58a1.23,1.23,0,0,1-1.22-1.22,1,1,0,0,1,0-.24.86.86,0,0,1,.06-.23.88.88,0,0,1,.12-.21,1,1,0,0,1,.34-.34.78.78,0,0,1,.2-.11,1.09,1.09,0,0,1,.24-.07,1.24,1.24,0,0,1,.47,0,.88.88,0,0,1,.23.07.84.84,0,0,1,.21.11.9.9,0,0,1,.19.15,1.29,1.29,0,0,1,.26.4,1.55,1.55,0,0,1,.07.23,2,2,0,0,1,0,.24,1.26,1.26,0,0,1-.36.86A1.24,1.24,0,0,1,139.05,130.58Z" transform="translate(-111.16 -48.68)"/><path class="cls-1" d="M182.28,141.24a1.21,1.21,0,0,1-.86-.35.9.9,0,0,1-.15-.19,1.06,1.06,0,0,1-.11-.21,1.55,1.55,0,0,1-.08-.23,1.94,1.94,0,0,1,0-.24,1.2,1.2,0,0,1,.36-.86,1.26,1.26,0,0,1,1.73,0,1.19,1.19,0,0,1,.35.86,1,1,0,0,1,0,.24.88.88,0,0,1-.07.23,1.06,1.06,0,0,1-.11.21l-.15.19A1.22,1.22,0,0,1,182.28,141.24Z" transform="translate(-111.16 -48.68)"/><path class="cls-1" d="M175.27,156.28a6,6,0,1,1,6-6A6,6,0,0,1,175.27,156.28Zm0-10.78a4.8,4.8,0,1,0,4.79,4.8A4.81,4.81,0,0,0,175.27,145.5Z" transform="translate(-111.16 -48.68)"/><rect class="cls-1" x="171.5" y="143.82" width="1.19" height="1.93" transform="translate(-160.5 56.75) rotate(-30)"/><path class="cls-1" d="M170.77,145a.59.59,0,0,1-.52-.29.61.61,0,0,1,.22-.82l1.68-1a.59.59,0,0,1,.81.21.58.58,0,0,1-.22.81l-1.67,1A.56.56,0,0,1,170.77,145Z" transform="translate(-111.16 -48.68)"/><rect class="cls-1" x="56.79" y="101.02" width="1.93" height="1.19"/><path class="cls-1" d="M168,151.86a.6.6,0,0,1-.6-.59v-1.94a.6.6,0,1,1,1.19,0v1.94A.6.6,0,0,1,168,151.86Z" transform="translate(-111.16 -48.68)"/><rect class="cls-1" x="171.12" y="155.21" width="1.93" height="1.19" transform="matrix(0.5, -0.87, 0.87, 0.5, -160.04, 178.25)"/><path class="cls-1" d="M172.45,157.72a.64.64,0,0,1-.3-.08l-1.68-1a.6.6,0,1,1,.6-1l1.67,1a.58.58,0,0,1,.22.81A.6.6,0,0,1,172.45,157.72Z" transform="translate(-111.16 -48.68)"/><rect class="cls-1" x="177.85" y="154.83" width="1.19" height="1.93" transform="translate(-165.15 61.42) rotate(-30)"/><path class="cls-1" d="M178.09,157.72a.6.6,0,0,1-.51-.3.59.59,0,0,1,.21-.81l1.68-1a.6.6,0,0,1,.6,1l-1.68,1A.64.64,0,0,1,178.09,157.72Z" transform="translate(-111.16 -48.68)"/><rect class="cls-1" x="69.5" y="101.02" width="1.93" height="1.19"/><path class="cls-1" d="M182.59,151.86a.59.59,0,0,1-.59-.59v-1.94a.59.59,0,0,1,.59-.6.6.6,0,0,1,.6.6v1.94A.6.6,0,0,1,182.59,151.86Z" transform="translate(-111.16 -48.68)"/><rect class="cls-1" x="177.48" y="144.2" width="1.93" height="1.19" transform="translate(-147.33 178.24) rotate(-60)"/><path class="cls-1" d="M179.77,145a.56.56,0,0,1-.3-.08l-1.68-1a.59.59,0,1,1,.6-1l1.68,1a.6.6,0,0,1,.21.82A.59.59,0,0,1,179.77,145Z" transform="translate(-111.16 -48.68)"/><path class="cls-1" d="M174.15,149a.58.58,0,0,1-.59-.59.49.49,0,0,1,0-.12l0-.11.06-.1.07-.09a.62.62,0,0,1,.84,0l.07.09a.33.33,0,0,1,.06.1.45.45,0,0,1,0,.11.49.49,0,0,1,0,.12.59.59,0,0,1-.17.42l-.09.07-.1.06-.11,0Z" transform="translate(-111.16 -48.68)"/><path class="cls-1" d="M178.11,149.25a.59.59,0,0,1-.41-.18l-.08-.09-.06-.1,0-.11s0-.08,0-.12,0-.08,0-.11a.36.36,0,0,1,0-.11.54.54,0,0,1,.05-.11l.08-.09.08-.07.11,0,.11,0h.23l.11,0,.1,0,.1.07.07.09a.54.54,0,0,1,0,.11.36.36,0,0,1,0,.11.37.37,0,0,1,0,.11.49.49,0,0,1,0,.12.36.36,0,0,1,0,.11.31.31,0,0,1,0,.1l-.07.09A.64.64,0,0,1,178.11,149.25Z" transform="translate(-111.16 -48.68)"/><path class="cls-1" d="M177,153.05h-.11l-.11,0-.11-.06-.09-.08a.27.27,0,0,1-.07-.08l-.06-.11,0-.11a.45.45,0,0,1,0-.11.45.45,0,0,1,.05-.23.31.31,0,0,1,.05-.1.35.35,0,0,1,.07-.09l.09-.08.11-.05.11,0h.23l.11,0a.31.31,0,0,1,.1.05l.09.08a.36.36,0,0,1,.08.09.31.31,0,0,1,.05.1.23.23,0,0,1,0,.11.5.5,0,0,1,0,.12.52.52,0,0,1,0,.11.2.2,0,0,1,0,.11.54.54,0,0,1-.05.11l-.08.08A.56.56,0,0,1,177,153.05Z" transform="translate(-111.16 -48.68)"/><path class="cls-1" d="M173.41,152.17a.59.59,0,0,1-.42-1,.58.58,0,0,1,.53-.16l.12,0,.1.06.09.07a.61.61,0,0,1,.17.42.59.59,0,0,1-.17.42l-.09.08-.1.05-.12,0Z" transform="translate(-111.16 -48.68)"/><rect class="cls-1" x="171.5" y="143.82" width="1.19" height="1.93" transform="translate(-160.5 56.75) rotate(-30)"/><path class="cls-1" d="M170.77,145a.59.59,0,0,1-.52-.29.61.61,0,0,1,.22-.82l1.68-1a.59.59,0,0,1,.81.21.58.58,0,0,1-.22.81l-1.67,1A.56.56,0,0,1,170.77,145Z" transform="translate(-111.16 -48.68)"/><rect class="cls-1" x="56.79" y="101.02" width="1.93" height="1.19"/><path class="cls-1" d="M168,151.86a.6.6,0,0,1-.6-.59v-1.94a.6.6,0,1,1,1.19,0v1.94A.6.6,0,0,1,168,151.86Z" transform="translate(-111.16 -48.68)"/><rect class="cls-1" x="171.12" y="155.21" width="1.93" height="1.19" transform="matrix(0.5, -0.87, 0.87, 0.5, -160.04, 178.25)"/><path class="cls-1" d="M172.45,157.72a.64.64,0,0,1-.3-.08l-1.68-1a.6.6,0,1,1,.6-1l1.67,1a.58.58,0,0,1,.22.81A.6.6,0,0,1,172.45,157.72Z" transform="translate(-111.16 -48.68)"/><rect class="cls-1" x="177.85" y="154.83" width="1.19" height="1.93" transform="translate(-165.15 61.42) rotate(-30)"/><path class="cls-1" d="M178.09,157.72a.6.6,0,0,1-.51-.3.59.59,0,0,1,.21-.81l1.68-1a.6.6,0,0,1,.6,1l-1.68,1A.64.64,0,0,1,178.09,157.72Z" transform="translate(-111.16 -48.68)"/><rect class="cls-1" x="69.5" y="101.02" width="1.93" height="1.19"/><path class="cls-1" d="M182.59,151.86a.59.59,0,0,1-.59-.59v-1.94a.59.59,0,0,1,.59-.6.6.6,0,0,1,.6.6v1.94A.6.6,0,0,1,182.59,151.86Z" transform="translate(-111.16 -48.68)"/><rect class="cls-1" x="177.48" y="144.2" width="1.93" height="1.19" transform="translate(-147.33 178.24) rotate(-60)"/><path class="cls-1" d="M179.77,145a.56.56,0,0,1-.3-.08l-1.68-1a.59.59,0,1,1,.6-1l1.68,1a.6.6,0,0,1,.21.82A.59.59,0,0,1,179.77,145Z" transform="translate(-111.16 -48.68)"/><rect class="cls-1" x="168.8" y="152.88" width="1.93" height="1.19" transform="translate(-165.15 56.74) rotate(-29.99)"/><path class="cls-1" d="M169.41,155.39a.6.6,0,0,1-.51-.3l-1-1.67a.6.6,0,1,1,1-.6l1,1.68a.6.6,0,0,1-.22.81A.54.54,0,0,1,169.41,155.39Z" transform="translate(-111.16 -48.68)"/><rect class="cls-1" x="63.52" y="107" width="1.19" height="1.93"/><path class="cls-1" d="M176.24,158.21H174.3a.59.59,0,0,1,0-1.18h1.94a.59.59,0,0,1,0,1.18Z" transform="translate(-111.16 -48.68)"/><rect class="cls-1" x="180.18" y="152.51" width="1.19" height="1.93" transform="translate(-153.69 184.6) rotate(-60)"/><path class="cls-1" d="M181.13,155.39a.54.54,0,0,1-.3-.08.6.6,0,0,1-.22-.81l1-1.68a.6.6,0,1,1,1,.6l-1,1.67A.6.6,0,0,1,181.13,155.39Z" transform="translate(-111.16 -48.68)"/><rect class="cls-1" x="179.81" y="146.52" width="1.93" height="1.19" transform="translate(-160.49 61.39) rotate(-29.99)"/><path class="cls-1" d="M182.1,148.07a.6.6,0,0,1-.52-.3l-1-1.68a.6.6,0,0,1,.22-.81.59.59,0,0,1,.81.22l1,1.68a.59.59,0,0,1-.22.81A.6.6,0,0,1,182.1,148.07Z" transform="translate(-111.16 -48.68)"/><rect class="cls-1" x="63.52" y="94.29" width="1.19" height="1.93"/><path class="cls-1" d="M176.24,143.57H174.3a.6.6,0,0,1,0-1.19h1.94a.6.6,0,0,1,0,1.19Z" transform="translate(-111.16 -48.68)"/><rect class="cls-1" x="169.17" y="146.15" width="1.19" height="1.93" transform="translate(-153.68 171.91) rotate(-60)"/><path class="cls-1" d="M168.44,148.07a.6.6,0,0,1-.29-.08.59.59,0,0,1-.22-.81l1-1.68a.59.59,0,0,1,.81-.22.6.6,0,0,1,.22.81l-1,1.68A.6.6,0,0,1,168.44,148.07Z" transform="translate(-111.16 -48.68)"/><rect class="cls-1" x="168.8" y="152.88" width="1.93" height="1.19" transform="translate(-165.15 56.74) rotate(-29.99)"/><path class="cls-1" d="M169.41,155.39a.6.6,0,0,1-.51-.3l-1-1.67a.6.6,0,1,1,1-.6l1,1.68a.6.6,0,0,1-.22.81A.54.54,0,0,1,169.41,155.39Z" transform="translate(-111.16 -48.68)"/><rect class="cls-1" x="63.52" y="107" width="1.19" height="1.93"/><path class="cls-1" d="M176.24,158.21H174.3a.59.59,0,0,1,0-1.18h1.94a.59.59,0,0,1,0,1.18Z" transform="translate(-111.16 -48.68)"/><rect class="cls-1" x="180.18" y="152.51" width="1.19" height="1.93" transform="translate(-153.69 184.6) rotate(-60)"/><path class="cls-1" d="M181.13,155.39a.54.54,0,0,1-.3-.08.6.6,0,0,1-.22-.81l1-1.68a.6.6,0,1,1,1,.6l-1,1.67A.6.6,0,0,1,181.13,155.39Z" transform="translate(-111.16 -48.68)"/><rect class="cls-1" x="179.81" y="146.52" width="1.93" height="1.19" transform="translate(-160.49 61.39) rotate(-29.99)"/><path class="cls-1" d="M182.1,148.07a.6.6,0,0,1-.52-.3l-1-1.68a.6.6,0,0,1,.22-.81.59.59,0,0,1,.81.22l1,1.68a.59.59,0,0,1-.22.81A.6.6,0,0,1,182.1,148.07Z" transform="translate(-111.16 -48.68)"/><rect class="cls-1" x="63.52" y="94.29" width="1.19" height="1.93"/><path class="cls-1" d="M176.24,143.57H174.3a.6.6,0,0,1,0-1.19h1.94a.6.6,0,0,1,0,1.19Z" transform="translate(-111.16 -48.68)"/><rect class="cls-1" x="169.17" y="146.15" width="1.19" height="1.93" transform="translate(-153.68 171.91) rotate(-60)"/><path class="cls-1" d="M168.44,148.07a.6.6,0,0,1-.29-.08.59.59,0,0,1-.22-.81l1-1.68a.59.59,0,0,1,.81-.22.6.6,0,0,1,.22.81l-1,1.68A.6.6,0,0,1,168.44,148.07Z" transform="translate(-111.16 -48.68)"/><path class="cls-1" d="M174.15,149a.58.58,0,0,1-.59-.59.49.49,0,0,1,0-.12l0-.11.06-.1.07-.09a.62.62,0,0,1,.84,0l.07.09a.33.33,0,0,1,.06.1.45.45,0,0,1,0,.11.49.49,0,0,1,0,.12.59.59,0,0,1-.17.42l-.09.07-.1.06-.11,0Z" transform="translate(-111.16 -48.68)"/><path class="cls-1" d="M178.11,149.25a.59.59,0,0,1-.41-.18l-.08-.09-.06-.1,0-.11s0-.08,0-.12,0-.08,0-.11a.36.36,0,0,1,0-.11.54.54,0,0,1,.05-.11l.08-.09.08-.07.11,0,.11,0h.23l.11,0,.1,0,.1.07.07.09a.54.54,0,0,1,0,.11.36.36,0,0,1,0,.11.37.37,0,0,1,0,.11.49.49,0,0,1,0,.12.36.36,0,0,1,0,.11.31.31,0,0,1,0,.1l-.07.09A.64.64,0,0,1,178.11,149.25Z" transform="translate(-111.16 -48.68)"/><path class="cls-1" d="M177,153.05h-.11l-.11,0-.11-.06-.09-.08a.27.27,0,0,1-.07-.08l-.06-.11,0-.11a.45.45,0,0,1,0-.11.45.45,0,0,1,.05-.23.31.31,0,0,1,.05-.1.35.35,0,0,1,.07-.09l.09-.08.11-.05.11,0h.23l.11,0a.31.31,0,0,1,.1.05l.09.08a.36.36,0,0,1,.08.09.31.31,0,0,1,.05.1.23.23,0,0,1,0,.11.5.5,0,0,1,0,.12.52.52,0,0,1,0,.11.2.2,0,0,1,0,.11.54.54,0,0,1-.05.11l-.08.08A.56.56,0,0,1,177,153.05Z" transform="translate(-111.16 -48.68)"/><path class="cls-1" d="M173.41,152.17a.59.59,0,0,1-.42-1,.58.58,0,0,1,.53-.16l.12,0,.1.06.09.07a.61.61,0,0,1,.17.42.59.59,0,0,1-.17.42l-.09.08-.1.05-.12,0Z" transform="translate(-111.16 -48.68)"/><path class="cls-1" d="M173.72,133.34a3.12,3.12,0,1,1,3.11-3.12A3.12,3.12,0,0,1,173.72,133.34Zm0-5.61a2.5,2.5,0,1,0,2.49,2.49A2.5,2.5,0,0,0,173.72,127.73Z" transform="translate(-111.16 -48.68)"/><rect class="cls-1" x="62.25" y="76.96" width="0.62" height="1.77"/><path class="cls-1" d="M174.44,126H173a.31.31,0,0,1,0-.62h1.44a.31.31,0,0,1,0,.62Z" transform="translate(-111.16 -48.68)"/><rect class="cls-1" x="171.75" y="126.85" width="0.62" height="1.01" transform="translate(-151.78 54.41) rotate(-30)"/><path class="cls-1" d="M171.37,127.48a.29.29,0,0,1-.26-.15.31.31,0,0,1,.11-.43l.87-.5a.31.31,0,0,1,.43.11.32.32,0,0,1-.12.43l-.87.5A.29.29,0,0,1,171.37,127.48Z" transform="translate(-111.16 -48.68)"/><rect class="cls-1" x="170.21" y="127.49" width="0.62" height="1.77" transform="translate(-137.08 163.18) rotate(-60)"/><path class="cls-1" d="M169.39,128.87a.3.3,0,0,1-.15-.05.31.31,0,0,1-.12-.42l.72-1.24a.32.32,0,0,1,.43-.12.31.31,0,0,1,.11.42l-.72,1.25A.32.32,0,0,1,169.39,128.87Z" transform="translate(-111.16 -48.68)"/><rect class="cls-1" x="58.74" y="81.23" width="1.01" height="0.62"/><path class="cls-1" d="M169.9,131a.31.31,0,0,1-.31-.31v-1a.31.31,0,0,1,.62,0v1A.31.31,0,0,1,169.9,131Z" transform="translate(-111.16 -48.68)"/><rect class="cls-1" x="169.63" y="131.76" width="1.77" height="0.62" transform="translate(-154.34 54.25) rotate(-29.99)"/><path class="cls-1" d="M170.11,133.44a.32.32,0,0,1-.27-.15l-.72-1.25a.31.31,0,0,1,.12-.42.32.32,0,0,1,.42.11l.72,1.25a.31.31,0,0,1-.11.42A.32.32,0,0,1,170.11,133.44Z" transform="translate(-111.16 -48.68)"/><rect class="cls-1" x="171.56" y="132.78" width="1.01" height="0.62" transform="translate(-140.39 166.86) rotate(-60)"/><path class="cls-1" d="M172.25,134.09a.42.42,0,0,1-.16,0l-.87-.51a.31.31,0,0,1,.31-.53l.87.5a.31.31,0,0,1,.12.42A.33.33,0,0,1,172.25,134.09Z" transform="translate(-111.16 -48.68)"/><rect class="cls-1" x="62.25" y="84.34" width="0.62" height="1.77"/><path class="cls-1" d="M174.44,135.11H173a.31.31,0,0,1,0-.62h1.44a.31.31,0,0,1,0,.62Z" transform="translate(-111.16 -48.68)"/><rect class="cls-1" x="175.06" y="132.59" width="0.62" height="1.01" transform="translate(-154.21 56.82) rotate(-30)"/><path class="cls-1" d="M175.19,134.09a.32.32,0,0,1-.27-.16.3.3,0,0,1,.11-.42l.88-.5a.3.3,0,0,1,.42.11.32.32,0,0,1-.11.42l-.88.51A.42.42,0,0,1,175.19,134.09Z" transform="translate(-111.16 -48.68)"/><rect class="cls-1" x="176.61" y="131.18" width="0.62" height="1.77" transform="translate(-137.08 170.55) rotate(-60)"/><path class="cls-1" d="M177.32,133.44a.28.28,0,0,1-.15,0,.31.31,0,0,1-.12-.42l.72-1.25a.33.33,0,0,1,.43-.11.31.31,0,0,1,.11.42l-.72,1.25A.31.31,0,0,1,177.32,133.44Z" transform="translate(-111.16 -48.68)"/><rect class="cls-1" x="65.37" y="81.23" width="1.01" height="0.62"/><path class="cls-1" d="M177.53,131a.31.31,0,0,1-.31-.31v-1a.31.31,0,0,1,.62,0v1A.31.31,0,0,1,177.53,131Z" transform="translate(-111.16 -48.68)"/><rect class="cls-1" x="176.03" y="128.07" width="1.77" height="0.62" transform="translate(-151.64 56.95) rotate(-29.99)"/><path class="cls-1" d="M178,128.87a.33.33,0,0,1-.27-.16l-.72-1.25a.31.31,0,0,1,.12-.42.31.31,0,0,1,.42.12l.72,1.24a.31.31,0,0,1-.11.42A.33.33,0,0,1,178,128.87Z" transform="translate(-111.16 -48.68)"/><rect class="cls-1" x="174.87" y="127.05" width="1.01" height="0.62" transform="translate(-133.77 166.86) rotate(-60)"/><path class="cls-1" d="M176.06,127.48a.28.28,0,0,1-.15,0l-.88-.5a.31.31,0,0,1-.11-.43.3.3,0,0,1,.42-.11l.88.5a.33.33,0,0,1,.11.43A.31.31,0,0,1,176.06,127.48Z" transform="translate(-111.16 -48.68)"/><path class="cls-1" d="M172.79,129.1a.31.31,0,0,1-.31-.31.13.13,0,0,1,0-.06.14.14,0,0,1,0-.06.08.08,0,0,1,0,0l0-.05a.29.29,0,0,1,.28-.08h.06l.05,0,0,0,0,.05,0,0s0,0,0,.06a.13.13,0,0,1,0,.06.31.31,0,0,1-.31.31Z" transform="translate(-111.16 -48.68)"/><path class="cls-1" d="M175.2,129.68a.32.32,0,0,1-.22-.1s0,0,0,0l0,0s0,0,0-.06a.19.19,0,0,1,0-.12s0,0,0-.06l0-.06,0,0a.1.1,0,0,1,.05,0l.05,0,.06,0a.32.32,0,0,1,.28.09.29.29,0,0,1,.09.22.13.13,0,0,1,0,.06.14.14,0,0,1,0,.06l0,0,0,0A.32.32,0,0,1,175.2,129.68Z" transform="translate(-111.16 -48.68)"/><path class="cls-1" d="M174.1,130.63l-.12,0a.21.21,0,0,1-.1-.06.31.31,0,0,1-.09-.22v-.06s0,0,0-.06l0,0a.1.1,0,0,1,0-.05.31.31,0,0,1,.44,0l0,.05a.09.09,0,0,1,0,0,.14.14,0,0,1,0,.06.13.13,0,0,1,0,.06.31.31,0,0,1-.31.31Z" transform="translate(-111.16 -48.68)"/><path class="cls-1" d="M172.22,130.73a.25.25,0,0,1-.12,0l-.1-.07s0,0,0,0l0-.06s0,0,0-.06v-.12s0,0,0-.05l0-.06,0-.05a.33.33,0,0,1,.44,0l0,.05a.09.09,0,0,1,0,.06.08.08,0,0,1,0,.05.19.19,0,0,1,0,.12.14.14,0,0,1,0,.06.14.14,0,0,1,0,.06l0,0-.05,0,0,0-.06,0Z" transform="translate(-111.16 -48.68)"/><path class="cls-1" d="M173.28,132.32a.32.32,0,0,1-.22-.1.26.26,0,0,1-.07-.1.36.36,0,0,1,0-.11.28.28,0,0,1,.09-.22.3.3,0,0,1,.28-.09l.06,0,0,0,.05,0a.28.28,0,0,1,.09.22.36.36,0,0,1,0,.11.26.26,0,0,1-.07.1A.32.32,0,0,1,173.28,132.32Z" transform="translate(-111.16 -48.68)"/><path class="cls-1" d="M175,131.52l-.12,0a.21.21,0,0,1-.1-.06l0-.05,0,0s0,0,0-.06a.13.13,0,0,1,0-.06.31.31,0,0,1,.09-.22.33.33,0,0,1,.44,0,.31.31,0,0,1-.22.53Z" transform="translate(-111.16 -48.68)"/><path class="cls-1" d="M135,149.12a6,6,0,1,1,6-6A6,6,0,0,1,135,149.12Zm0-10.78a4.8,4.8,0,1,0,4.8,4.8A4.8,4.8,0,0,0,135,138.34Z" transform="translate(-111.16 -48.68)"/><rect class="cls-1" x="131.25" y="136.66" width="1.19" height="1.93" transform="translate(-162.31 35.67) rotate(-30)"/><path class="cls-1" d="M130.52,137.87a.59.59,0,0,1-.51-.29.6.6,0,0,1,.22-.82l1.68-1a.59.59,0,0,1,.81.21.6.6,0,0,1-.22.81l-1.68,1A.52.52,0,0,1,130.52,137.87Z" transform="translate(-111.16 -48.68)"/><rect class="cls-1" x="16.54" y="93.86" width="1.93" height="1.19"/><path class="cls-1" d="M127.7,144.7a.59.59,0,0,1-.59-.59v-1.94a.59.59,0,0,1,.59-.6.6.6,0,0,1,.6.6v1.94A.6.6,0,0,1,127.7,144.7Z" transform="translate(-111.16 -48.68)"/><rect class="cls-1" x="130.88" y="148.05" width="1.93" height="1.19" transform="translate(-173.96 139.81) rotate(-60)"/><path class="cls-1" d="M132.2,150.56a.6.6,0,0,1-.29-.08l-1.68-1a.59.59,0,0,1-.22-.81.58.58,0,0,1,.81-.22l1.68,1a.59.59,0,0,1-.3,1.11Z" transform="translate(-111.16 -48.68)"/><rect class="cls-1" x="137.61" y="147.67" width="1.19" height="1.93" transform="translate(-166.96 40.34) rotate(-30)"/><path class="cls-1" d="M137.85,150.56a.59.59,0,0,1-.3-1.11l1.68-1a.58.58,0,0,1,.81.22.59.59,0,0,1-.22.81l-1.68,1A.6.6,0,0,1,137.85,150.56Z" transform="translate(-111.16 -48.68)"/><rect class="cls-1" x="29.26" y="93.86" width="1.93" height="1.19"/><path class="cls-1" d="M142.35,144.7a.6.6,0,0,1-.6-.59v-1.94a.6.6,0,0,1,.6-.6.59.59,0,0,1,.59.6v1.94A.59.59,0,0,1,142.35,144.7Z" transform="translate(-111.16 -48.68)"/><rect class="cls-1" x="137.24" y="137.04" width="1.93" height="1.19" transform="translate(-161.25 139.81) rotate(-60)"/><path class="cls-1" d="M139.52,137.87a.51.51,0,0,1-.29-.08l-1.68-1a.6.6,0,0,1-.22-.81.59.59,0,0,1,.81-.21l1.68,1a.6.6,0,0,1,.22.82A.59.59,0,0,1,139.52,137.87Z" transform="translate(-111.16 -48.68)"/><path class="cls-1" d="M133.91,141.87a.59.59,0,0,1-.42-.17.56.56,0,0,1-.18-.42s0-.08,0-.12a.36.36,0,0,1,0-.11.31.31,0,0,1,0-.1l.08-.09a.62.62,0,0,1,.84,0l.07.09a.31.31,0,0,1,0,.1.36.36,0,0,1,0,.11.49.49,0,0,1,0,.12.59.59,0,0,1-.17.42l-.1.07-.1.06-.11,0Z" transform="translate(-111.16 -48.68)"/><path class="cls-1" d="M137.87,142.09a.6.6,0,0,1-.42-.18l-.07-.09-.06-.1,0-.11a.49.49,0,0,1,0-.12.37.37,0,0,1,0-.11l0-.11.06-.11.07-.09.09-.07.1-.05.11,0H138l.11,0,.1.05.09.07.08.09a1.17,1.17,0,0,1,0,.11.35.35,0,0,1,0,.11.37.37,0,0,1,0,.11.49.49,0,0,1,0,.12.45.45,0,0,1,0,.11l0,.1-.08.09A.6.6,0,0,1,137.87,142.09Z" transform="translate(-111.16 -48.68)"/><path class="cls-1" d="M136.77,145.89h-.12l-.11,0-.1-.06-.09-.08-.08-.08a.54.54,0,0,1-.05-.11.2.2,0,0,1,0-.11.52.52,0,0,1,0-.11.5.5,0,0,1,0-.12.45.45,0,0,1,0-.11.93.93,0,0,1,.05-.1.36.36,0,0,1,.08-.09l.09-.08.1-.05.11,0a.88.88,0,0,1,.23,0l.12,0,.1.05.09.08a.22.22,0,0,1,.07.09l.06.1,0,.11a.49.49,0,0,1,0,.12.45.45,0,0,1,0,.11l0,.11-.06.11a.27.27,0,0,1-.07.08A.56.56,0,0,1,136.77,145.89Z" transform="translate(-111.16 -48.68)"/><path class="cls-1" d="M133.16,145a.63.63,0,0,1-.42-.17.6.6,0,0,1,0-.84.6.6,0,0,1,.54-.16l.11,0,.1.06a.71.71,0,0,1,.09.07.62.62,0,0,1,.18.42.6.6,0,0,1-.18.42l-.09.08-.1.05a.2.2,0,0,1-.11,0Z" transform="translate(-111.16 -48.68)"/><rect class="cls-1" x="131.25" y="136.66" width="1.19" height="1.93" transform="translate(-162.31 35.67) rotate(-30)"/><path class="cls-1" d="M130.52,137.87a.59.59,0,0,1-.51-.29.6.6,0,0,1,.22-.82l1.68-1a.59.59,0,0,1,.81.21.6.6,0,0,1-.22.81l-1.68,1A.52.52,0,0,1,130.52,137.87Z" transform="translate(-111.16 -48.68)"/><rect class="cls-1" x="16.54" y="93.86" width="1.93" height="1.19"/><path class="cls-1" d="M127.7,144.7a.59.59,0,0,1-.59-.59v-1.94a.59.59,0,0,1,.59-.6.6.6,0,0,1,.6.6v1.94A.6.6,0,0,1,127.7,144.7Z" transform="translate(-111.16 -48.68)"/><rect class="cls-1" x="130.88" y="148.05" width="1.93" height="1.19" transform="translate(-173.96 139.81) rotate(-60)"/><path class="cls-1" d="M132.2,150.56a.6.6,0,0,1-.29-.08l-1.68-1a.59.59,0,0,1-.22-.81.58.58,0,0,1,.81-.22l1.68,1a.59.59,0,0,1-.3,1.11Z" transform="translate(-111.16 -48.68)"/><rect class="cls-1" x="137.61" y="147.67" width="1.19" height="1.93" transform="translate(-166.96 40.34) rotate(-30)"/><path class="cls-1" d="M137.85,150.56a.59.59,0,0,1-.3-1.11l1.68-1a.58.58,0,0,1,.81.22.59.59,0,0,1-.22.81l-1.68,1A.6.6,0,0,1,137.85,150.56Z" transform="translate(-111.16 -48.68)"/><rect class="cls-1" x="29.26" y="93.86" width="1.93" height="1.19"/><path class="cls-1" d="M142.35,144.7a.6.6,0,0,1-.6-.59v-1.94a.6.6,0,0,1,.6-.6.59.59,0,0,1,.59.6v1.94A.59.59,0,0,1,142.35,144.7Z" transform="translate(-111.16 -48.68)"/><rect class="cls-1" x="137.24" y="137.04" width="1.93" height="1.19" transform="translate(-161.25 139.81) rotate(-60)"/><path class="cls-1" d="M139.52,137.87a.51.51,0,0,1-.29-.08l-1.68-1a.6.6,0,0,1-.22-.81.59.59,0,0,1,.81-.21l1.68,1a.6.6,0,0,1,.22.82A.59.59,0,0,1,139.52,137.87Z" transform="translate(-111.16 -48.68)"/><rect class="cls-1" x="128.55" y="145.72" width="1.93" height="1.19" transform="translate(-166.96 35.66) rotate(-29.99)"/><path class="cls-1" d="M129.17,148.23a.6.6,0,0,1-.52-.3l-1-1.67a.61.61,0,0,1,.22-.82.6.6,0,0,1,.81.22l1,1.68a.58.58,0,0,1-.22.81A.51.51,0,0,1,129.17,148.23Z" transform="translate(-111.16 -48.68)"/><rect class="cls-1" x="23.27" y="99.84" width="1.19" height="1.93"/><path class="cls-1" d="M136,151.05h-1.93a.59.59,0,0,1-.6-.59.6.6,0,0,1,.6-.6H136a.6.6,0,0,1,.6.6A.59.59,0,0,1,136,151.05Z" transform="translate(-111.16 -48.68)"/><rect class="cls-1" x="139.94" y="145.35" width="1.19" height="1.93" transform="translate(-167.61 146.17) rotate(-60)"/><path class="cls-1" d="M140.88,148.23a.51.51,0,0,1-.29-.08.58.58,0,0,1-.22-.81l1-1.68a.6.6,0,0,1,.81-.22.61.61,0,0,1,.22.82l-1,1.67A.6.6,0,0,1,140.88,148.23Z" transform="translate(-111.16 -48.68)"/><rect class="cls-1" x="139.56" y="139.36" width="1.93" height="1.19" transform="translate(-162.31 40.31) rotate(-29.99)"/><path class="cls-1" d="M141.85,140.91a.6.6,0,0,1-.51-.3l-1-1.68a.59.59,0,0,1,.22-.81.59.59,0,0,1,.81.22l1,1.68a.6.6,0,0,1-.22.81A.67.67,0,0,1,141.85,140.91Z" transform="translate(-111.16 -48.68)"/><rect class="cls-1" x="23.27" y="87.13" width="1.19" height="1.93"/><path class="cls-1" d="M136,136.41h-1.93a.6.6,0,1,1,0-1.19H136a.6.6,0,1,1,0,1.19Z" transform="translate(-111.16 -48.68)"/><rect class="cls-1" x="128.93" y="138.99" width="1.19" height="1.93" transform="translate(-167.6 133.47) rotate(-60)"/><path class="cls-1" d="M128.2,140.91a.67.67,0,0,1-.3-.08.6.6,0,0,1-.22-.81l1-1.68a.59.59,0,0,1,.81-.22.59.59,0,0,1,.22.81l-1,1.68A.6.6,0,0,1,128.2,140.91Z" transform="translate(-111.16 -48.68)"/><rect class="cls-1" x="128.55" y="145.72" width="1.93" height="1.19" transform="translate(-166.96 35.66) rotate(-29.99)"/><path class="cls-1" d="M129.17,148.23a.6.6,0,0,1-.52-.3l-1-1.67a.61.61,0,0,1,.22-.82.6.6,0,0,1,.81.22l1,1.68a.58.58,0,0,1-.22.81A.51.51,0,0,1,129.17,148.23Z" transform="translate(-111.16 -48.68)"/><rect class="cls-1" x="23.27" y="99.84" width="1.19" height="1.93"/><path class="cls-1" d="M136,151.05h-1.93a.59.59,0,0,1-.6-.59.6.6,0,0,1,.6-.6H136a.6.6,0,0,1,.6.6A.59.59,0,0,1,136,151.05Z" transform="translate(-111.16 -48.68)"/><rect class="cls-1" x="139.94" y="145.35" width="1.19" height="1.93" transform="translate(-167.61 146.17) rotate(-60)"/><path class="cls-1" d="M140.88,148.23a.51.51,0,0,1-.29-.08.58.58,0,0,1-.22-.81l1-1.68a.6.6,0,0,1,.81-.22.61.61,0,0,1,.22.82l-1,1.67A.6.6,0,0,1,140.88,148.23Z" transform="translate(-111.16 -48.68)"/><rect class="cls-1" x="139.56" y="139.36" width="1.93" height="1.19" transform="translate(-162.31 40.31) rotate(-29.99)"/><path class="cls-1" d="M141.85,140.91a.6.6,0,0,1-.51-.3l-1-1.68a.59.59,0,0,1,.22-.81.59.59,0,0,1,.81.22l1,1.68a.6.6,0,0,1-.22.81A.67.67,0,0,1,141.85,140.91Z" transform="translate(-111.16 -48.68)"/><rect class="cls-1" x="23.27" y="87.13" width="1.19" height="1.93"/><path class="cls-1" d="M136,136.41h-1.93a.6.6,0,1,1,0-1.19H136a.6.6,0,1,1,0,1.19Z" transform="translate(-111.16 -48.68)"/><rect class="cls-1" x="128.93" y="138.99" width="1.19" height="1.93" transform="translate(-167.6 133.47) rotate(-60)"/><path class="cls-1" d="M128.2,140.91a.67.67,0,0,1-.3-.08.6.6,0,0,1-.22-.81l1-1.68a.59.59,0,0,1,.81-.22.59.59,0,0,1,.22.81l-1,1.68A.6.6,0,0,1,128.2,140.91Z" transform="translate(-111.16 -48.68)"/><path class="cls-1" d="M133.91,141.87a.59.59,0,0,1-.42-.17.56.56,0,0,1-.18-.42s0-.08,0-.12a.36.36,0,0,1,0-.11.31.31,0,0,1,0-.1l.08-.09a.62.62,0,0,1,.84,0l.07.09a.31.31,0,0,1,0,.1.36.36,0,0,1,0,.11.49.49,0,0,1,0,.12.59.59,0,0,1-.17.42l-.1.07-.1.06-.11,0Z" transform="translate(-111.16 -48.68)"/><path class="cls-1" d="M137.87,142.09a.6.6,0,0,1-.42-.18l-.07-.09-.06-.1,0-.11a.49.49,0,0,1,0-.12.37.37,0,0,1,0-.11l0-.11.06-.11.07-.09.09-.07.1-.05.11,0H138l.11,0,.1.05.09.07.08.09a1.17,1.17,0,0,1,0,.11.35.35,0,0,1,0,.11.37.37,0,0,1,0,.11.49.49,0,0,1,0,.12.45.45,0,0,1,0,.11l0,.1-.08.09A.6.6,0,0,1,137.87,142.09Z" transform="translate(-111.16 -48.68)"/><path class="cls-1" d="M136.77,145.89h-.12l-.11,0-.1-.06-.09-.08-.08-.08a.54.54,0,0,1-.05-.11.2.2,0,0,1,0-.11.52.52,0,0,1,0-.11.5.5,0,0,1,0-.12.45.45,0,0,1,0-.11.93.93,0,0,1,.05-.1.36.36,0,0,1,.08-.09l.09-.08.1-.05.11,0a.88.88,0,0,1,.23,0l.12,0,.1.05.09.08a.22.22,0,0,1,.07.09l.06.1,0,.11a.49.49,0,0,1,0,.12.45.45,0,0,1,0,.11l0,.11-.06.11a.27.27,0,0,1-.07.08A.56.56,0,0,1,136.77,145.89Z" transform="translate(-111.16 -48.68)"/><path class="cls-1" d="M133.16,145a.63.63,0,0,1-.42-.17.6.6,0,0,1,0-.84.6.6,0,0,1,.54-.16l.11,0,.1.06a.71.71,0,0,1,.09.07.62.62,0,0,1,.18.42.6.6,0,0,1-.18.42l-.09.08-.1.05a.2.2,0,0,1-.11,0Z" transform="translate(-111.16 -48.68)"/></g><g id="celular"><rect class="cls-3" x="1.67" y="1.67" width="87.7" height="166.73" rx="8.52" ry="8.52"/><rect class="cls-3" x="6.46" y="12.85" width="78.11" height="144.36" rx="2.93" ry="2.93"/></g></svg>