<svg id="mapa" xmlns="http://www.w3.org/2000/svg" viewBox="0 0 196.84 203.38"><defs><style>.cls-1{fill:none;stroke:#df1995;stroke-miterlimit:10;stroke-width:4px;}</style></defs><title>mapa</title><path class="cls-1" d="M195.12,73.65l10-10.93c6.73,2.23,13.08,4.35,16.67,11.21,1.9-2,4.44-.32,6.35.28,4.72,1.49,9.59,2.06,14.32,3.36A7.16,7.16,0,0,1,246.67,80c2.26,3,6,4.28,7.93,7.68.41.7,1.79,1,2.78,1.12,4.05.73,6.06,3.12,6.05,7.42,0,5.56-.34,11-4.67,15.09-2.44,2.29-4.94,4.81-7.87,6.14a14.2,14.2,0,0,0-5.57,5c-2,2.66-2.79,6.52-7.16,6.34-.45,0-1,1.34-1.41,2.12-1.77,3.33-3.06,6.73-2.91,10.7s-2.36,7.05-4,10.26c-2.61,5.1-4.77,10.56-8.74,14.85a15.06,15.06,0,0,0-3.62,6.62c-.93,3.64-4.56,3.54-7.12,4.68a12.44,12.44,0,0,1-6,.91c-2.57-.2-5.2-.41-7.16,2.13a3.82,3.82,0,0,1-3.15,1.52c-2-.08-3.65.88-5.35,1.82-3.36,1.84-6.21,4.48-9.47,6.52-2.47,1.54-3,5.36-2.95,8.64.11,3.92-.82,7-4.59,9a9.51,9.51,0,0,0-4,5c-1.41,3.53-2.2,3.71-5.14,2.12-2.85,3.05-5.92,5.85-7,10.44-.62,2.7-3.34,4.07-5,6.1-2.5-1.85-.95-3.21.13-4.27-1.14-4.69-5.6-5.86-7.9-9.14-.62-.88-1.46,1-2.43.69a7.21,7.21,0,0,0-4.27-5.54" transform="translate(-68.59 -31.53)"/><path class="cls-1" d="M83.6,111.26c-1.29,2.35.82,2.68.94,5.55a62.9,62.9,0,0,1,7.78.65c3.88.6,6.53-2.31,9.23-4.69,3.48-3.07,6.47-3.42,10-1.1-2.68,7-.19,11.46,6.75,12.62a13.89,13.89,0,0,1,5,2.19c1.9,1.21,3.63,2.33,6.08,2.26,2.19-.06,3.16,2.46,3.35,4s-1.62,3.48-.44,5.09,0,3.64,1.13,5.65c2.41-1.91,4.61,0,7.71.07-2.06,2.92,1,4.19,1.12,6.51.2,3.5-1.13,6.46-2.07,9.65-.77,2.63-2.59,5.32-1,8.5.49,1-.38,2.64-.66,4.16,2.14,1.21,4.61.66,6.86,1.13,2.52.54,3.23,1.44,3.2,3.88-.05,4.67,0,4.67,4.57,5.61.13,2.52-.88,4.87-1.28,7.43,2.74,2.69,2.72,7.62-.51,9.42A51.12,51.12,0,0,0,135,214.63c-.18.26-.69.27-1,.39" transform="translate(-68.59 -31.53)"/><path class="cls-1" d="M98.75,55.13c-2.09,1.7-3.92,4.81-2.57,7.47a7.28,7.28,0,0,1,.09,6.27c-1.56,4-2,8.25-3.81,12.24-1.28,2.91-3.12,2.68-5.13,2.45-3.14-.37-8.59,2-10,4.86-1.51,3.13-2.8,6.22-5.59,8.63-1.62,1.41-1.56,4.43-.05,6.44a15.88,15.88,0,0,1,2.74,4.13,1.26,1.26,0,0,1-1,1.83" transform="translate(-68.59 -31.53)"/><path class="cls-1" d="M99.07,55.19c-1.12-.81-2-2-1.35-3.28s2-.77,3.12-.77c3,0,6,0,8.9-1.11,1.61.85.89,3.11,2.77,4.2a7.77,7.77,0,0,0,7.09.36c2.52-1.15,5.85-1.64,7.27-4.9.3-.69,1.36-1,2.07-1.51-.6-2.21-3.6-3.58-1.88-6.71.46-.84-1.91-1.67-1.67-3.26-.18-.92.88-.56,1.07-1.1,1.59,2.91,5.74-.09,7.35,3.81,1-3.78,3.85-2.56,6.13-3.21,2.44-.7,4.61-2.45,7-3.79,4.4,3.36,4.5,3.4,2.28,8.34-1.1,2.44-1.63,4.54,0,7.07,1.27,2,2.25,2.24,4.71,2.1,3.2-.18,5.25-3.25,8.53-2.6a11.68,11.68,0,0,1,3.41.94,9.32,9.32,0,0,0,2.46-4c2,2,3.31.11,5.5-.52l2.44,2.94c2-.61,4-2.5,6.22-.27,3.22-3,5.54-7,9.29-9.85,1.29,1.83,1.51,3.87,1.68,6a9.35,9.35,0,0,0,1.68,5.21c1.91,2.43,1.44,5-1,7-.68.53-1.41,1-2.13,1.48-3.29,2.17-6,4.75-6,9.23" transform="translate(-68.59 -31.53)"/><path class="cls-1" d="M185.87,67c.84-.18,2.75-1.09,4-1.36.37,3.9,3.39,5.93,5.82,7.57" transform="translate(-68.59 -31.53)"/><path class="cls-1" d="M74.88,109.45l4.33,3.35,4.91-1.13" transform="translate(-68.59 -31.53)"/></svg>