<svg id="Camada_5" data-name="Camada 5" xmlns="http://www.w3.org/2000/svg" viewBox="0 0 121.37 142.62"><defs><style>.cls-1,.cls-2{fill:none;stroke:#df1995;stroke-linejoin:round;}.cls-1{stroke-width:4.32px;}.cls-2{stroke-width:3.65px;}</style></defs><title>pessoa</title><path class="cls-1" d="M185.74,60l0,0c-4-4-10.29-6.88-20-6.89s-16,2.92-20,6.89l0,0" transform="translate(-107.44 -50.93)"/><path class="cls-1" d="M177.5,130.23c.84,4,1.35,6.5,3.44,9.05l34,13.51a12.29,12.29,0,0,1,6.75,7.4c1.55,4.73,3.61,19.54,4.94,33.15" transform="translate(-107.44 -50.93)"/><path class="cls-1" d="M139.47,90.41c18.07-2.66,30.39-5.7,39-19.54a1,1,0,0,1,1.84.23c1.62,5.16,6.06,17.7,11.49,20.4h0c-2.15,20.13-5.69,31-15.48,39.75a12.81,12.81,0,0,1-6.81,3.16l-.56.09c-.62.1-1.12.17-1.62.22a15.72,15.72,0,0,1-1.63.08,17.76,17.76,0,0,1-3.24-.3l-.56-.09a12.81,12.81,0,0,1-6.81-3.16c-10-8.89-13.46-20-15.59-40.84Z" transform="translate(-107.44 -50.93)"/><path class="cls-1" d="M185.7,60c27.92,24.05,12,62.74,12.67,71.48.25,3.34-4.32,4-9,4.52" transform="translate(-107.44 -50.93)"/><path class="cls-1" d="M145.66,60c-27.91,24.05-12,62.74-12.66,71.48-.25,3.34,4.31,4,9,4.52" transform="translate(-107.44 -50.93)"/><path class="cls-1" d="M150.43,139.28l11.69,8.44a6.06,6.06,0,0,0,7.13,0l11.69-8.45" transform="translate(-107.44 -50.93)"/><path class="cls-2" d="M150.68,137.37c-.69,3.37-1.11,5.43-2.87,7.55L119,156a10.09,10.09,0,0,0-5.69,6.15c-1.3,3.95-3,16.34-4,27.73" transform="translate(-107.44 -50.93)"/></svg>