<svg id="Camada_12" data-name="Camada 12" xmlns="http://www.w3.org/2000/svg" viewBox="0 0 161.73 170.57"><defs><style>.cls-1,.cls-2{fill:none;stroke-linecap:round;stroke-linejoin:round;stroke-width:3.34px;}.cls-1{stroke:#df1995;}.cls-2{stroke:#409;}</style></defs><title>datacenter</title><rect class="cls-1" x="1.67" y="131" width="158.39" height="37.89" rx="5.45" ry="5.45"/><rect class="cls-2" x="15.34" y="144.03" width="11.86" height="11.86" rx="1.17" ry="1.17"/><path class="cls-2" d="M198.43,189.16a3.2,3.2,0,1,1,3.2-3.19A3.19,3.19,0,0,1,198.43,189.16Z" transform="translate(-78.61 -42.06)"/><path class="cls-2" d="M211.46,189.16a3.2,3.2,0,1,1,3.2-3.19A3.19,3.19,0,0,1,211.46,189.16Z" transform="translate(-78.61 -42.06)"/><path class="cls-2" d="M223.46,189.16a3.2,3.2,0,1,1,3.2-3.19A3.19,3.19,0,0,1,223.46,189.16Z" transform="translate(-78.61 -42.06)"/><rect class="cls-1" x="1.67" y="87.89" width="158.39" height="37.89" rx="5.45" ry="5.45"/><rect class="cls-2" x="15.34" y="100.92" width="11.86" height="11.86" rx="1.17" ry="1.17"/><path class="cls-2" d="M198.43,146.05a3.2,3.2,0,1,1,3.2-3.2A3.19,3.19,0,0,1,198.43,146.05Z" transform="translate(-78.61 -42.06)"/><path class="cls-2" d="M211.46,146.05a3.2,3.2,0,1,1,3.2-3.2A3.2,3.2,0,0,1,211.46,146.05Z" transform="translate(-78.61 -42.06)"/><path class="cls-2" d="M223.46,146.05a3.2,3.2,0,1,1,3.2-3.2A3.2,3.2,0,0,1,223.46,146.05Z" transform="translate(-78.61 -42.06)"/><rect class="cls-1" x="1.67" y="44.78" width="158.39" height="37.89" rx="5.45" ry="5.45"/><rect class="cls-2" x="15.34" y="57.81" width="11.86" height="11.86" rx="1.17" ry="1.17"/><path class="cls-2" d="M198.43,102.94a3.2,3.2,0,1,1,3.2-3.2A3.19,3.19,0,0,1,198.43,102.94Z" transform="translate(-78.61 -42.06)"/><path class="cls-2" d="M211.46,102.94a3.2,3.2,0,1,1,3.2-3.2A3.2,3.2,0,0,1,211.46,102.94Z" transform="translate(-78.61 -42.06)"/><path class="cls-2" d="M223.46,102.94a3.2,3.2,0,1,1,3.2-3.2A3.2,3.2,0,0,1,223.46,102.94Z" transform="translate(-78.61 -42.06)"/><rect class="cls-1" x="1.67" y="1.67" width="158.39" height="37.89" rx="5.45" ry="5.45"/><rect class="cls-2" x="15.34" y="14.7" width="11.86" height="11.86" rx="1.17" ry="1.17"/><path class="cls-2" d="M198.43,59.83a3.2,3.2,0,1,1,3.2-3.2A3.19,3.19,0,0,1,198.43,59.83Z" transform="translate(-78.61 -42.06)"/><path class="cls-2" d="M211.46,59.83a3.2,3.2,0,1,1,3.2-3.2A3.2,3.2,0,0,1,211.46,59.83Z" transform="translate(-78.61 -42.06)"/><path class="cls-2" d="M223.46,59.83a3.2,3.2,0,1,1,3.2-3.2A3.2,3.2,0,0,1,223.46,59.83Z" transform="translate(-78.61 -42.06)"/></svg>