<svg id="Camada_6" data-name="Camada 6" xmlns="http://www.w3.org/2000/svg" viewBox="0 0 106.77 191.38"><defs><style>.cls-1{fill:#fff;stroke:#df1995;}.cls-1,.cls-2,.cls-3,.cls-4{stroke-linecap:round;stroke-linejoin:round;}.cls-1,.cls-2{stroke-width:3px;}.cls-2,.cls-3,.cls-4{fill:none;stroke:#409;}.cls-3{stroke-width:3.39px;}.cls-4{stroke-width:2.62px;}</style></defs><title>hospital</title><polyline class="cls-1" points="21.76 28.29 21.76 1.5 84.24 1.5 84.24 28.29"/><path class="cls-1" d="M110.31,61.72H214.09a0,0,0,0,1,0,0V215.95a4.23,4.23,0,0,1-4.23,4.23H114.54a4.23,4.23,0,0,1-4.23-4.23V61.72A0,0,0,0,1,110.31,61.72Z" transform="translate(215.59 251.25) rotate(180)"/><rect class="cls-2" x="127.36" y="75.71" width="15.51" height="18.15" rx="1.01" ry="1.01" transform="translate(161.41 138.92) rotate(180)"/><rect class="cls-2" x="153.82" y="75.71" width="15.51" height="18.15" rx="1.01" ry="1.01" transform="translate(214.34 138.92) rotate(180)"/><rect class="cls-2" x="180.31" y="75.71" width="15.51" height="18.15" rx="1.01" ry="1.01" transform="translate(267.31 138.92) rotate(180)"/><rect class="cls-2" x="127.36" y="103.48" width="15.51" height="18.15" rx="1.01" ry="1.01" transform="translate(161.41 194.46) rotate(-180)"/><rect class="cls-2" x="153.82" y="103.48" width="15.51" height="18.15" rx="1.01" ry="1.01" transform="translate(214.34 194.46) rotate(-180)"/><rect class="cls-2" x="180.31" y="103.48" width="15.51" height="18.15" rx="1.01" ry="1.01" transform="translate(267.31 194.46) rotate(180)"/><rect class="cls-2" x="127.36" y="130.45" width="15.51" height="18.15" rx="1.01" ry="1.01" transform="translate(161.41 248.39) rotate(180)"/><rect class="cls-2" x="153.82" y="130.45" width="15.51" height="18.15" rx="1.01" ry="1.01" transform="translate(214.34 248.39) rotate(180)"/><rect class="cls-2" x="180.31" y="130.45" width="15.51" height="18.15" rx="1.01" ry="1.01" transform="translate(267.31 248.39) rotate(180)"/><rect class="cls-2" x="127.36" y="157.44" width="15.51" height="18.15" rx="1.01" ry="1.01" transform="translate(161.41 302.37) rotate(180)"/><rect class="cls-2" x="153.82" y="157.44" width="15.51" height="18.15" rx="1.01" ry="1.01" transform="translate(214.34 302.37) rotate(180)"/><rect class="cls-2" x="180.31" y="157.44" width="15.51" height="18.15" rx="1.01" ry="1.01" transform="translate(267.31 302.37) rotate(180)"/><rect class="cls-3" x="149.19" y="191.93" width="23.53" height="28.39" transform="translate(213.1 381.61) rotate(180)"/><polygon class="cls-4" points="64.25 12.48 64.25 19.71 57.36 19.71 57.36 26.6 50.13 26.6 50.13 19.71 43.25 19.71 43.25 12.48 50.13 12.48 50.13 5.6 57.36 5.6 57.36 12.48 64.25 12.48"/></svg>