<svg id="simplifai_branco" data-name="simplifai branco" xmlns="http://www.w3.org/2000/svg" viewBox="0 0 308.67 72.44"><defs><style>.cls-1{fill:#fff;}.cls-2{fill:none;stroke:#fff;stroke-linecap:round;stroke-miterlimit:10;stroke-width:5.28px;}</style></defs><title>simplifaiBranco</title><path class="cls-1" d="M57.71,103.41a38.63,38.63,0,0,1,11.11-14.1H74v.52Q58.62,102.31,58.61,123.3T74,156.82v.53H68.82a39.31,39.31,0,0,1-11.11-14.1,45.34,45.34,0,0,1-4.2-20A45.42,45.42,0,0,1,57.71,103.41Z" transform="translate(-53.51 -89.31)"/><path class="cls-1" d="M146,143.22a39.24,39.24,0,0,1-11.11,14.13h-5.16v-.53Q145,144.3,145,123.3a45.14,45.14,0,0,0-3.8-18.71,40.54,40.54,0,0,0-11.51-14.76v-.52h5.16A38.63,38.63,0,0,1,146,103.41a45.42,45.42,0,0,1,4.2,19.89A45.4,45.4,0,0,1,146,143.22Z" transform="translate(-53.51 -89.31)"/><path class="cls-1" d="M157,103.14a4.27,4.27,0,0,1,5.22,0,3.31,3.31,0,0,1,0,4.7,4.23,4.23,0,0,1-5.22,0,3.28,3.28,0,0,1,0-4.7Zm5.22,11.69v31.84H157V114.83Z" transform="translate(-53.51 -89.31)"/><path class="cls-1" d="M218.83,117.88c2.27,2.37,3.4,5.81,3.4,10.29v18.5H217v-18c0-3.14-.76-5.53-2.29-7.2a8.14,8.14,0,0,0-6.29-2.49,8.66,8.66,0,0,0-6.7,2.75c-1.68,1.84-2.53,4.54-2.53,8.1v16.87h-5.27v-18c0-3.14-.78-5.53-2.32-7.2a8.16,8.16,0,0,0-6.27-2.49,8.72,8.72,0,0,0-6.75,2.75q-2.53,2.76-2.53,8.1v16.87h-5.28V114.83H176v7.25a10.38,10.38,0,0,1,4.15-5.77,12.95,12.95,0,0,1,13.92.06,11.18,11.18,0,0,1,4.26,6.06,11.5,11.5,0,0,1,4.47-6,12.34,12.34,0,0,1,7.07-2.12A11.77,11.77,0,0,1,218.83,117.88Z" transform="translate(-53.51 -89.31)"/><path class="cls-1" d="M255.52,116.4a13.64,13.64,0,0,1,5.19,5.68,19,19,0,0,1,1.89,8.7,18.72,18.72,0,0,1-1.89,8.67,13.7,13.7,0,0,1-5.19,5.66,14.47,14.47,0,0,1-7.54,2,13,13,0,0,1-7.86-2.35,12,12,0,0,1-4.44-6.18v23.2h-5.27V114.83h5.27V123a12,12,0,0,1,4.44-6.18,13,13,0,0,1,7.86-2.34A14.38,14.38,0,0,1,255.52,116.4Zm-14.62,4.14a9.89,9.89,0,0,0-3.88,4.09,13.09,13.09,0,0,0-1.39,6.15A12.91,12.91,0,0,0,237,136.9,10.07,10.07,0,0,0,240.9,141a10.87,10.87,0,0,0,5.57,1.45,10.28,10.28,0,0,0,7.86-3.1q2.92-3.1,2.93-8.56t-2.93-8.55a10.29,10.29,0,0,0-7.86-3.11A11.15,11.15,0,0,0,240.9,120.54Z" transform="translate(-53.51 -89.31)"/><path class="cls-1" d="M274.78,103.75v42.92H269.5V103.75Z" transform="translate(-53.51 -89.31)"/><path class="cls-1" d="M283.3,103.14a4.27,4.27,0,0,1,5.22,0,3.28,3.28,0,0,1,0,4.7,4.23,4.23,0,0,1-5.22,0,3.28,3.28,0,0,1,0-4.7Zm5.22,11.69v31.84h-5.28V114.83Z" transform="translate(-53.51 -89.31)"/><path class="cls-1" d="M305.2,108.74q-1.67,1.52-1.66,5.22v.87h7.54v4.64h-7.54v27.2h-5.28v-27.2h-4.58v-4.64h4.58v-1.27q0-11.43,12.82-10.91v4.64C308.26,107.25,306.3,107.74,305.2,108.74Z" transform="translate(-53.51 -89.31)"/><path class="cls-1" d="M337.73,116.75a12,12,0,0,1,4.5,6.2v-8.12h5.28v31.84h-5.28v-8.12a12.1,12.1,0,0,1-4.5,6.21,13,13,0,0,1-7.86,2.32,14.5,14.5,0,0,1-7.54-2,13.7,13.7,0,0,1-5.19-5.66,18.85,18.85,0,0,1-1.88-8.67,19.1,19.1,0,0,1,1.88-8.7,13.64,13.64,0,0,1,5.19-5.68,14.4,14.4,0,0,1,7.54-2A13,13,0,0,1,337.73,116.75Zm-14.15,5.48q-2.93,3.1-2.93,8.55t2.93,8.56a10.21,10.21,0,0,0,7.8,3.1A10.8,10.8,0,0,0,337,141a10.16,10.16,0,0,0,3.86-4.09,13,13,0,0,0,1.39-6.12,13.21,13.21,0,0,0-1.39-6.15,10,10,0,0,0-3.86-4.09,11.07,11.07,0,0,0-5.6-1.42A10.21,10.21,0,0,0,323.58,122.23Z" transform="translate(-53.51 -89.31)"/><path class="cls-1" d="M356,103.14a4.27,4.27,0,0,1,5.22,0,3.28,3.28,0,0,1,0,4.7,4.23,4.23,0,0,1-5.22,0,3.31,3.31,0,0,1,0-4.7Zm5.22,11.69v31.84h-5.27V114.83Z" transform="translate(-53.51 -89.31)"/><path class="cls-2" d="M74,144.58c7.83-.46,11.38.77,15.11-1.68,3.1-2,4.88-7.27,6-9.87,3.25-7.72,3.67-16.75,10.11-23.25,5.15-5.19,11.59-5.54,16.57-5.2" transform="translate(-53.51 -89.31)"/></svg>