<svg id="medico" xmlns="http://www.w3.org/2000/svg" viewBox="0 0 140.8 159.14"><defs><style>.cls-1,.cls-2,.cls-3{fill:none;stroke-linejoin:round;stroke-width:3.92px;}.cls-1{stroke:#df1995;}.cls-2,.cls-3{stroke:#409;}.cls-3{stroke-linecap:round;}</style></defs><title>meÌdico</title><path class="cls-1" d="M94.63,191.05c1.43-15.09,4.08-31.87,6-37.27a13,13,0,0,1,7.45-7.55l35.72-13.82,15.51,10.3a7.28,7.28,0,0,0,7.47-.05l15-10.25L218,146.24a13,13,0,0,1,7.52,7.57c1.94,5.42,4.58,22.18,6,37.24" transform="translate(-92.68 -32.43)"/><path class="cls-2" d="M136.94,159.79a36.68,36.68,0,0,1-1.95-24" transform="translate(-92.68 -32.43)"/><path class="cls-2" d="M146.65,164.9a6.22,6.22,0,1,1-6.21-6.17A6.2,6.2,0,0,1,146.65,164.9Z" transform="translate(-92.68 -32.43)"/><path class="cls-2" d="M191.22,136a36.29,36.29,0,0,1,.43,14.58" transform="translate(-92.68 -32.43)"/><path class="cls-3" d="M175.44,182.48l-1,3.76c-3.51-.76-6.45-4.09-5.43-7.39l7.24-20c2.3-6,7.79-9.9,15-8.32h0c7.24,1.58,10.26,7.36,9.44,13.65l-3.18,20.9c-.68,3.37-4.92,5.13-8.43,4.37l1-3.77" transform="translate(-92.68 -32.43)"/><path class="cls-1" d="M128.35,80.56c-.08-3.44-.27-11.39-.46-14.09,0-9.32,2.4-28.26,19.85-28.32,5.55,0,4-3.75,14.71-3.75,32.79,0,35.51,21.73,35.51,32.07-.33,2.52-.4,10.38-.42,14.13" transform="translate(-92.68 -32.43)"/><path class="cls-1" d="M162.92,124.53a25.43,25.43,0,0,0,4.26-.31l.65-.1c3.13-.46,5.72-.86,8.32-2.83a53.76,53.76,0,0,0,13.58-15.17l2.64-7.18a4.62,4.62,0,0,1,1.24-1.84c5-4.5,8.27-14.71,2.74-17.28a3.17,3.17,0,0,1-4.08-1.31,16.5,16.5,0,0,1-2.72-6.11,1.14,1.14,0,0,0-1.27-.89c-21.09,3.14-37.37-7.63-42.59-11.7a1.88,1.88,0,0,0-1.57-.33,1.52,1.52,0,0,0-1.22,1A46.8,46.8,0,0,1,141,67.6,32.43,32.43,0,0,1,133.61,80c-1.79,1.88-4.11-.14-4.11-.14-5.54,2.57-2.27,12.78,2.73,17.28a4.62,4.62,0,0,1,1.24,1.84l2.65,7.18a48.67,48.67,0,0,0,9.42,11.67,53.91,53.91,0,0,0,4.15,3.5c2.6,2,5.2,2.37,8.32,2.83l.64.1a25.72,25.72,0,0,0,4.27.31" transform="translate(-92.68 -32.43)"/><path class="cls-1" d="M180.28,117.78c.27,5.11.54,10.74,1.49,14.63" transform="translate(-92.68 -32.43)"/><path class="cls-1" d="M145.56,117.78a88.17,88.17,0,0,1-1.74,14.63" transform="translate(-92.68 -32.43)"/></svg>