<svg xmlns="http://www.w3.org/2000/svg" viewBox="0 0 176.93 174.89"><defs><style>.cls-1,.cls-2,.cls-3{fill:none;stroke-linejoin:round;}.cls-1{stroke:#fff;stroke-width:3.92px;}.cls-2{stroke:#df1995;}.cls-2,.cls-3{stroke-linecap:round;stroke-width:3.47px;}.cls-3{stroke:#409;}</style></defs><title>plataforma</title><g id="medico"><path class="cls-1" d="M94.63,191.05c1.43-15.09,4.08-31.87,6-37.27a13,13,0,0,1,7.45-7.55l35.72-13.82,15.51,10.3a7.28,7.28,0,0,0,7.47-.05l15-10.25L218,146.24a13,13,0,0,1,7.52,7.57c1.94,5.42,4.58,22.18,6,37.24" transform="translate(-72.5 -32.43)"/><path class="cls-1" d="M128.35,80.56c-.08-3.44-.27-11.39-.46-14.09,0-9.32,2.4-28.26,19.85-28.32,5.55,0,4-3.75,14.71-3.75,32.79,0,35.51,21.73,35.51,32.07-.33,2.52-.4,10.38-.42,14.13" transform="translate(-72.5 -32.43)"/><path class="cls-1" d="M162.92,124.53a25.43,25.43,0,0,0,4.26-.31l.65-.1c3.13-.46,5.72-.86,8.32-2.83a53.76,53.76,0,0,0,13.58-15.17l2.64-7.18a4.62,4.62,0,0,1,1.24-1.84c5-4.5,8.27-14.71,2.74-17.28a3.17,3.17,0,0,1-4.08-1.31,16.5,16.5,0,0,1-2.72-6.11,1.14,1.14,0,0,0-1.27-.89c-21.09,3.14-37.37-7.63-42.59-11.7a1.88,1.88,0,0,0-1.57-.33,1.52,1.52,0,0,0-1.22,1A46.8,46.8,0,0,1,141,67.6,32.43,32.43,0,0,1,133.61,80c-1.79,1.88-4.11-.14-4.11-.14-5.54,2.57-2.27,12.78,2.73,17.28a4.62,4.62,0,0,1,1.24,1.84l2.65,7.18a48.67,48.67,0,0,0,9.42,11.67,53.91,53.91,0,0,0,4.15,3.5c2.6,2,5.2,2.37,8.32,2.83l.64.1a25.72,25.72,0,0,0,4.27.31" transform="translate(-72.5 -32.43)"/><path class="cls-1" d="M180.28,117.78c.27,5.11.54,10.74,1.49,14.63" transform="translate(-72.5 -32.43)"/><path class="cls-1" d="M145.56,117.78a88.17,88.17,0,0,1-1.74,14.63" transform="translate(-72.5 -32.43)"/></g><g id="Camada_18" data-name="Camada 18"><polyline class="cls-2" points="104.16 148.21 111.8 173.16 61.59 173.16 69.23 148.21"/><rect class="cls-2" x="1.73" y="24.59" width="173.47" height="123.62" rx="7.68" ry="7.68"/><line class="cls-3" x1="105.86" y1="71.69" x2="119.99" y2="59.74"/><line class="cls-3" x1="83.03" y1="64.08" x2="91.73" y2="72.78"/><line class="cls-3" x1="53.68" y1="77.13" x2="67.81" y2="66.26"/><rect class="cls-3" x="117.38" y="72.01" width="18.88" height="56.05"/><rect class="cls-3" x="91.42" y="96.2" width="18.29" height="31.86"/><rect class="cls-3" x="64.87" y="80.86" width="19.47" height="47.2"/><rect class="cls-3" x="37.14" y="101.51" width="19.47" height="26.55"/><circle class="cls-3" cx="46.28" cy="83.52" r="9.6"/><circle class="cls-3" cx="74.6" cy="58.15" r="9.6"/><circle class="cls-3" cx="99.38" cy="78.8" r="9.6"/><circle class="cls-3" cx="127.11" cy="53.43" r="9.6"/><line class="cls-2" x1="40.24" y1="173.15" x2="132.83" y2="173.15"/><rect class="cls-2" x="9.84" y="32.52" width="157.25" height="107.76" rx="2.99" ry="2.99"/></g></svg>