<svg xmlns="http://www.w3.org/2000/svg" viewBox="0 0 276.61 158.53"><defs><style>.cls-1{fill:none;}.cls-1,.cls-2,.cls-5{stroke:#df1995;}.cls-1,.cls-2{stroke-miterlimit:10;stroke-width:2px;}.cls-2,.cls-5{fill:#fff;}.cls-3{fill:#409;}.cls-4{fill:#df1995;}.cls-5{stroke-linecap:round;stroke-linejoin:round;stroke-width:1.98px;}</style></defs><title>pulmão celular</title><g id="Camada_14" data-name="Camada 14"><line class="cls-1" x1="47.44" y1="91.82" x2="158.11" y2="35.82"/><line class="cls-1" x1="46.78" y1="129.15" x2="193.44" y2="129.15"/><ellipse class="cls-2" cx="205.62" cy="67.67" rx="69.99" ry="66.67"/></g><g id="pulmão"><path class="cls-3" d="M179.76,147.4a4.38,4.38,0,1,1,4.38-4.38A4.39,4.39,0,0,1,179.76,147.4Zm0-7.89a3.51,3.51,0,1,0,3.51,3.51A3.52,3.52,0,0,0,179.76,139.51Z" transform="translate(-8.49 -44.95)"/><rect class="cls-3" x="170.83" y="91.63" width="0.87" height="2.49"/><path class="cls-3" d="M180.77,137h-2a.44.44,0,0,1-.43-.44.43.43,0,0,1,.43-.43h2a.43.43,0,0,1,.43.43A.44.44,0,0,1,180.77,137Z" transform="translate(-8.49 -44.95)"/><rect class="cls-3" x="176.99" y="138.28" width="0.87" height="1.42" transform="translate(-54.22 62.39) rotate(-30)"/><path class="cls-3" d="M176.46,139.17a.44.44,0,0,1-.22-.82l1.23-.71a.44.44,0,0,1,.6.16.45.45,0,0,1-.16.6l-1.23.71A.46.46,0,0,1,176.46,139.17Z" transform="translate(-8.49 -44.95)"/><rect class="cls-3" x="174.82" y="139.18" width="0.87" height="2.49" transform="translate(-42.47 177.04) rotate(-60)"/><path class="cls-3" d="M173.67,141.11a.39.39,0,0,1-.21-.06.43.43,0,0,1-.16-.59l1-1.75a.43.43,0,1,1,.75.43l-1,1.76A.45.45,0,0,1,173.67,141.11Z" transform="translate(-8.49 -44.95)"/><rect class="cls-3" x="165.9" y="97.63" width="1.42" height="0.87"/><path class="cls-3" d="M174.39,144.17a.44.44,0,0,1-.43-.44v-1.42a.43.43,0,0,1,.43-.43.44.44,0,0,1,.44.43v1.42A.44.44,0,0,1,174.39,144.17Z" transform="translate(-8.49 -44.95)"/><rect class="cls-3" x="174.01" y="145.18" width="2.49" height="0.87" transform="translate(-57.82 62.17) rotate(-29.99)"/><path class="cls-3" d="M174.69,147.55a.44.44,0,0,1-.38-.22l-1-1.75a.43.43,0,0,1,.75-.43l1,1.75a.43.43,0,0,1-.16.59A.42.42,0,0,1,174.69,147.55Z" transform="translate(-8.49 -44.95)"/><rect class="cls-3" x="176.72" y="146.62" width="1.42" height="0.87" transform="translate(-47.13 182.22) rotate(-60)"/><path class="cls-3" d="M177.69,148.46a.43.43,0,0,1-.22-.06l-1.23-.71a.44.44,0,0,1-.16-.6.45.45,0,0,1,.6-.16l1.23.71a.45.45,0,0,1,.16.6A.44.44,0,0,1,177.69,148.46Z" transform="translate(-8.49 -44.95)"/><rect class="cls-3" x="170.83" y="102.02" width="0.87" height="2.49"/><path class="cls-3" d="M180.77,149.9h-2a.44.44,0,0,1-.43-.44.43.43,0,0,1,.43-.43h2a.43.43,0,0,1,.43.43A.44.44,0,0,1,180.77,149.9Z" transform="translate(-8.49 -44.95)"/><rect class="cls-3" x="181.65" y="146.34" width="0.87" height="1.42" transform="translate(-57.62 65.78) rotate(-30)"/><path class="cls-3" d="M181.82,148.46a.42.42,0,0,1-.37-.22.44.44,0,0,1,.16-.6l1.23-.71a.44.44,0,0,1,.43.76l-1.23.71A.43.43,0,0,1,181.82,148.46Z" transform="translate(-8.49 -44.95)"/><rect class="cls-3" x="183.82" y="144.37" width="0.87" height="2.49" transform="translate(-42.48 187.41) rotate(-60)"/><path class="cls-3" d="M184.83,147.55a.44.44,0,0,1-.38-.65l1-1.75a.44.44,0,0,1,.76.43l-1,1.75A.42.42,0,0,1,184.83,147.55Z" transform="translate(-8.49 -44.95)"/><rect class="cls-3" x="175.21" y="97.63" width="1.42" height="0.87"/><path class="cls-3" d="M185.12,144.17a.44.44,0,0,1-.43-.44v-1.42a.43.43,0,0,1,.43-.43.44.44,0,0,1,.44.43v1.42A.44.44,0,0,1,185.12,144.17Z" transform="translate(-8.49 -44.95)"/><rect class="cls-3" x="183.01" y="139.99" width="2.49" height="0.87" transform="translate(-54.02 65.97) rotate(-29.99)"/><path class="cls-3" d="M185.84,141.11a.45.45,0,0,1-.38-.21l-1-1.76a.43.43,0,0,1,.75-.43l1,1.75a.44.44,0,0,1-.16.59A.46.46,0,0,1,185.84,141.11Z" transform="translate(-8.49 -44.95)"/><rect class="cls-3" x="181.38" y="138.55" width="1.42" height="0.87" transform="translate(-37.82 182.23) rotate(-60)"/><path class="cls-3" d="M183.05,139.17a.39.39,0,0,1-.21-.06l-1.23-.71a.44.44,0,0,1-.16-.6.43.43,0,0,1,.59-.16l1.23.71a.44.44,0,0,1-.22.82Z" transform="translate(-8.49 -44.95)"/><path class="cls-3" d="M178.45,141.44a.43.43,0,0,1-.3-.13.39.39,0,0,1-.13-.3.28.28,0,0,1,0-.09.19.19,0,0,1,0-.08s0-.05,0-.08l.06-.06a.43.43,0,0,1,.39-.12l.08,0,.08,0,.06.06.06.06,0,.08s0,0,0,.08a.28.28,0,0,1,0,.09.43.43,0,0,1-.13.3A.44.44,0,0,1,178.45,141.44Z" transform="translate(-8.49 -44.95)"/><path class="cls-3" d="M181.84,142.25a.42.42,0,0,1-.31-.13l-.05-.06a.3.3,0,0,1,0-.08l0-.08v-.08a.28.28,0,0,1,0-.09.24.24,0,0,1,0-.08.16.16,0,0,1,0-.07.26.26,0,0,1,.12-.12l.07-.05.08,0a.44.44,0,0,1,.4.12.44.44,0,0,1,.13.31s0,.06,0,.08l0,.08a.3.3,0,0,1,0,.08l0,.06A.4.4,0,0,1,181.84,142.25Z" transform="translate(-8.49 -44.95)"/><path class="cls-3" d="M180.29,143.59a.51.51,0,0,1-.17,0,.45.45,0,0,1-.14-.1.43.43,0,0,1-.12-.31v-.08l0-.08,0-.08,0-.06a.44.44,0,0,1,.62,0l.05.06a.3.3,0,0,1,0,.08l0,.08s0,.06,0,.08a.44.44,0,0,1-.44.44Z" transform="translate(-8.49 -44.95)"/><path class="cls-3" d="M177.65,143.74a.47.47,0,0,1-.17,0,.71.71,0,0,1-.14-.1l-.06-.06,0-.08a.26.26,0,0,1,0-.08.28.28,0,0,1,0-.09.25.25,0,0,1,0-.08s0-.06,0-.08l0-.08.05-.06a.43.43,0,0,1,.61,0l.06.06,0,.08a.19.19,0,0,1,0,.08.25.25,0,0,1,0,.08.28.28,0,0,1,0,.09.24.24,0,0,1,0,.08.3.3,0,0,1,0,.08l-.06.06-.06.06-.07,0-.09,0Z" transform="translate(-8.49 -44.95)"/><path class="cls-3" d="M179.14,146a.46.46,0,0,1-.31-.13.42.42,0,0,1-.09-.14.51.51,0,0,1,0-.17.43.43,0,0,1,.12-.31.44.44,0,0,1,.4-.12l.08,0,.07,0a.18.18,0,0,1,.07.05.44.44,0,0,1,.13.31.53.53,0,0,1,0,.17.42.42,0,0,1-.09.14A.44.44,0,0,1,179.14,146Z" transform="translate(-8.49 -44.95)"/><path class="cls-3" d="M181.57,144.85a.47.47,0,0,1-.16,0,.34.34,0,0,1-.14-.09l-.06-.07,0-.07a.29.29,0,0,1,0-.09.19.19,0,0,1,0-.08.44.44,0,0,1,.13-.31.45.45,0,0,1,.61,0,.44.44,0,0,1,.13.31.46.46,0,0,1-.13.31A.44.44,0,0,1,181.57,144.85Z" transform="translate(-8.49 -44.95)"/><path class="cls-4" d="M174.55,157.35a7.09,7.09,0,0,1-4.16-1.19c-3.73-2.57-5.18-9.06-5.18-23.12,0-26.15,17-38.57,27.19-43.65,4.11-2,7.42-2.32,9.84-.79,3.5,2.22,3.44,7.23,3.44,7.44a1.72,1.72,0,1,1-3.44-.06c0-.92-.3-3.51-1.85-4.47s-4.43-.06-6.45,1c-9.45,4.72-25.29,16.27-25.29,40.57,0,12.1,1.17,18.55,3.7,20.29,1.75,1.21,4.74.45,9-1.17,7.64-2.9,16-10.79,19.23-14a5.73,5.73,0,0,0,1.67-4.05V119.37a1.72,1.72,0,1,1,3.44,0v14.69a9.17,9.17,0,0,1-2.67,6.48c-4.22,4.24-12.48,11.81-20.45,14.84A24,24,0,0,1,174.55,157.35Z" transform="translate(-8.49 -44.95)"/><path class="cls-4" d="M250.93,157.35a24,24,0,0,1-8-2c-8-3-16.23-10.6-20.44-14.85a9.12,9.12,0,0,1-2.67-6.47V119.37a1.72,1.72,0,1,1,3.44,0v14.69a5.69,5.69,0,0,0,1.67,4.05c3.23,3.26,11.59,11.15,19.23,14,4.25,1.62,7.24,2.38,9,1.17,2.52-1.74,3.7-8.19,3.7-20.29,0-24.3-15.84-35.85-25.29-40.57-2-1-4.79-2-6.46-1s-1.85,3.55-1.84,4.47a1.72,1.72,0,0,1-1.69,1.74A1.7,1.7,0,0,1,219.8,96c0-.21-.06-5.22,3.44-7.44,2.42-1.53,5.73-1.26,9.84.79,10.15,5.08,27.19,17.5,27.19,43.65,0,14.06-1.46,20.55-5.19,23.12A7.08,7.08,0,0,1,250.93,157.35Z" transform="translate(-8.49 -44.95)"/><path class="cls-4" d="M228.61,119.83a4.76,4.76,0,0,1-3.37-1.4l-12.5-12.49-12.51,12.49a4.77,4.77,0,0,1-6.74,0L193,118a4.77,4.77,0,0,1,0-6.75l14.61-14.6V64.49a1.72,1.72,0,1,1,3.44,0V97.31a1.72,1.72,0,0,1-.5,1.21l-15.12,15.12a1.32,1.32,0,0,0,0,1.87l.48.49a1.33,1.33,0,0,0,1.88,0l13.72-13.71a1.72,1.72,0,0,1,2.43,0L227.68,116a1.32,1.32,0,0,0,1.87,0l.49-.49a1.32,1.32,0,0,0,0-1.87L214.92,98.52a1.72,1.72,0,0,1-.5-1.21V64.49a1.72,1.72,0,0,1,3.44,0V96.6l14.61,14.6a4.77,4.77,0,0,1,0,6.75l-.49.48A4.76,4.76,0,0,1,228.61,119.83Z" transform="translate(-8.49 -44.95)"/><path class="cls-3" d="M188,105.65a1.72,1.72,0,0,1-1.72-1.72,1.32,1.32,0,0,1,0-.34,1.17,1.17,0,0,1,.09-.32,1.73,1.73,0,0,1,.16-.3,1.71,1.71,0,0,1,.21-.26,2.88,2.88,0,0,1,.27-.22,1.59,1.59,0,0,1,.29-.15,1.15,1.15,0,0,1,.33-.1,1.88,1.88,0,0,1,.67,0,1.31,1.31,0,0,1,.32.1,2.1,2.1,0,0,1,.3.15,2.3,2.3,0,0,1,.47.48,1.68,1.68,0,0,1,.15.3,1.73,1.73,0,0,1,.11.32c0,.11,0,.23,0,.34a1.73,1.73,0,0,1-.51,1.21A1.67,1.67,0,0,1,188,105.65Z" transform="translate(-8.49 -44.95)"/><path class="cls-3" d="M248.75,120.65a1.7,1.7,0,0,1-1.21-.5,1.86,1.86,0,0,1-.22-.27,1.59,1.59,0,0,1-.15-.29,1.83,1.83,0,0,1-.11-.33c0-.11,0-.22,0-.33a1.73,1.73,0,0,1,.51-1.22,1.78,1.78,0,0,1,2.43,0,1.74,1.74,0,0,1,.5,1.22,2.32,2.32,0,0,1-.13.66,1.18,1.18,0,0,1-.16.29,1.78,1.78,0,0,1-.21.27A1.74,1.74,0,0,1,248.75,120.65Z" transform="translate(-8.49 -44.95)"/><path class="cls-3" d="M238.89,141.79a8.42,8.42,0,1,1,8.41-8.41A8.42,8.42,0,0,1,238.89,141.79Zm0-15.16a6.75,6.75,0,1,0,6.74,6.75A6.76,6.76,0,0,0,238.89,126.63Z" transform="translate(-8.49 -44.95)"/><rect class="cls-3" x="233.58" y="124.28" width="1.67" height="2.72" transform="translate(-39.9 89.08) rotate(-30)"/><path class="cls-3" d="M232.56,126a.85.85,0,0,1-.73-.42.84.84,0,0,1,.31-1.14l2.36-1.37a.84.84,0,0,1,.84,1.45L233,125.86A.84.84,0,0,1,232.56,126Z" transform="translate(-8.49 -44.95)"/><rect class="cls-3" x="220.1" y="87.59" width="2.72" height="1.67"/><path class="cls-3" d="M228.59,135.58a.85.85,0,0,1-.84-.84V132a.84.84,0,0,1,.84-.83.83.83,0,0,1,.83.83v2.73A.84.84,0,0,1,228.59,135.58Z" transform="translate(-8.49 -44.95)"/><rect class="cls-3" x="233.06" y="140.28" width="2.72" height="1.67" transform="translate(-13.5 228.61) rotate(-60)"/><path class="cls-3" d="M234.92,143.81a.8.8,0,0,1-.42-.11l-2.36-1.36a.84.84,0,0,1-.31-1.14.85.85,0,0,1,1.15-.31l2.36,1.36a.85.85,0,0,1,.3,1.15A.83.83,0,0,1,234.92,143.81Z" transform="translate(-8.49 -44.95)"/><rect class="cls-3" x="242.52" y="139.76" width="1.67" height="2.72" transform="translate(-46.45 95.64) rotate(-30)"/><path class="cls-3" d="M242.86,143.81a.86.86,0,0,1-.73-.41.85.85,0,0,1,.31-1.15l2.36-1.36a.84.84,0,1,1,.83,1.45l-2.36,1.36A.77.77,0,0,1,242.86,143.81Z" transform="translate(-8.49 -44.95)"/><rect class="cls-3" x="237.97" y="87.59" width="2.72" height="1.67"/><path class="cls-3" d="M249.19,135.58a.85.85,0,0,1-.84-.84V132a.84.84,0,0,1,.84-.83.83.83,0,0,1,.83.83v2.73A.84.84,0,0,1,249.19,135.58Z" transform="translate(-8.49 -44.95)"/><rect class="cls-3" x="242" y="124.8" width="2.72" height="1.67" transform="translate(4.38 228.61) rotate(-60)"/><path class="cls-3" d="M245.22,126a.79.79,0,0,1-.42-.12l-2.36-1.36a.84.84,0,1,1,.83-1.45l2.36,1.37a.84.84,0,0,1,.31,1.14A.82.82,0,0,1,245.22,126Z" transform="translate(-8.49 -44.95)"/><path class="cls-3" d="M237.31,131.6a.83.83,0,0,1-.59-.25.79.79,0,0,1-.24-.59s0-.11,0-.16,0-.11,0-.16a1,1,0,0,1,.08-.14,1.47,1.47,0,0,1,.1-.13.88.88,0,0,1,1.19,0,1.47,1.47,0,0,1,.1.13l.08.14a.94.94,0,0,1,0,.16.88.88,0,0,1,0,.16.83.83,0,0,1-.24.59l-.13.11-.15.08-.15,0A.47.47,0,0,1,237.31,131.6Z" transform="translate(-8.49 -44.95)"/><path class="cls-3" d="M242.89,131.9a.85.85,0,0,1-.59-.24l-.11-.13s-.05-.09-.07-.14a.49.49,0,0,1-.05-.16.88.88,0,0,1,0-.16,1,1,0,0,1,0-.17.88.88,0,0,1,.05-.15l.07-.15a.63.63,0,0,1,.11-.12l.12-.11.15-.07.16-.05a.86.86,0,0,1,.32,0l.16.05a.61.61,0,0,1,.14.07.69.69,0,0,1,.13.11,1.31,1.31,0,0,1,.11.12l.07.15a.88.88,0,0,1,.05.15,1,1,0,0,1,0,.17.86.86,0,0,1,0,.16,1,1,0,0,1-.05.16l-.07.14-.11.13A.87.87,0,0,1,242.89,131.9Z" transform="translate(-8.49 -44.95)"/><path class="cls-3" d="M241.34,137.25a.41.41,0,0,1-.16,0,.42.42,0,0,1-.16,0l-.14-.08a.45.45,0,0,1-.13-.11.29.29,0,0,1-.1-.12.5.5,0,0,1-.08-.14,1,1,0,0,1,0-.16,1,1,0,0,1,0-.16,1,1,0,0,1,0-.17.88.88,0,0,1,0-.15.71.71,0,0,1,.08-.15.38.38,0,0,1,.1-.12.45.45,0,0,1,.13-.11l.14-.08.16,0a.86.86,0,0,1,.32,0l.16,0,.14.08a.45.45,0,0,1,.13.11,1.31,1.31,0,0,1,.11.12.69.69,0,0,1,.07.15.88.88,0,0,1,0,.15,1,1,0,0,1,0,.17.92.92,0,0,1,0,.16,1,1,0,0,1,0,.16l-.07.14a.65.65,0,0,1-.11.12A.83.83,0,0,1,241.34,137.25Z" transform="translate(-8.49 -44.95)"/><path class="cls-3" d="M236.27,136a.83.83,0,0,1-.59-.25.82.82,0,0,1-.25-.59.83.83,0,0,1,.25-.59.86.86,0,0,1,.75-.23l.16.05.14.08.13.1a.82.82,0,0,1,.24.59.79.79,0,0,1-.24.59.69.69,0,0,1-.13.11.61.61,0,0,1-.14.07l-.16.05Z" transform="translate(-8.49 -44.95)"/><rect class="cls-3" x="233.58" y="124.28" width="1.67" height="2.72" transform="translate(-39.9 89.08) rotate(-30)"/><path class="cls-3" d="M232.56,126a.85.85,0,0,1-.73-.42.84.84,0,0,1,.31-1.14l2.36-1.37a.84.84,0,0,1,.84,1.45L233,125.86A.84.84,0,0,1,232.56,126Z" transform="translate(-8.49 -44.95)"/><rect class="cls-3" x="220.1" y="87.59" width="2.72" height="1.67"/><path class="cls-3" d="M228.59,135.58a.85.85,0,0,1-.84-.84V132a.84.84,0,0,1,.84-.83.83.83,0,0,1,.83.83v2.73A.84.84,0,0,1,228.59,135.58Z" transform="translate(-8.49 -44.95)"/><rect class="cls-3" x="233.06" y="140.28" width="2.72" height="1.67" transform="translate(-13.5 228.61) rotate(-60)"/><path class="cls-3" d="M234.92,143.81a.8.8,0,0,1-.42-.11l-2.36-1.36a.84.84,0,0,1-.31-1.14.85.85,0,0,1,1.15-.31l2.36,1.36a.85.85,0,0,1,.3,1.15A.83.83,0,0,1,234.92,143.81Z" transform="translate(-8.49 -44.95)"/><rect class="cls-3" x="242.52" y="139.76" width="1.67" height="2.72" transform="translate(-46.45 95.64) rotate(-30)"/><path class="cls-3" d="M242.86,143.81a.86.86,0,0,1-.73-.41.85.85,0,0,1,.31-1.15l2.36-1.36a.84.84,0,1,1,.83,1.45l-2.36,1.36A.77.77,0,0,1,242.86,143.81Z" transform="translate(-8.49 -44.95)"/><rect class="cls-3" x="237.97" y="87.59" width="2.72" height="1.67"/><path class="cls-3" d="M249.19,135.58a.85.85,0,0,1-.84-.84V132a.84.84,0,0,1,.84-.83.83.83,0,0,1,.83.83v2.73A.84.84,0,0,1,249.19,135.58Z" transform="translate(-8.49 -44.95)"/><rect class="cls-3" x="242" y="124.8" width="2.72" height="1.67" transform="translate(4.38 228.61) rotate(-60)"/><path class="cls-3" d="M245.22,126a.79.79,0,0,1-.42-.12l-2.36-1.36a.84.84,0,1,1,.83-1.45l2.36,1.37a.84.84,0,0,1,.31,1.14A.82.82,0,0,1,245.22,126Z" transform="translate(-8.49 -44.95)"/><rect class="cls-3" x="229.79" y="137.01" width="2.72" height="1.67" transform="translate(-46.45 89.06) rotate(-29.99)"/><path class="cls-3" d="M230.65,140.54a.83.83,0,0,1-.72-.41l-1.37-2.36a.85.85,0,0,1,.31-1.15.84.84,0,0,1,1.14.31l1.36,2.36a.83.83,0,0,1-.3,1.14A.8.8,0,0,1,230.65,140.54Z" transform="translate(-8.49 -44.95)"/><rect class="cls-3" x="229.56" y="96" width="1.67" height="2.72"/><path class="cls-3" d="M240.25,144.51h-2.73a.83.83,0,0,1-.83-.83.84.84,0,0,1,.83-.84h2.73a.85.85,0,0,1,.84.84A.84.84,0,0,1,240.25,144.51Z" transform="translate(-8.49 -44.95)"/><rect class="cls-3" x="245.79" y="136.49" width="1.67" height="2.72" transform="translate(-4.56 237.55) rotate(-60)"/><path class="cls-3" d="M247.12,140.54a.77.77,0,0,1-.41-.11.84.84,0,0,1-.31-1.14l1.36-2.36a.84.84,0,1,1,1.45.84l-1.36,2.36A.86.86,0,0,1,247.12,140.54Z" transform="translate(-8.49 -44.95)"/><rect class="cls-3" x="245.27" y="128.07" width="2.72" height="1.67" transform="translate(-39.9 95.61) rotate(-29.99)"/><path class="cls-3" d="M248.49,130.24a.86.86,0,0,1-.73-.41l-1.36-2.36a.85.85,0,0,1,.31-1.15.84.84,0,0,1,1.14.31l1.36,2.36a.83.83,0,0,1-.72,1.25Z" transform="translate(-8.49 -44.95)"/><rect class="cls-3" x="229.56" y="78.13" width="1.67" height="2.72"/><path class="cls-3" d="M240.25,123.91h-2.73a.83.83,0,0,1-.83-.83.84.84,0,0,1,.83-.84h2.73a.85.85,0,0,1,.84.84A.84.84,0,0,1,240.25,123.91Z" transform="translate(-8.49 -44.95)"/><rect class="cls-3" x="230.31" y="127.55" width="1.67" height="2.72" transform="translate(-4.55 219.69) rotate(-60)"/><path class="cls-3" d="M229.29,130.24a.78.78,0,0,1-.42-.11.84.84,0,0,1-.31-1.14l1.37-2.36a.84.84,0,0,1,1.14-.31.85.85,0,0,1,.3,1.15L230,129.83A.84.84,0,0,1,229.29,130.24Z" transform="translate(-8.49 -44.95)"/><rect class="cls-3" x="229.79" y="137.01" width="2.72" height="1.67" transform="translate(-46.45 89.06) rotate(-29.99)"/><path class="cls-3" d="M230.65,140.54a.83.83,0,0,1-.72-.41l-1.37-2.36a.85.85,0,0,1,.31-1.15.84.84,0,0,1,1.14.31l1.36,2.36a.83.83,0,0,1-.3,1.14A.8.8,0,0,1,230.65,140.54Z" transform="translate(-8.49 -44.95)"/><rect class="cls-3" x="229.56" y="96" width="1.67" height="2.72"/><path class="cls-3" d="M240.25,144.51h-2.73a.83.83,0,0,1-.83-.83.84.84,0,0,1,.83-.84h2.73a.85.85,0,0,1,.84.84A.84.84,0,0,1,240.25,144.51Z" transform="translate(-8.49 -44.95)"/><rect class="cls-3" x="245.79" y="136.49" width="1.67" height="2.72" transform="translate(-4.56 237.55) rotate(-60)"/><path class="cls-3" d="M247.12,140.54a.77.77,0,0,1-.41-.11.84.84,0,0,1-.31-1.14l1.36-2.36a.84.84,0,1,1,1.45.84l-1.36,2.36A.86.86,0,0,1,247.12,140.54Z" transform="translate(-8.49 -44.95)"/><rect class="cls-3" x="245.27" y="128.07" width="2.72" height="1.67" transform="translate(-39.9 95.61) rotate(-29.99)"/><path class="cls-3" d="M248.49,130.24a.86.86,0,0,1-.73-.41l-1.36-2.36a.85.85,0,0,1,.31-1.15.84.84,0,0,1,1.14.31l1.36,2.36a.83.83,0,0,1-.72,1.25Z" transform="translate(-8.49 -44.95)"/><rect class="cls-3" x="229.56" y="78.13" width="1.67" height="2.72"/><path class="cls-3" d="M240.25,123.91h-2.73a.83.83,0,0,1-.83-.83.84.84,0,0,1,.83-.84h2.73a.85.85,0,0,1,.84.84A.84.84,0,0,1,240.25,123.91Z" transform="translate(-8.49 -44.95)"/><rect class="cls-3" x="230.31" y="127.55" width="1.67" height="2.72" transform="translate(-4.55 219.69) rotate(-60)"/><path class="cls-3" d="M229.29,130.24a.78.78,0,0,1-.42-.11.84.84,0,0,1-.31-1.14l1.37-2.36a.84.84,0,0,1,1.14-.31.85.85,0,0,1,.3,1.15L230,129.83A.84.84,0,0,1,229.29,130.24Z" transform="translate(-8.49 -44.95)"/><path class="cls-3" d="M237.31,131.6a.83.83,0,0,1-.59-.25.79.79,0,0,1-.24-.59s0-.11,0-.16,0-.11,0-.16a1,1,0,0,1,.08-.14,1.47,1.47,0,0,1,.1-.13.88.88,0,0,1,1.19,0,1.47,1.47,0,0,1,.1.13l.08.14a.94.94,0,0,1,0,.16.88.88,0,0,1,0,.16.83.83,0,0,1-.24.59l-.13.11-.15.08-.15,0A.47.47,0,0,1,237.31,131.6Z" transform="translate(-8.49 -44.95)"/><path class="cls-3" d="M242.89,131.9a.85.85,0,0,1-.59-.24l-.11-.13s-.05-.09-.07-.14a.49.49,0,0,1-.05-.16.88.88,0,0,1,0-.16,1,1,0,0,1,0-.17.88.88,0,0,1,.05-.15l.07-.15a.63.63,0,0,1,.11-.12l.12-.11.15-.07.16-.05a.86.86,0,0,1,.32,0l.16.05a.61.61,0,0,1,.14.07.69.69,0,0,1,.13.11,1.31,1.31,0,0,1,.11.12l.07.15a.88.88,0,0,1,.05.15,1,1,0,0,1,0,.17.86.86,0,0,1,0,.16,1,1,0,0,1-.05.16l-.07.14-.11.13A.87.87,0,0,1,242.89,131.9Z" transform="translate(-8.49 -44.95)"/><path class="cls-3" d="M241.34,137.25a.41.41,0,0,1-.16,0,.42.42,0,0,1-.16,0l-.14-.08a.45.45,0,0,1-.13-.11.29.29,0,0,1-.1-.12.5.5,0,0,1-.08-.14,1,1,0,0,1,0-.16,1,1,0,0,1,0-.16,1,1,0,0,1,0-.17.88.88,0,0,1,0-.15.71.71,0,0,1,.08-.15.38.38,0,0,1,.1-.12.45.45,0,0,1,.13-.11l.14-.08.16,0a.86.86,0,0,1,.32,0l.16,0,.14.08a.45.45,0,0,1,.13.11,1.31,1.31,0,0,1,.11.12.69.69,0,0,1,.07.15.88.88,0,0,1,0,.15,1,1,0,0,1,0,.17.92.92,0,0,1,0,.16,1,1,0,0,1,0,.16l-.07.14a.65.65,0,0,1-.11.12A.83.83,0,0,1,241.34,137.25Z" transform="translate(-8.49 -44.95)"/><path class="cls-3" d="M236.27,136a.83.83,0,0,1-.59-.25.82.82,0,0,1-.25-.59.83.83,0,0,1,.25-.59.86.86,0,0,1,.75-.23l.16.05.14.08.13.1a.82.82,0,0,1,.24.59.79.79,0,0,1-.24.59.69.69,0,0,1-.13.11.61.61,0,0,1-.14.07l-.16.05Z" transform="translate(-8.49 -44.95)"/><path class="cls-3" d="M236.7,109.53a4.39,4.39,0,1,1,4.39-4.39A4.39,4.39,0,0,1,236.7,109.53Zm0-7.9a3.52,3.52,0,1,0,3.52,3.51A3.52,3.52,0,0,0,236.7,101.63Z" transform="translate(-8.49 -44.95)"/><rect class="cls-3" x="227.78" y="53.75" width="0.87" height="2.49"/><path class="cls-3" d="M237.72,99.14h-2a.43.43,0,0,1-.43-.43.44.44,0,0,1,.43-.44h2a.44.44,0,0,1,.43.44A.43.43,0,0,1,237.72,99.14Z" transform="translate(-8.49 -44.95)"/><rect class="cls-3" x="233.94" y="100.4" width="0.87" height="1.42" transform="translate(-27.65 85.79) rotate(-30)"/><path class="cls-3" d="M233.41,101.29a.44.44,0,0,1-.38-.22.43.43,0,0,1,.16-.59l1.23-.71a.43.43,0,0,1,.43.75l-1.23.71A.39.39,0,0,1,233.41,101.29Z" transform="translate(-8.49 -44.95)"/><rect class="cls-3" x="231.77" y="101.3" width="0.87" height="2.49" transform="translate(18.8 207.42) rotate(-60)"/><path class="cls-3" d="M230.62,103.24a.46.46,0,0,1-.22-.06.45.45,0,0,1-.16-.6l1-1.75a.43.43,0,0,1,.59-.16.44.44,0,0,1,.16.6L231,103A.44.44,0,0,1,230.62,103.24Z" transform="translate(-8.49 -44.95)"/><rect class="cls-3" x="222.85" y="59.76" width="1.42" height="0.87"/><path class="cls-3" d="M231.34,106.29a.44.44,0,0,1-.44-.44v-1.41a.44.44,0,0,1,.44-.44.43.43,0,0,1,.43.44v1.41A.43.43,0,0,1,231.34,106.29Z" transform="translate(-8.49 -44.95)"/><rect class="cls-3" x="230.96" y="107.31" width="2.49" height="0.87" transform="translate(-31.25 85.56) rotate(-29.99)"/><path class="cls-3" d="M231.63,109.68a.42.42,0,0,1-.37-.22l-1-1.75a.45.45,0,0,1,.16-.6.44.44,0,0,1,.6.16l1,1.75a.44.44,0,0,1-.16.6A.43.43,0,0,1,231.63,109.68Z" transform="translate(-8.49 -44.95)"/><rect class="cls-3" x="233.67" y="108.74" width="1.42" height="0.87" transform="translate(14.14 212.61) rotate(-60)"/><path class="cls-3" d="M234.64,110.58a.43.43,0,0,1-.22-.06l-1.23-.71a.43.43,0,0,1,.43-.75l1.23.71a.43.43,0,0,1-.21.81Z" transform="translate(-8.49 -44.95)"/><rect class="cls-3" x="227.78" y="64.14" width="0.87" height="2.49"/><path class="cls-3" d="M237.72,112h-2a.44.44,0,0,1-.43-.44.43.43,0,0,1,.43-.43h2a.43.43,0,0,1,.43.43A.44.44,0,0,1,237.72,112Z" transform="translate(-8.49 -44.95)"/><rect class="cls-3" x="238.6" y="108.47" width="0.87" height="1.42" transform="translate(-31.06 89.18) rotate(-30)"/><path class="cls-3" d="M238.77,110.58a.45.45,0,0,1-.38-.22.44.44,0,0,1,.16-.59l1.23-.71a.44.44,0,0,1,.6.16.43.43,0,0,1-.16.59l-1.23.71A.43.43,0,0,1,238.77,110.58Z" transform="translate(-8.49 -44.95)"/><rect class="cls-3" x="240.77" y="106.5" width="0.87" height="2.49" transform="translate(18.79 217.79) rotate(-60)"/><path class="cls-3" d="M241.77,109.68a.42.42,0,0,1-.21-.06.44.44,0,0,1-.16-.6l1-1.75a.43.43,0,0,1,.59-.16.44.44,0,0,1,.16.6l-1,1.75A.44.44,0,0,1,241.77,109.68Z" transform="translate(-8.49 -44.95)"/><rect class="cls-3" x="232.16" y="59.76" width="1.42" height="0.87"/><path class="cls-3" d="M242.07,106.29a.44.44,0,0,1-.44-.44v-1.41a.44.44,0,0,1,.44-.44.43.43,0,0,1,.43.44v1.41A.43.43,0,0,1,242.07,106.29Z" transform="translate(-8.49 -44.95)"/><rect class="cls-3" x="239.96" y="102.11" width="2.49" height="0.87" transform="translate(-27.45 89.36) rotate(-29.99)"/><path class="cls-3" d="M242.79,103.24a.44.44,0,0,1-.38-.22l-1-1.75a.44.44,0,0,1,.16-.6.43.43,0,0,1,.59.16l1,1.75a.44.44,0,0,1-.16.6A.39.39,0,0,1,242.79,103.24Z" transform="translate(-8.49 -44.95)"/><rect class="cls-3" x="238.32" y="100.68" width="1.42" height="0.87" transform="translate(23.45 212.61) rotate(-60)"/><path class="cls-3" d="M240,101.29a.46.46,0,0,1-.22-.06l-1.23-.71a.43.43,0,1,1,.44-.75l1.23.71a.43.43,0,0,1,.16.59A.44.44,0,0,1,240,101.29Z" transform="translate(-8.49 -44.95)"/><path class="cls-3" d="M235.4,103.56a.47.47,0,0,1-.31-.12.45.45,0,0,1-.12-.31.19.19,0,0,1,0-.08.29.29,0,0,1,0-.09.25.25,0,0,1,0-.07l.05-.07a.46.46,0,0,1,.4-.12l.08,0,.07,0a.26.26,0,0,1,.12.12.25.25,0,0,1,0,.07l0,.09s0,0,0,.08a.46.46,0,0,1-.13.31A.43.43,0,0,1,235.4,103.56Z" transform="translate(-8.49 -44.95)"/><path class="cls-3" d="M238.79,104.38a.44.44,0,0,1-.31-.13.18.18,0,0,1,0-.07.25.25,0,0,1,0-.07l0-.08s0-.06,0-.09,0-.06,0-.08l0-.08a.2.2,0,0,1,0-.08l0-.07.07,0,.07,0,.08,0a.47.47,0,0,1,.4.12.47.47,0,0,1,.12.31V104l0,.08a.25.25,0,0,1,0,.07.18.18,0,0,1-.05.07A.48.48,0,0,1,238.79,104.38Z" transform="translate(-8.49 -44.95)"/><path class="cls-3" d="M237.24,105.71a.51.51,0,0,1-.17,0,.42.42,0,0,1-.14-.09.44.44,0,0,1-.13-.31s0-.06,0-.09l0-.08a.25.25,0,0,1,0-.07.18.18,0,0,1,.05-.07.46.46,0,0,1,.62,0l0,.07,0,.07a.31.31,0,0,1,0,.08.28.28,0,0,1,0,.09.43.43,0,0,1-.12.31A.47.47,0,0,1,237.24,105.71Z" transform="translate(-8.49 -44.95)"/><path class="cls-3" d="M234.6,105.86a.47.47,0,0,1-.17,0,.42.42,0,0,1-.14-.09l-.06-.07a.59.59,0,0,1,0-.08.19.19,0,0,1,0-.08.19.19,0,0,1,0-.08.28.28,0,0,1,0-.09.31.31,0,0,1,0-.08l0-.07.06-.07a.45.45,0,0,1,.61,0l.06.07,0,.07a.31.31,0,0,1,0,.08.28.28,0,0,1,0,.09.19.19,0,0,1,0,.08.19.19,0,0,1,0,.08.59.59,0,0,1,0,.08l-.06.07-.06.05-.08,0-.08,0Z" transform="translate(-8.49 -44.95)"/><path class="cls-3" d="M236.09,108.09a.44.44,0,0,1-.31-.13.42.42,0,0,1-.09-.14.33.33,0,0,1,0-.17.43.43,0,0,1,.13-.3.41.41,0,0,1,.39-.12l.09,0,.07,0,.07.06a.42.42,0,0,1,.12.3.47.47,0,0,1,0,.17.42.42,0,0,1-.09.14A.46.46,0,0,1,236.09,108.09Z" transform="translate(-8.49 -44.95)"/><path class="cls-3" d="M238.52,107a.32.32,0,0,1-.16,0,.34.34,0,0,1-.14-.09l-.06-.06s0,0,0-.08a.24.24,0,0,1,0-.08.28.28,0,0,1,0-.09.39.39,0,0,1,.13-.3.43.43,0,0,1,.61,0,.43.43,0,0,1,.13.3.44.44,0,0,1-.44.44Z" transform="translate(-8.49 -44.95)"/><path class="cls-3" d="M182.29,131.72a8.42,8.42,0,1,1,8.41-8.41A8.42,8.42,0,0,1,182.29,131.72Zm0-15.16a6.75,6.75,0,1,0,6.74,6.75A6.76,6.76,0,0,0,182.29,116.56Z" transform="translate(-8.49 -44.95)"/><rect class="cls-3" x="176.98" y="114.21" width="1.67" height="2.72" transform="translate(-42.45 59.43) rotate(-30)"/><path class="cls-3" d="M176,115.9a.86.86,0,0,1-.73-.41.84.84,0,0,1,.31-1.14L177.9,113a.84.84,0,0,1,.83,1.45l-2.36,1.36A.77.77,0,0,1,176,115.9Z" transform="translate(-8.49 -44.95)"/><rect class="cls-3" x="163.49" y="77.52" width="2.72" height="1.67"/><path class="cls-3" d="M172,125.51a.84.84,0,0,1-.84-.84v-2.73a.84.84,0,0,1,1.67,0v2.73A.84.84,0,0,1,172,125.51Z" transform="translate(-8.49 -44.95)"/><rect class="cls-3" x="176.46" y="130.21" width="2.72" height="1.67" transform="translate(-33.08 174.56) rotate(-60)"/><path class="cls-3" d="M178.31,133.74a.77.77,0,0,1-.41-.11l-2.36-1.36a.84.84,0,0,1,.83-1.45l2.36,1.36a.85.85,0,0,1,.31,1.15A.86.86,0,0,1,178.31,133.74Z" transform="translate(-8.49 -44.95)"/><rect class="cls-3" x="185.92" y="129.69" width="1.67" height="2.72" transform="translate(-49 65.99) rotate(-30)"/><path class="cls-3" d="M186.26,133.74a.86.86,0,0,1-.73-.41.85.85,0,0,1,.31-1.15l2.36-1.36a.84.84,0,0,1,.83,1.45l-2.36,1.36A.77.77,0,0,1,186.26,133.74Z" transform="translate(-8.49 -44.95)"/><rect class="cls-3" x="181.37" y="77.52" width="2.72" height="1.67"/><path class="cls-3" d="M192.58,125.51a.84.84,0,0,1-.83-.84v-2.73a.84.84,0,0,1,1.67,0v2.73A.84.84,0,0,1,192.58,125.51Z" transform="translate(-8.49 -44.95)"/><rect class="cls-3" x="185.39" y="114.73" width="2.72" height="1.67" transform="translate(-15.2 174.56) rotate(-60)"/><path class="cls-3" d="M188.61,115.9a.77.77,0,0,1-.41-.11l-2.36-1.36a.84.84,0,0,1,.83-1.45l2.36,1.37a.84.84,0,0,1,.31,1.14A.86.86,0,0,1,188.61,115.9Z" transform="translate(-8.49 -44.95)"/><path class="cls-3" d="M180.71,121.53a.83.83,0,0,1-.59-.25.79.79,0,0,1-.24-.59.86.86,0,0,1,0-.16,1,1,0,0,1,.05-.16,1,1,0,0,1,.08-.14.64.64,0,0,1,.1-.13.86.86,0,0,1,1.18,0,.64.64,0,0,1,.1.13.5.5,0,0,1,.08.14,1,1,0,0,1,.05.16.88.88,0,0,1,0,.16.8.8,0,0,1-.25.59.69.69,0,0,1-.13.11l-.14.08-.16,0A.44.44,0,0,1,180.71,121.53Z" transform="translate(-8.49 -44.95)"/><path class="cls-3" d="M186.29,121.83a.83.83,0,0,1-.59-.24l-.11-.13a.64.64,0,0,1-.08-.14.94.94,0,0,1,0-.16.88.88,0,0,1,0-.16,1,1,0,0,1,0-.17.88.88,0,0,1,.05-.15,1,1,0,0,1,.07-.15,1.87,1.87,0,0,1,.23-.23l.15-.07.15,0a.92.92,0,0,1,.33,0l.16,0,.14.07a.69.69,0,0,1,.13.11.58.58,0,0,1,.1.12,1.09,1.09,0,0,1,.08.15.42.42,0,0,1,0,.15.5.5,0,0,1,0,.17.44.44,0,0,1,0,.16.47.47,0,0,1,0,.16.64.64,0,0,1-.08.14,1.13,1.13,0,0,1-.1.13A.87.87,0,0,1,186.29,121.83Z" transform="translate(-8.49 -44.95)"/><path class="cls-3" d="M184.74,127.18a.5.5,0,0,1-.17,0,.42.42,0,0,1-.15,0l-.15-.08a.6.6,0,0,1-.12-.11.63.63,0,0,1-.11-.12,1,1,0,0,1-.08-.14.94.94,0,0,1,0-.16,1,1,0,0,1,0-.17,1,1,0,0,1,0-.16A.88.88,0,0,1,184,126a.69.69,0,0,1,.07-.15.63.63,0,0,1,.11-.12.6.6,0,0,1,.12-.11l.15-.08a.42.42,0,0,1,.15,0,.91.91,0,0,1,.33,0,.47.47,0,0,1,.16,0l.14.08a.45.45,0,0,1,.13.11.58.58,0,0,1,.1.12.71.71,0,0,1,.08.15.88.88,0,0,1,.05.15.92.92,0,0,1,0,.16,1,1,0,0,1,0,.17,1,1,0,0,1-.05.16,1,1,0,0,1-.08.14.58.58,0,0,1-.1.12A.83.83,0,0,1,184.74,127.18Z" transform="translate(-8.49 -44.95)"/><path class="cls-3" d="M179.67,125.94a.82.82,0,0,1-.59-.25.82.82,0,0,1,0-1.18.86.86,0,0,1,.75-.23l.16,0,.14.08.13.1a.87.87,0,0,1,.24.59.85.85,0,0,1-.24.59l-.13.11-.14.07-.16,0Z" transform="translate(-8.49 -44.95)"/><rect class="cls-3" x="176.98" y="114.21" width="1.67" height="2.72" transform="translate(-42.45 59.43) rotate(-30)"/><path class="cls-3" d="M176,115.9a.86.86,0,0,1-.73-.41.84.84,0,0,1,.31-1.14L177.9,113a.84.84,0,0,1,.83,1.45l-2.36,1.36A.77.77,0,0,1,176,115.9Z" transform="translate(-8.49 -44.95)"/><rect class="cls-3" x="163.49" y="77.52" width="2.72" height="1.67"/><path class="cls-3" d="M172,125.51a.84.84,0,0,1-.84-.84v-2.73a.84.84,0,0,1,1.67,0v2.73A.84.84,0,0,1,172,125.51Z" transform="translate(-8.49 -44.95)"/><rect class="cls-3" x="176.46" y="130.21" width="2.72" height="1.67" transform="translate(-33.08 174.56) rotate(-60)"/><path class="cls-3" d="M178.31,133.74a.77.77,0,0,1-.41-.11l-2.36-1.36a.84.84,0,0,1,.83-1.45l2.36,1.36a.85.85,0,0,1,.31,1.15A.86.86,0,0,1,178.31,133.74Z" transform="translate(-8.49 -44.95)"/><rect class="cls-3" x="185.92" y="129.69" width="1.67" height="2.72" transform="translate(-49 65.99) rotate(-30)"/><path class="cls-3" d="M186.26,133.74a.86.86,0,0,1-.73-.41.85.85,0,0,1,.31-1.15l2.36-1.36a.84.84,0,0,1,.83,1.45l-2.36,1.36A.77.77,0,0,1,186.26,133.74Z" transform="translate(-8.49 -44.95)"/><rect class="cls-3" x="181.37" y="77.52" width="2.72" height="1.67"/><path class="cls-3" d="M192.58,125.51a.84.84,0,0,1-.83-.84v-2.73a.84.84,0,0,1,1.67,0v2.73A.84.84,0,0,1,192.58,125.51Z" transform="translate(-8.49 -44.95)"/><rect class="cls-3" x="185.39" y="114.73" width="2.72" height="1.67" transform="translate(-15.2 174.56) rotate(-60)"/><path class="cls-3" d="M188.61,115.9a.77.77,0,0,1-.41-.11l-2.36-1.36a.84.84,0,0,1,.83-1.45l2.36,1.37a.84.84,0,0,1,.31,1.14A.86.86,0,0,1,188.61,115.9Z" transform="translate(-8.49 -44.95)"/><rect class="cls-3" x="173.18" y="126.94" width="2.72" height="1.67" transform="translate(-48.99 59.42) rotate(-29.99)"/><path class="cls-3" d="M174.05,130.47a.85.85,0,0,1-.73-.42L172,127.69a.84.84,0,1,1,1.45-.83l1.36,2.36a.84.84,0,0,1-.31,1.14A.77.77,0,0,1,174.05,130.47Z" transform="translate(-8.49 -44.95)"/><rect class="cls-3" x="172.96" y="85.93" width="1.67" height="2.72"/><path class="cls-3" d="M183.65,134.44h-2.73a.83.83,0,0,1-.83-.83.84.84,0,0,1,.83-.84h2.73a.84.84,0,0,1,.83.84A.83.83,0,0,1,183.65,134.44Z" transform="translate(-8.49 -44.95)"/><rect class="cls-3" x="189.19" y="126.42" width="1.67" height="2.72" transform="translate(-24.14 183.5) rotate(-60)"/><path class="cls-3" d="M190.52,130.47a.77.77,0,0,1-.41-.11.84.84,0,0,1-.31-1.14l1.36-2.36a.84.84,0,0,1,1.45.83l-1.36,2.36A.85.85,0,0,1,190.52,130.47Z" transform="translate(-8.49 -44.95)"/><rect class="cls-3" x="188.67" y="118" width="2.72" height="1.67" transform="translate(-42.45 65.96) rotate(-29.99)"/><path class="cls-3" d="M191.89,120.17a.86.86,0,0,1-.73-.41l-1.36-2.36a.85.85,0,0,1,.31-1.15.84.84,0,0,1,1.14.31l1.36,2.36a.84.84,0,0,1-.31,1.14A.77.77,0,0,1,191.89,120.17Z" transform="translate(-8.49 -44.95)"/><rect class="cls-3" x="172.96" y="68.06" width="1.67" height="2.72"/><path class="cls-3" d="M183.65,113.84h-2.73a.83.83,0,0,1-.83-.83.84.84,0,0,1,.83-.84h2.73a.84.84,0,0,1,.83.84A.83.83,0,0,1,183.65,113.84Z" transform="translate(-8.49 -44.95)"/><rect class="cls-3" x="173.71" y="117.48" width="1.67" height="2.72" transform="translate(-24.13 165.64) rotate(-60)"/><path class="cls-3" d="M172.68,120.17a.77.77,0,0,1-.41-.11.84.84,0,0,1-.31-1.14l1.36-2.36a.84.84,0,0,1,1.14-.31.85.85,0,0,1,.31,1.15l-1.36,2.36A.86.86,0,0,1,172.68,120.17Z" transform="translate(-8.49 -44.95)"/><rect class="cls-3" x="173.18" y="126.94" width="2.72" height="1.67" transform="translate(-48.99 59.42) rotate(-29.99)"/><path class="cls-3" d="M174.05,130.47a.85.85,0,0,1-.73-.42L172,127.69a.84.84,0,1,1,1.45-.83l1.36,2.36a.84.84,0,0,1-.31,1.14A.77.77,0,0,1,174.05,130.47Z" transform="translate(-8.49 -44.95)"/><rect class="cls-3" x="172.96" y="85.93" width="1.67" height="2.72"/><path class="cls-3" d="M183.65,134.44h-2.73a.83.83,0,0,1-.83-.83.84.84,0,0,1,.83-.84h2.73a.84.84,0,0,1,.83.84A.83.83,0,0,1,183.65,134.44Z" transform="translate(-8.49 -44.95)"/><rect class="cls-3" x="189.19" y="126.42" width="1.67" height="2.72" transform="translate(-24.14 183.5) rotate(-60)"/><path class="cls-3" d="M190.52,130.47a.77.77,0,0,1-.41-.11.84.84,0,0,1-.31-1.14l1.36-2.36a.84.84,0,0,1,1.45.83l-1.36,2.36A.85.85,0,0,1,190.52,130.47Z" transform="translate(-8.49 -44.95)"/><rect class="cls-3" x="188.67" y="118" width="2.72" height="1.67" transform="translate(-42.45 65.96) rotate(-29.99)"/><path class="cls-3" d="M191.89,120.17a.86.86,0,0,1-.73-.41l-1.36-2.36a.85.85,0,0,1,.31-1.15.84.84,0,0,1,1.14.31l1.36,2.36a.84.84,0,0,1-.31,1.14A.77.77,0,0,1,191.89,120.17Z" transform="translate(-8.49 -44.95)"/><rect class="cls-3" x="172.96" y="68.06" width="1.67" height="2.72"/><path class="cls-3" d="M183.65,113.84h-2.73a.83.83,0,0,1-.83-.83.84.84,0,0,1,.83-.84h2.73a.84.84,0,0,1,.83.84A.83.83,0,0,1,183.65,113.84Z" transform="translate(-8.49 -44.95)"/><rect class="cls-3" x="173.71" y="117.48" width="1.67" height="2.72" transform="translate(-24.13 165.64) rotate(-60)"/><path class="cls-3" d="M172.68,120.17a.77.77,0,0,1-.41-.11.84.84,0,0,1-.31-1.14l1.36-2.36a.84.84,0,0,1,1.14-.31.85.85,0,0,1,.31,1.15l-1.36,2.36A.86.86,0,0,1,172.68,120.17Z" transform="translate(-8.49 -44.95)"/><path class="cls-3" d="M180.71,121.53a.83.83,0,0,1-.59-.25.79.79,0,0,1-.24-.59.86.86,0,0,1,0-.16,1,1,0,0,1,.05-.16,1,1,0,0,1,.08-.14.64.64,0,0,1,.1-.13.86.86,0,0,1,1.18,0,.64.64,0,0,1,.1.13.5.5,0,0,1,.08.14,1,1,0,0,1,.05.16.88.88,0,0,1,0,.16.8.8,0,0,1-.25.59.69.69,0,0,1-.13.11l-.14.08-.16,0A.44.44,0,0,1,180.71,121.53Z" transform="translate(-8.49 -44.95)"/><path class="cls-3" d="M186.29,121.83a.83.83,0,0,1-.59-.24l-.11-.13a.64.64,0,0,1-.08-.14.94.94,0,0,1,0-.16.88.88,0,0,1,0-.16,1,1,0,0,1,0-.17.88.88,0,0,1,.05-.15,1,1,0,0,1,.07-.15,1.87,1.87,0,0,1,.23-.23l.15-.07.15,0a.92.92,0,0,1,.33,0l.16,0,.14.07a.69.69,0,0,1,.13.11.58.58,0,0,1,.1.12,1.09,1.09,0,0,1,.08.15.42.42,0,0,1,0,.15.5.5,0,0,1,0,.17.44.44,0,0,1,0,.16.47.47,0,0,1,0,.16.64.64,0,0,1-.08.14,1.13,1.13,0,0,1-.1.13A.87.87,0,0,1,186.29,121.83Z" transform="translate(-8.49 -44.95)"/><path class="cls-3" d="M184.74,127.18a.5.5,0,0,1-.17,0,.42.42,0,0,1-.15,0l-.15-.08a.6.6,0,0,1-.12-.11.63.63,0,0,1-.11-.12,1,1,0,0,1-.08-.14.94.94,0,0,1,0-.16,1,1,0,0,1,0-.17,1,1,0,0,1,0-.16A.88.88,0,0,1,184,126a.69.69,0,0,1,.07-.15.63.63,0,0,1,.11-.12.6.6,0,0,1,.12-.11l.15-.08a.42.42,0,0,1,.15,0,.91.91,0,0,1,.33,0,.47.47,0,0,1,.16,0l.14.08a.45.45,0,0,1,.13.11.58.58,0,0,1,.1.12.71.71,0,0,1,.08.15.88.88,0,0,1,.05.15.92.92,0,0,1,0,.16,1,1,0,0,1,0,.17,1,1,0,0,1-.05.16,1,1,0,0,1-.08.14.58.58,0,0,1-.1.12A.83.83,0,0,1,184.74,127.18Z" transform="translate(-8.49 -44.95)"/><path class="cls-3" d="M179.67,125.94a.82.82,0,0,1-.59-.25.82.82,0,0,1,0-1.18.86.86,0,0,1,.75-.23l.16,0,.14.08.13.1a.87.87,0,0,1,.24.59.85.85,0,0,1-.24.59l-.13.11-.14.07-.16,0Z" transform="translate(-8.49 -44.95)"/><path class="cls-3" d="M22,166.14a1.65,1.65,0,1,1,1.65-1.65A1.65,1.65,0,0,1,22,166.14Zm0-3a1.32,1.32,0,1,0,1.33,1.32A1.33,1.33,0,0,0,22,163.17Z" transform="translate(-8.49 -44.95)"/><rect class="cls-3" x="13.32" y="117.11" width="0.33" height="0.94"/><path class="cls-3" d="M22.35,162.23h-.76a.16.16,0,0,1-.16-.16.17.17,0,0,1,.16-.17h.76a.18.18,0,0,1,.17.17A.17.17,0,0,1,22.35,162.23Z" transform="translate(-8.49 -44.95)"/><rect class="cls-3" x="20.93" y="162.71" width="0.33" height="0.53" transform="translate(-87.15 -12.57) rotate(-30)"/><path class="cls-3" d="M20.73,163a.17.17,0,0,1-.14-.08.18.18,0,0,1,.06-.23l.46-.26a.16.16,0,1,1,.17.28l-.46.27Z" transform="translate(-8.49 -44.95)"/><rect class="cls-3" x="20.12" y="163.04" width="0.33" height="0.94" transform="translate(-139.96 54.37) rotate(-60)"/><path class="cls-3" d="M19.69,163.77l-.09,0a.18.18,0,0,1-.06-.22l.38-.66a.17.17,0,0,1,.23-.06.16.16,0,0,1,.06.22l-.38.66A.17.17,0,0,1,19.69,163.77Z" transform="translate(-8.49 -44.95)"/><rect class="cls-3" x="11.46" y="119.37" width="0.53" height="0.33"/><path class="cls-3" d="M20,164.92a.17.17,0,0,1-.17-.16v-.54a.17.17,0,0,1,.17-.16.16.16,0,0,1,.16.16v.54A.16.16,0,0,1,20,164.92Z" transform="translate(-8.49 -44.95)"/><rect class="cls-3" x="19.81" y="165.3" width="0.94" height="0.33" transform="translate(-88.5 -12.65) rotate(-29.99)"/><path class="cls-3" d="M20.07,166.19a.18.18,0,0,1-.15-.08l-.38-.66a.17.17,0,0,1,.06-.22.17.17,0,0,1,.23.06l.38.66a.16.16,0,0,1-.06.22A.13.13,0,0,1,20.07,166.19Z" transform="translate(-8.49 -44.95)"/><rect class="cls-3" x="20.83" y="165.84" width="0.53" height="0.33" transform="translate(-141.71 56.32) rotate(-60)"/><path class="cls-3" d="M21.2,166.53a.15.15,0,0,1-.09,0l-.46-.26a.17.17,0,1,1,.17-.29l.46.27a.16.16,0,0,1,.06.22A.17.17,0,0,1,21.2,166.53Z" transform="translate(-8.49 -44.95)"/><rect class="cls-3" x="13.32" y="121.02" width="0.33" height="0.94"/><path class="cls-3" d="M22.35,167.08h-.76a.17.17,0,0,1-.16-.17.16.16,0,0,1,.16-.16h.76a.17.17,0,0,1,.17.16A.18.18,0,0,1,22.35,167.08Z" transform="translate(-8.49 -44.95)"/><rect class="cls-3" x="22.69" y="165.74" width="0.33" height="0.53" transform="translate(-88.43 -11.29) rotate(-30)"/><path class="cls-3" d="M22.75,166.53a.17.17,0,0,1-.14-.08.15.15,0,0,1,.06-.22l.46-.27a.18.18,0,0,1,.23.06.19.19,0,0,1-.06.23l-.47.26A.11.11,0,0,1,22.75,166.53Z" transform="translate(-8.49 -44.95)"/><rect class="cls-3" x="23.5" y="165" width="0.33" height="0.94" transform="translate(-139.95 58.26) rotate(-60)"/><path class="cls-3" d="M23.88,166.19a.12.12,0,0,1-.08,0,.15.15,0,0,1-.06-.22l.38-.66a.16.16,0,0,1,.22-.06.15.15,0,0,1,.06.22l-.38.66A.16.16,0,0,1,23.88,166.19Z" transform="translate(-8.49 -44.95)"/><rect class="cls-3" x="14.97" y="119.37" width="0.53" height="0.33"/><path class="cls-3" d="M24,164.92a.16.16,0,0,1-.16-.16v-.54a.16.16,0,0,1,.16-.16.17.17,0,0,1,.17.16v.54A.17.17,0,0,1,24,164.92Z" transform="translate(-8.49 -44.95)"/><rect class="cls-3" x="23.2" y="163.35" width="0.94" height="0.33" transform="translate(-87.07 -11.22) rotate(-29.99)"/><path class="cls-3" d="M24.26,163.77a.17.17,0,0,1-.14-.08l-.38-.66a.16.16,0,1,1,.28-.16l.38.66a.16.16,0,0,1-.06.22Z" transform="translate(-8.49 -44.95)"/><rect class="cls-3" x="22.58" y="162.81" width="0.53" height="0.33" transform="matrix(0.5, -0.87, 0.87, 0.5, -138.2, 56.32)"/><path class="cls-3" d="M23.21,163l-.08,0-.46-.27a.16.16,0,0,1-.06-.22.15.15,0,0,1,.22-.06l.47.26a.19.19,0,0,1,.06.23A.18.18,0,0,1,23.21,163Z" transform="translate(-8.49 -44.95)"/><path class="cls-3" d="M21.48,163.89a.15.15,0,0,1-.11,0,.18.18,0,0,1-.05-.12v0a0,0,0,0,0,0,0l0,0,0,0a.19.19,0,0,1,.15,0h.05l0,0,0,0a309063205122.18,309063205122.18,0,0,0,0,.06,0,0,0,0,1,0,0,.18.18,0,0,1,0,.12A.16.16,0,0,1,21.48,163.89Z" transform="translate(-8.49 -44.95)"/><path class="cls-3" d="M22.76,164.2a.17.17,0,0,1-.12,0l0,0s0,0,0,0a0,0,0,0,1,0,0s0,0,0,0,0,0,0,0a0,0,0,0,1,0,0v0l0,0,0,0,0,0h0a.14.14,0,0,1,.14,0,.17.17,0,0,1,.05.12v0s0,0,0,0l0,0,0,0A.16.16,0,0,1,22.76,164.2Z" transform="translate(-8.49 -44.95)"/><path class="cls-3" d="M22.17,164.7h-.06l-.05,0a.21.21,0,0,1,0-.12v0a0,0,0,0,0,0,0l0,0,0,0a.17.17,0,0,1,.23,0l0,0,0,0a0,0,0,0,0,0,0v0a.21.21,0,0,1-.05.12A.16.16,0,0,1,22.17,164.7Z" transform="translate(-8.49 -44.95)"/><path class="cls-3" d="M21.18,164.76h-.06l-.06,0s0,0,0,0v0a0,0,0,0,1,0,0v-.07a0,0,0,0,1,0,0v0s0,0,0,0a.18.18,0,0,1,.24,0s0,0,0,0v0a0,0,0,0,1,0,0v.07a0,0,0,0,1,0,0v0s0,0,0,0l0,0,0,0h-.06Z" transform="translate(-8.49 -44.95)"/><path class="cls-3" d="M21.74,165.6a.16.16,0,0,1-.11,0l0-.05a.17.17,0,0,1,0-.07.16.16,0,0,1,.05-.11.15.15,0,0,1,.14,0h0l0,0,0,0a.16.16,0,0,1,.05.11.19.19,0,0,1,0,.07s0,0,0,.05A.17.17,0,0,1,21.74,165.6Z" transform="translate(-8.49 -44.95)"/><path class="cls-3" d="M22.66,165.18l-.06,0-.06,0,0,0s0,0,0,0a0,0,0,0,1,0,0s0,0,0,0a.16.16,0,0,1,.05-.11.17.17,0,0,1,.23,0,.16.16,0,0,1,.05.11.17.17,0,0,1-.05.12A.16.16,0,0,1,22.66,165.18Z" transform="translate(-8.49 -44.95)"/></g><g id="celular"><rect class="cls-5" x="0.99" y="58.44" width="52.13" height="99.1" rx="5.06" ry="5.06"/><rect class="cls-5" x="3.84" y="65.09" width="46.43" height="85.8" rx="1.74" ry="1.74"/><path class="cls-4" d="M20.39,169.88a2.66,2.66,0,0,1-1.56-.45c-1.41-1-1.95-3.4-1.95-8.7a17.71,17.71,0,0,1,10.23-16.42c1.54-.77,2.79-.87,3.7-.29a3.45,3.45,0,0,1,1.29,2.8.65.65,0,0,1-1.29,0,2.14,2.14,0,0,0-.7-1.68c-.62-.39-1.66,0-2.43.36a16.46,16.46,0,0,0-9.51,15.26c0,4.56.44,7,1.39,7.64.66.45,1.79.17,3.39-.44,2.87-1.09,6-4.06,7.23-5.29a2.18,2.18,0,0,0,.63-1.52v-5.53a.65.65,0,1,1,1.29,0v5.53a3.4,3.4,0,0,1-1,2.43c-1.59,1.6-4.7,4.45-7.69,5.59A9,9,0,0,1,20.39,169.88Z" transform="translate(-8.49 -44.95)"/><path class="cls-4" d="M49.13,169.88a9,9,0,0,1-3-.74c-3-1.14-6.11-4-7.69-5.59a3.4,3.4,0,0,1-1-2.43v-5.53a.64.64,0,0,1,.64-.65.65.65,0,0,1,.65.65v5.53a2.13,2.13,0,0,0,.63,1.52c1.21,1.23,4.36,4.2,7.23,5.29,1.6.61,2.73.89,3.39.44.94-.66,1.39-3.08,1.39-7.64a16.45,16.45,0,0,0-9.52-15.26c-.76-.38-1.8-.75-2.43-.36a2.13,2.13,0,0,0-.69,1.68.66.66,0,0,1-.64.66.63.63,0,0,1-.65-.63,3.42,3.42,0,0,1,1.29-2.8c.91-.58,2.16-.48,3.7.29a17.71,17.71,0,0,1,10.23,16.42c0,5.3-.55,7.73-2,8.7A2.71,2.71,0,0,1,49.13,169.88Z" transform="translate(-8.49 -44.95)"/><path class="cls-4" d="M40.73,155.76a1.79,1.79,0,0,1-1.27-.52l-4.7-4.7-4.71,4.7a1.79,1.79,0,0,1-2.53,0l-.19-.18a1.81,1.81,0,0,1,0-2.54l5.5-5.5V134.94a.65.65,0,0,1,1.3,0v12.35a.66.66,0,0,1-.19.46l-5.69,5.68a.53.53,0,0,0-.15.36.51.51,0,0,0,.15.35l.18.18a.5.5,0,0,0,.71,0l5.16-5.15a.64.64,0,0,1,.92,0l5.16,5.15a.48.48,0,0,0,.7,0l.19-.18a.5.5,0,0,0,.14-.35.52.52,0,0,0-.14-.36l-5.69-5.68a.66.66,0,0,1-.19-.46V134.94a.65.65,0,0,1,1.29,0V147l5.5,5.5a1.79,1.79,0,0,1,0,2.54l-.18.18A1.79,1.79,0,0,1,40.73,155.76Z" transform="translate(-8.49 -44.95)"/><path class="cls-3" d="M25.43,150.43a.68.68,0,0,1-.46-.19.65.65,0,0,1-.18-.46.49.49,0,0,1,0-.12l0-.13.07-.11a.61.61,0,0,1,.07-.1l.1-.08.11-.06.13,0a.53.53,0,0,1,.25,0l.12,0,.11.06.1.08.08.1.06.11s0,.08,0,.13,0,.08,0,.12a.65.65,0,0,1-.65.65Z" transform="translate(-8.49 -44.95)"/><path class="cls-3" d="M48.31,156.07a.66.66,0,0,1-.46-.19.39.39,0,0,1-.08-.1l-.06-.11,0-.12s0-.08,0-.13a.64.64,0,0,1,.19-.45.68.68,0,0,1,.92,0,.64.64,0,0,1,.18.45.53.53,0,0,1,0,.13.56.56,0,0,1,0,.12.37.37,0,0,1,0,.11l-.08.1A.66.66,0,0,1,48.31,156.07Z" transform="translate(-8.49 -44.95)"/><path class="cls-3" d="M44.6,164a3.17,3.17,0,1,1,3.16-3.17A3.17,3.17,0,0,1,44.6,164Zm0-5.71a2.54,2.54,0,1,0,2.53,2.54A2.54,2.54,0,0,0,44.6,158.32Z" transform="translate(-8.49 -44.95)"/><rect class="cls-3" x="42.6" y="157.44" width="0.63" height="1.02" transform="translate(-81.71 -2.34) rotate(-30)"/><path class="cls-3" d="M42.22,158.08a.33.33,0,0,1-.28-.16.32.32,0,0,1,.12-.43L43,157a.31.31,0,0,1,.43.11.32.32,0,0,1-.12.43l-.89.51A.3.3,0,0,1,42.22,158.08Z" transform="translate(-8.49 -44.95)"/><rect class="cls-3" x="32.23" y="115.59" width="1.02" height="0.63"/><path class="cls-3" d="M40.72,161.69a.31.31,0,0,1-.31-.32v-1a.32.32,0,1,1,.63,0v1A.32.32,0,0,1,40.72,161.69Z" transform="translate(-8.49 -44.95)"/><rect class="cls-3" x="42.4" y="163.46" width="1.02" height="0.63" transform="translate(-128.87 74.1) rotate(-60)"/><path class="cls-3" d="M43.1,164.79a.42.42,0,0,1-.15,0l-.89-.52a.32.32,0,0,1-.12-.43.31.31,0,0,1,.43-.11l.89.51a.32.32,0,0,1,.12.43A.33.33,0,0,1,43.1,164.79Z" transform="translate(-8.49 -44.95)"/><rect class="cls-3" x="45.96" y="163.26" width="0.63" height="1.02" transform="translate(-84.18 0.13) rotate(-30)"/><path class="cls-3" d="M46.09,164.79a.32.32,0,0,1-.27-.16.31.31,0,0,1,.11-.43l.89-.51a.31.31,0,0,1,.43.11.3.3,0,0,1-.12.43l-.88.52A.47.47,0,0,1,46.09,164.79Z" transform="translate(-8.49 -44.95)"/><rect class="cls-3" x="38.96" y="115.59" width="1.02" height="0.63"/><path class="cls-3" d="M48.47,161.69a.31.31,0,0,1-.31-.32v-1a.32.32,0,0,1,.31-.32.33.33,0,0,1,.32.32v1A.32.32,0,0,1,48.47,161.69Z" transform="translate(-8.49 -44.95)"/><rect class="cls-3" x="45.77" y="157.63" width="1.02" height="0.63" transform="translate(-122.14 74.09) rotate(-60)"/><path class="cls-3" d="M47,158.08a.3.3,0,0,1-.16-.05l-.89-.51a.31.31,0,1,1,.32-.54l.88.51a.31.31,0,0,1,.12.43A.32.32,0,0,1,47,158.08Z" transform="translate(-8.49 -44.95)"/><path class="cls-3" d="M44,160.19a.31.31,0,0,1-.31-.31.13.13,0,0,1,0-.06s0,0,0-.06l0-.06,0,0a.33.33,0,0,1,.45,0l0,0a.09.09,0,0,1,0,.06.14.14,0,0,1,0,.06.13.13,0,0,1,0,.06.31.31,0,0,1-.09.22l0,0-.06,0,0,0Z" transform="translate(-8.49 -44.95)"/><path class="cls-3" d="M46.1,160.31a.32.32,0,0,1-.22-.1l0,0,0-.06s0,0,0-.06v-.12s0,0,0-.06l0-.05,0,0,0,0,0,0,.06,0h.12l.06,0,.06,0,0,0a.1.1,0,0,1,0,0l0,.05a.14.14,0,0,1,0,.06s0,0,0,.06,0,0,0,.06a.14.14,0,0,1,0,.06l0,.06,0,0A.3.3,0,0,1,46.1,160.31Z" transform="translate(-8.49 -44.95)"/><path class="cls-3" d="M45.52,162.32h-.06l-.06,0-.06,0,0,0,0,0,0-.05s0,0,0-.06,0,0,0-.07,0,0,0-.06l0-.06,0,0,0-.05,0,0,.06,0h.24l0,0,.05,0,0,.05,0,0,0,.06v.13s0,0,0,.06l0,.05,0,0A.31.31,0,0,1,45.52,162.32Z" transform="translate(-8.49 -44.95)"/><path class="cls-3" d="M43.61,161.85a.31.31,0,0,1-.31-.31.3.3,0,0,1,.37-.31l.06,0a.09.09,0,0,1,.06,0l0,0a.33.33,0,0,1,.1.23.32.32,0,0,1-.1.22l0,0-.06,0h-.12Z" transform="translate(-8.49 -44.95)"/><rect class="cls-3" x="42.6" y="157.44" width="0.63" height="1.02" transform="translate(-81.71 -2.34) rotate(-30)"/><path class="cls-3" d="M42.22,158.08a.33.33,0,0,1-.28-.16.32.32,0,0,1,.12-.43L43,157a.31.31,0,0,1,.43.11.32.32,0,0,1-.12.43l-.89.51A.3.3,0,0,1,42.22,158.08Z" transform="translate(-8.49 -44.95)"/><rect class="cls-3" x="32.23" y="115.59" width="1.02" height="0.63"/><path class="cls-3" d="M40.72,161.69a.31.31,0,0,1-.31-.32v-1a.32.32,0,1,1,.63,0v1A.32.32,0,0,1,40.72,161.69Z" transform="translate(-8.49 -44.95)"/><rect class="cls-3" x="42.4" y="163.46" width="1.02" height="0.63" transform="translate(-128.87 74.1) rotate(-60)"/><path class="cls-3" d="M43.1,164.79a.42.42,0,0,1-.15,0l-.89-.52a.32.32,0,0,1-.12-.43.31.31,0,0,1,.43-.11l.89.51a.32.32,0,0,1,.12.43A.33.33,0,0,1,43.1,164.79Z" transform="translate(-8.49 -44.95)"/><rect class="cls-3" x="45.96" y="163.26" width="0.63" height="1.02" transform="translate(-84.18 0.13) rotate(-30)"/><path class="cls-3" d="M46.09,164.79a.32.32,0,0,1-.27-.16.31.31,0,0,1,.11-.43l.89-.51a.31.31,0,0,1,.43.11.3.3,0,0,1-.12.43l-.88.52A.47.47,0,0,1,46.09,164.79Z" transform="translate(-8.49 -44.95)"/><rect class="cls-3" x="38.96" y="115.59" width="1.02" height="0.63"/><path class="cls-3" d="M48.47,161.69a.31.31,0,0,1-.31-.32v-1a.32.32,0,0,1,.31-.32.33.33,0,0,1,.32.32v1A.32.32,0,0,1,48.47,161.69Z" transform="translate(-8.49 -44.95)"/><rect class="cls-3" x="45.77" y="157.63" width="1.02" height="0.63" transform="translate(-122.14 74.09) rotate(-60)"/><path class="cls-3" d="M47,158.08a.3.3,0,0,1-.16-.05l-.89-.51a.31.31,0,1,1,.32-.54l.88.51a.31.31,0,0,1,.12.43A.32.32,0,0,1,47,158.08Z" transform="translate(-8.49 -44.95)"/><rect class="cls-3" x="41.17" y="162.23" width="1.02" height="0.63" transform="translate(-84.17 -2.35) rotate(-29.99)"/><path class="cls-3" d="M41.5,163.56a.33.33,0,0,1-.28-.16l-.51-.89a.32.32,0,0,1,.55-.31l.51.89a.31.31,0,0,1-.12.43A.42.42,0,0,1,41.5,163.56Z" transform="translate(-8.49 -44.95)"/><rect class="cls-3" x="35.79" y="118.76" width="0.63" height="1.02"/><path class="cls-3" d="M45.11,165.05h-1a.32.32,0,0,1,0-.63h1a.32.32,0,0,1,0,.63Z" transform="translate(-8.49 -44.95)"/><rect class="cls-3" x="47.19" y="162.03" width="0.63" height="1.02" transform="translate(-125.5 77.46) rotate(-60)"/><path class="cls-3" d="M47.7,163.56a.42.42,0,0,1-.16,0,.32.32,0,0,1-.12-.43l.52-.89a.32.32,0,0,1,.43-.12.31.31,0,0,1,.11.43l-.51.89A.33.33,0,0,1,47.7,163.56Z" transform="translate(-8.49 -44.95)"/><rect class="cls-3" x="47" y="158.87" width="1.02" height="0.63" transform="translate(-81.71 0.12) rotate(-29.99)"/><path class="cls-3" d="M48.21,159.68a.29.29,0,0,1-.27-.15l-.52-.89a.32.32,0,0,1,.12-.43.31.31,0,0,1,.43.11l.51.89a.31.31,0,0,1-.11.43A.32.32,0,0,1,48.21,159.68Z" transform="translate(-8.49 -44.95)"/><rect class="cls-3" x="35.79" y="112.03" width="0.63" height="1.02"/><path class="cls-3" d="M45.11,157.3h-1a.32.32,0,0,1,0-.63h1a.32.32,0,0,1,0,.63Z" transform="translate(-8.49 -44.95)"/><rect class="cls-3" x="41.37" y="158.67" width="0.63" height="1.02" transform="translate(-125.51 70.75) rotate(-60)"/><path class="cls-3" d="M41,159.68a.28.28,0,0,1-.15,0,.32.32,0,0,1-.12-.43l.51-.89a.32.32,0,0,1,.55.32l-.51.89A.32.32,0,0,1,41,159.68Z" transform="translate(-8.49 -44.95)"/><rect class="cls-3" x="41.17" y="162.23" width="1.02" height="0.63" transform="translate(-84.17 -2.35) rotate(-29.99)"/><path class="cls-3" d="M41.5,163.56a.33.33,0,0,1-.28-.16l-.51-.89a.32.32,0,0,1,.55-.31l.51.89a.31.31,0,0,1-.12.43A.42.42,0,0,1,41.5,163.56Z" transform="translate(-8.49 -44.95)"/><rect class="cls-3" x="35.79" y="118.76" width="0.63" height="1.02"/><path class="cls-3" d="M45.11,165.05h-1a.32.32,0,0,1,0-.63h1a.32.32,0,0,1,0,.63Z" transform="translate(-8.49 -44.95)"/><rect class="cls-3" x="47.19" y="162.03" width="0.63" height="1.02" transform="translate(-125.5 77.46) rotate(-60)"/><path class="cls-3" d="M47.7,163.56a.42.42,0,0,1-.16,0,.32.32,0,0,1-.12-.43l.52-.89a.32.32,0,0,1,.43-.12.31.31,0,0,1,.11.43l-.51.89A.33.33,0,0,1,47.7,163.56Z" transform="translate(-8.49 -44.95)"/><rect class="cls-3" x="47" y="158.87" width="1.02" height="0.63" transform="translate(-81.71 0.12) rotate(-29.99)"/><path class="cls-3" d="M48.21,159.68a.29.29,0,0,1-.27-.15l-.52-.89a.32.32,0,0,1,.12-.43.31.31,0,0,1,.43.11l.51.89a.31.31,0,0,1-.11.43A.32.32,0,0,1,48.21,159.68Z" transform="translate(-8.49 -44.95)"/><rect class="cls-3" x="35.79" y="112.03" width="0.63" height="1.02"/><path class="cls-3" d="M45.11,157.3h-1a.32.32,0,0,1,0-.63h1a.32.32,0,0,1,0,.63Z" transform="translate(-8.49 -44.95)"/><rect class="cls-3" x="41.37" y="158.67" width="0.63" height="1.02" transform="translate(-125.51 70.75) rotate(-60)"/><path class="cls-3" d="M41,159.68a.28.28,0,0,1-.15,0,.32.32,0,0,1-.12-.43l.51-.89a.32.32,0,0,1,.55.32l-.51.89A.32.32,0,0,1,41,159.68Z" transform="translate(-8.49 -44.95)"/><path class="cls-3" d="M44,160.19a.31.31,0,0,1-.31-.31.13.13,0,0,1,0-.06s0,0,0-.06l0-.06,0,0a.33.33,0,0,1,.45,0l0,0a.09.09,0,0,1,0,.06.14.14,0,0,1,0,.06.13.13,0,0,1,0,.06.31.31,0,0,1-.09.22l0,0-.06,0,0,0Z" transform="translate(-8.49 -44.95)"/><path class="cls-3" d="M46.1,160.31a.32.32,0,0,1-.22-.1l0,0,0-.06s0,0,0-.06v-.12s0,0,0-.06l0-.05,0,0,0,0,0,0,.06,0h.12l.06,0,.06,0,0,0a.1.1,0,0,1,0,0l0,.05a.14.14,0,0,1,0,.06s0,0,0,.06,0,0,0,.06a.14.14,0,0,1,0,.06l0,.06,0,0A.3.3,0,0,1,46.1,160.31Z" transform="translate(-8.49 -44.95)"/><path class="cls-3" d="M45.52,162.32h-.06l-.06,0-.06,0,0,0,0,0,0-.05s0,0,0-.06,0,0,0-.07,0,0,0-.06l0-.06,0,0,0-.05,0,0,.06,0h.24l0,0,.05,0,0,.05,0,0,0,.06v.13s0,0,0,.06l0,.05,0,0A.31.31,0,0,1,45.52,162.32Z" transform="translate(-8.49 -44.95)"/><path class="cls-3" d="M43.61,161.85a.31.31,0,0,1-.31-.31.3.3,0,0,1,.37-.31l.06,0a.09.09,0,0,1,.06,0l0,0a.33.33,0,0,1,.1.23.32.32,0,0,1-.1.22l0,0-.06,0h-.12Z" transform="translate(-8.49 -44.95)"/><path class="cls-3" d="M43.77,151.89a1.65,1.65,0,1,1,1.65-1.65A1.65,1.65,0,0,1,43.77,151.89Zm0-3a1.32,1.32,0,1,0,1.33,1.32A1.33,1.33,0,0,0,43.77,148.92Z" transform="translate(-8.49 -44.95)"/><rect class="cls-3" x="35.12" y="102.86" width="0.33" height="0.94"/><path class="cls-3" d="M44.16,148h-.77a.16.16,0,0,1-.16-.16.17.17,0,0,1,.16-.17h.77a.17.17,0,0,1,.16.17A.16.16,0,0,1,44.16,148Z" transform="translate(-8.49 -44.95)"/><rect class="cls-3" x="42.74" y="148.46" width="0.33" height="0.53" transform="translate(-77.11 -3.57) rotate(-30)"/><path class="cls-3" d="M42.53,148.79a.17.17,0,0,1-.14-.08.18.18,0,0,1,.06-.23l.47-.26a.16.16,0,0,1,.22.06.17.17,0,0,1-.06.22l-.46.27Z" transform="translate(-8.49 -44.95)"/><rect class="cls-3" x="41.92" y="148.79" width="0.33" height="0.94" transform="translate(-116.72 66.12) rotate(-60)"/><path class="cls-3" d="M41.49,149.52l-.09,0a.18.18,0,0,1-.06-.22l.39-.66a.15.15,0,0,1,.22-.06.16.16,0,0,1,.06.22l-.38.66A.17.17,0,0,1,41.49,149.52Z" transform="translate(-8.49 -44.95)"/><rect class="cls-3" x="33.27" y="105.12" width="0.53" height="0.33"/><path class="cls-3" d="M41.76,150.67a.17.17,0,0,1-.17-.16V150a.17.17,0,0,1,.17-.16.16.16,0,0,1,.16.16v.54A.16.16,0,0,1,41.76,150.67Z" transform="translate(-8.49 -44.95)"/><rect class="cls-3" x="41.61" y="151.05" width="0.94" height="0.33" transform="translate(-78.45 -3.66) rotate(-29.99)"/><path class="cls-3" d="M41.87,151.94a.14.14,0,0,1-.14-.08l-.39-.66a.17.17,0,0,1,.06-.22.17.17,0,0,1,.23.06l.38.66a.16.16,0,0,1-.06.22A.12.12,0,0,1,41.87,151.94Z" transform="translate(-8.49 -44.95)"/><rect class="cls-3" x="42.63" y="151.59" width="0.53" height="0.33" transform="translate(-118.47 68.07) rotate(-60)"/><path class="cls-3" d="M43,152.28a.11.11,0,0,1-.08,0l-.47-.26a.17.17,0,0,1,.17-.29l.46.27a.16.16,0,0,1,.06.22A.15.15,0,0,1,43,152.28Z" transform="translate(-8.49 -44.95)"/><rect class="cls-3" x="35.12" y="106.77" width="0.33" height="0.94"/><path class="cls-3" d="M44.16,152.83h-.77a.17.17,0,0,1-.16-.17.16.16,0,0,1,.16-.16h.77a.16.16,0,0,1,.16.16A.17.17,0,0,1,44.16,152.83Z" transform="translate(-8.49 -44.95)"/><rect class="cls-3" x="44.49" y="151.49" width="0.33" height="0.53" transform="translate(-78.38 -2.3) rotate(-30)"/><path class="cls-3" d="M44.55,152.28a.15.15,0,0,1-.14-.08.16.16,0,0,1,.06-.22l.46-.27a.17.17,0,1,1,.17.29l-.47.26A.11.11,0,0,1,44.55,152.28Z" transform="translate(-8.49 -44.95)"/><rect class="cls-3" x="45.3" y="150.75" width="0.33" height="0.94" transform="matrix(0.5, -0.87, 0.87, 0.5, -116.71, 70.02)"/><path class="cls-3" d="M45.68,151.94a.12.12,0,0,1-.08,0,.16.16,0,0,1-.06-.22l.38-.66a.17.17,0,0,1,.23-.06.17.17,0,0,1,.06.22l-.39.66A.14.14,0,0,1,45.68,151.94Z" transform="translate(-8.49 -44.95)"/><rect class="cls-3" x="36.77" y="105.12" width="0.53" height="0.33"/><path class="cls-3" d="M45.79,150.67a.16.16,0,0,1-.16-.16V150a.16.16,0,0,1,.16-.16A.17.17,0,0,1,46,150v.54A.17.17,0,0,1,45.79,150.67Z" transform="translate(-8.49 -44.95)"/><rect class="cls-3" x="45" y="149.1" width="0.94" height="0.33" transform="translate(-77.02 -2.23) rotate(-29.99)"/><path class="cls-3" d="M46.06,149.52a.17.17,0,0,1-.14-.08l-.38-.66a.16.16,0,0,1,.06-.22.15.15,0,0,1,.22.06l.39.66a.18.18,0,0,1-.06.22Z" transform="translate(-8.49 -44.95)"/><rect class="cls-3" x="44.38" y="148.56" width="0.53" height="0.33" transform="translate(-114.96 68.07) rotate(-60)"/><path class="cls-3" d="M45,148.79l-.09,0-.46-.27a.17.17,0,0,1-.06-.22.16.16,0,0,1,.22-.06l.47.26a.18.18,0,0,1,.06.23A.17.17,0,0,1,45,148.79Z" transform="translate(-8.49 -44.95)"/><path class="cls-3" d="M43.29,149.65a.17.17,0,0,1-.12-.05.18.18,0,0,1-.05-.12v0a0,0,0,0,0,0,0l0,0,0,0a.17.17,0,0,1,.15-.05h.06l0,0,0,0,0,0a0,0,0,0,0,0,0v0a.18.18,0,0,1-.05.12A.16.16,0,0,1,43.29,149.65Z" transform="translate(-8.49 -44.95)"/><path class="cls-3" d="M44.56,150a.18.18,0,0,1-.12,0s0,0,0,0,0,0,0,0a0,0,0,0,1,0,0v-.07a0,0,0,0,1,0,0v0s0,0,0,0l0,0h.06a.14.14,0,0,1,.14,0,.13.13,0,0,1,0,.12v0s0,0,0,0,0,0,0,0l0,0A.16.16,0,0,1,44.56,150Z" transform="translate(-8.49 -44.95)"/><path class="cls-3" d="M44,150.45h-.07l0,0a.18.18,0,0,1,0-.12,0,0,0,0,1,0,0v0l0,0,0,0a.17.17,0,0,1,.23,0l0,0,0,0a0,0,0,0,0,0,0v0a.18.18,0,0,1,0,.12A.15.15,0,0,1,44,150.45Z" transform="translate(-8.49 -44.95)"/><path class="cls-3" d="M43,150.51h-.06a.1.1,0,0,1-.05,0l0,0v-.16l0,0,0,0a.17.17,0,0,1,.23,0l0,0v0a0,0,0,0,1,0,0v0s0,0,0,0a0,0,0,0,1,0,0v0l0,0,0,0,0,0H43Z" transform="translate(-8.49 -44.95)"/><path class="cls-3" d="M43.54,151.35a.16.16,0,0,1-.11,0l0-.05a.17.17,0,0,1,0-.07.16.16,0,0,1,0-.11.17.17,0,0,1,.15,0h0s0,0,0,0l0,0a.16.16,0,0,1,.05.11.19.19,0,0,1,0,.07s0,0,0,.05A.17.17,0,0,1,43.54,151.35Z" transform="translate(-8.49 -44.95)"/><path class="cls-3" d="M44.46,150.93l-.06,0-.06,0,0,0s0,0,0,0a0,0,0,0,1,0,0v0a.15.15,0,0,1,0-.11.18.18,0,0,1,.24,0,.15.15,0,0,1,0,.11.16.16,0,0,1,0,.12A.21.21,0,0,1,44.46,150.93Z" transform="translate(-8.49 -44.95)"/><path class="cls-3" d="M23.3,160.24a3.17,3.17,0,1,1,3.17-3.17A3.17,3.17,0,0,1,23.3,160.24Zm0-5.7a2.54,2.54,0,1,0,2.54,2.53A2.54,2.54,0,0,0,23.3,154.54Z" transform="translate(-8.49 -44.95)"/><rect class="cls-3" x="21.31" y="153.65" width="0.63" height="1.02" transform="translate(-82.67 -13.49) rotate(-30)"/><path class="cls-3" d="M20.92,154.29a.32.32,0,0,1-.27-.16.31.31,0,0,1,.11-.43l.89-.51a.31.31,0,1,1,.32.54l-.89.52A.47.47,0,0,1,20.92,154.29Z" transform="translate(-8.49 -44.95)"/><rect class="cls-3" x="10.93" y="111.81" width="1.02" height="0.63"/><path class="cls-3" d="M19.43,157.9a.31.31,0,0,1-.32-.31v-1a.32.32,0,0,1,.63,0v1A.31.31,0,0,1,19.43,157.9Z" transform="translate(-8.49 -44.95)"/><rect class="cls-3" x="21.11" y="159.67" width="1.02" height="0.63" transform="translate(-136.23 53.76) rotate(-60)"/><path class="cls-3" d="M21.81,161a.29.29,0,0,1-.16,0l-.89-.52a.31.31,0,0,1,.32-.54l.89.51a.31.31,0,0,1,.11.43A.32.32,0,0,1,21.81,161Z" transform="translate(-8.49 -44.95)"/><rect class="cls-3" x="24.67" y="159.47" width="0.63" height="1.02" transform="matrix(0.87, -0.5, 0.5, 0.87, -85.14, -11.02)"/><path class="cls-3" d="M24.8,161a.33.33,0,0,1-.28-.16.32.32,0,0,1,.12-.43l.89-.51A.3.3,0,0,1,26,160a.31.31,0,0,1-.11.43L25,161A.28.28,0,0,1,24.8,161Z" transform="translate(-8.49 -44.95)"/><rect class="cls-3" x="17.66" y="111.81" width="1.02" height="0.63"/><path class="cls-3" d="M27.18,157.9a.31.31,0,0,1-.32-.31v-1a.32.32,0,0,1,.63,0v1A.31.31,0,0,1,27.18,157.9Z" transform="translate(-8.49 -44.95)"/><rect class="cls-3" x="24.47" y="153.85" width="1.02" height="0.63" transform="translate(-129.5 53.76) rotate(-60)"/><path class="cls-3" d="M25.68,154.29a.42.42,0,0,1-.15,0l-.89-.52a.32.32,0,0,1-.12-.43.31.31,0,0,1,.43-.11l.89.51a.31.31,0,0,1,.11.43A.3.3,0,0,1,25.68,154.29Z" transform="translate(-8.49 -44.95)"/><path class="cls-3" d="M22.71,156.4a.31.31,0,0,1-.22-.09.32.32,0,0,1-.1-.22s0,0,0-.06l0-.06,0-.05a.1.1,0,0,1,0,0,.31.31,0,0,1,.44,0,.1.1,0,0,1,0,0l0,.05,0,.06v.06a.31.31,0,0,1-.09.22.1.1,0,0,1-.05,0l-.05,0-.06,0Z" transform="translate(-8.49 -44.95)"/><path class="cls-3" d="M24.81,156.52a.36.36,0,0,1-.23-.09l0-.05a.09.09,0,0,1,0-.06l0,0s0-.05,0-.07,0,0,0-.06a.14.14,0,0,1,0-.06.13.13,0,0,1,0-.05l0-.05.05,0,.06,0,.06,0h.12l.06,0,.05,0,.05,0,0,.05,0,.05a2199631296444.75,2199631296444.75,0,0,1,0,.12.2.2,0,0,1,0,.07.11.11,0,0,1,0,0l0,.06,0,.05A.36.36,0,0,1,24.81,156.52Z" transform="translate(-8.49 -44.95)"/><path class="cls-3" d="M24.22,158.53H24.1l-.05,0-.05,0,0-.05,0,0a1099815648218.18,1099815648218.18,0,0,0,0-.12.17.17,0,0,1,0-.07.43.43,0,0,1,0-.05l0-.06,0,0,.05,0,.05,0h.24l.06,0,.05,0,0,0a.14.14,0,0,1,0,.06.08.08,0,0,1,0,.05.17.17,0,0,1,0,.07.13.13,0,0,1,0,.06.14.14,0,0,1,0,.06s0,0,0,0l0,.05A.32.32,0,0,1,24.22,158.53Z" transform="translate(-8.49 -44.95)"/><path class="cls-3" d="M22.32,158.06a.32.32,0,0,1-.23-.09.31.31,0,0,1-.09-.22.28.28,0,0,1,.09-.22.32.32,0,0,1,.29-.09l.06,0s0,0,0,0l.05,0a.29.29,0,0,1,.09.22.31.31,0,0,1-.09.22l-.05,0,0,0-.06,0Z" transform="translate(-8.49 -44.95)"/><rect class="cls-3" x="21.31" y="153.65" width="0.63" height="1.02" transform="translate(-82.67 -13.49) rotate(-30)"/><path class="cls-3" d="M20.92,154.29a.32.32,0,0,1-.27-.16.31.31,0,0,1,.11-.43l.89-.51a.31.31,0,1,1,.32.54l-.89.52A.47.47,0,0,1,20.92,154.29Z" transform="translate(-8.49 -44.95)"/><rect class="cls-3" x="10.93" y="111.81" width="1.02" height="0.63"/><path class="cls-3" d="M19.43,157.9a.31.31,0,0,1-.32-.31v-1a.32.32,0,0,1,.63,0v1A.31.31,0,0,1,19.43,157.9Z" transform="translate(-8.49 -44.95)"/><rect class="cls-3" x="21.11" y="159.67" width="1.02" height="0.63" transform="translate(-136.23 53.76) rotate(-60)"/><path class="cls-3" d="M21.81,161a.29.29,0,0,1-.16,0l-.89-.52a.31.31,0,0,1,.32-.54l.89.51a.31.31,0,0,1,.11.43A.32.32,0,0,1,21.81,161Z" transform="translate(-8.49 -44.95)"/><rect class="cls-3" x="24.67" y="159.47" width="0.63" height="1.02" transform="matrix(0.87, -0.5, 0.5, 0.87, -85.14, -11.02)"/><path class="cls-3" d="M24.8,161a.33.33,0,0,1-.28-.16.32.32,0,0,1,.12-.43l.89-.51A.3.3,0,0,1,26,160a.31.31,0,0,1-.11.43L25,161A.28.28,0,0,1,24.8,161Z" transform="translate(-8.49 -44.95)"/><rect class="cls-3" x="17.66" y="111.81" width="1.02" height="0.63"/><path class="cls-3" d="M27.18,157.9a.31.31,0,0,1-.32-.31v-1a.32.32,0,0,1,.63,0v1A.31.31,0,0,1,27.18,157.9Z" transform="translate(-8.49 -44.95)"/><rect class="cls-3" x="24.47" y="153.85" width="1.02" height="0.63" transform="translate(-129.5 53.76) rotate(-60)"/><path class="cls-3" d="M25.68,154.29a.42.42,0,0,1-.15,0l-.89-.52a.32.32,0,0,1-.12-.43.31.31,0,0,1,.43-.11l.89.51a.31.31,0,0,1,.11.43A.3.3,0,0,1,25.68,154.29Z" transform="translate(-8.49 -44.95)"/><rect class="cls-3" x="19.88" y="158.44" width="1.02" height="0.63" transform="translate(-85.13 -13.5) rotate(-29.99)"/><path class="cls-3" d="M20.2,159.77a.32.32,0,0,1-.27-.16l-.51-.89a.31.31,0,0,1,.11-.43.32.32,0,0,1,.43.12l.51.89a.31.31,0,0,1-.11.43A.42.42,0,0,1,20.2,159.77Z" transform="translate(-8.49 -44.95)"/><rect class="cls-3" x="14.5" y="114.97" width="0.63" height="1.02"/><path class="cls-3" d="M23.81,161.26h-1a.32.32,0,1,1,0-.63h1a.32.32,0,1,1,0,.63Z" transform="translate(-8.49 -44.95)"/><rect class="cls-3" x="25.9" y="158.24" width="0.63" height="1.02" transform="translate(-132.87 57.12) rotate(-60)"/><path class="cls-3" d="M26.4,159.77a.47.47,0,0,1-.16,0,.31.31,0,0,1-.11-.43l.51-.89a.32.32,0,0,1,.55.31l-.52.89A.32.32,0,0,1,26.4,159.77Z" transform="translate(-8.49 -44.95)"/><rect class="cls-3" x="25.7" y="155.08" width="1.02" height="0.63" transform="translate(-82.66 -11.04) rotate(-29.99)"/><path class="cls-3" d="M26.91,155.89a.31.31,0,0,1-.27-.15l-.51-.89a.31.31,0,0,1,.54-.32l.52.89a.32.32,0,0,1-.12.43A.29.29,0,0,1,26.91,155.89Z" transform="translate(-8.49 -44.95)"/><rect class="cls-3" x="14.5" y="108.25" width="0.63" height="1.02"/><path class="cls-3" d="M23.81,153.51h-1a.32.32,0,1,1,0-.63h1a.32.32,0,1,1,0,.63Z" transform="translate(-8.49 -44.95)"/><rect class="cls-3" x="20.07" y="154.88" width="0.63" height="1.02" transform="translate(-132.87 50.41) rotate(-60)"/><path class="cls-3" d="M19.69,155.89a.32.32,0,0,1-.16,0,.31.31,0,0,1-.11-.43l.51-.89a.31.31,0,1,1,.54.32l-.51.89A.31.31,0,0,1,19.69,155.89Z" transform="translate(-8.49 -44.95)"/><rect class="cls-3" x="19.88" y="158.44" width="1.02" height="0.63" transform="translate(-85.13 -13.5) rotate(-29.99)"/><path class="cls-3" d="M20.2,159.77a.32.32,0,0,1-.27-.16l-.51-.89a.31.31,0,0,1,.11-.43.32.32,0,0,1,.43.12l.51.89a.31.31,0,0,1-.11.43A.42.42,0,0,1,20.2,159.77Z" transform="translate(-8.49 -44.95)"/><rect class="cls-3" x="14.5" y="114.97" width="0.63" height="1.02"/><path class="cls-3" d="M23.81,161.26h-1a.32.32,0,1,1,0-.63h1a.32.32,0,1,1,0,.63Z" transform="translate(-8.49 -44.95)"/><rect class="cls-3" x="25.9" y="158.24" width="0.63" height="1.02" transform="translate(-132.87 57.12) rotate(-60)"/><path class="cls-3" d="M26.4,159.77a.47.47,0,0,1-.16,0,.31.31,0,0,1-.11-.43l.51-.89a.32.32,0,0,1,.55.31l-.52.89A.32.32,0,0,1,26.4,159.77Z" transform="translate(-8.49 -44.95)"/><rect class="cls-3" x="25.7" y="155.08" width="1.02" height="0.63" transform="translate(-82.66 -11.04) rotate(-29.99)"/><path class="cls-3" d="M26.91,155.89a.31.31,0,0,1-.27-.15l-.51-.89a.31.31,0,0,1,.54-.32l.52.89a.32.32,0,0,1-.12.43A.29.29,0,0,1,26.91,155.89Z" transform="translate(-8.49 -44.95)"/><rect class="cls-3" x="14.5" y="108.25" width="0.63" height="1.02"/><path class="cls-3" d="M23.81,153.51h-1a.32.32,0,1,1,0-.63h1a.32.32,0,1,1,0,.63Z" transform="translate(-8.49 -44.95)"/><rect class="cls-3" x="20.07" y="154.88" width="0.63" height="1.02" transform="translate(-132.87 50.41) rotate(-60)"/><path class="cls-3" d="M19.69,155.89a.32.32,0,0,1-.16,0,.31.31,0,0,1-.11-.43l.51-.89a.31.31,0,1,1,.54.32l-.51.89A.31.31,0,0,1,19.69,155.89Z" transform="translate(-8.49 -44.95)"/><path class="cls-3" d="M22.71,156.4a.31.31,0,0,1-.22-.09.32.32,0,0,1-.1-.22s0,0,0-.06l0-.06,0-.05a.1.1,0,0,1,0,0,.31.31,0,0,1,.44,0,.1.1,0,0,1,0,0l0,.05,0,.06v.06a.31.31,0,0,1-.09.22.1.1,0,0,1-.05,0l-.05,0-.06,0Z" transform="translate(-8.49 -44.95)"/><path class="cls-3" d="M24.81,156.52a.36.36,0,0,1-.23-.09l0-.05a.09.09,0,0,1,0-.06l0,0s0-.05,0-.07,0,0,0-.06a.14.14,0,0,1,0-.06.13.13,0,0,1,0-.05l0-.05.05,0,.06,0,.06,0h.12l.06,0,.05,0,.05,0,0,.05,0,.05a2199631296444.75,2199631296444.75,0,0,1,0,.12.2.2,0,0,1,0,.07.11.11,0,0,1,0,0l0,.06,0,.05A.36.36,0,0,1,24.81,156.52Z" transform="translate(-8.49 -44.95)"/><path class="cls-3" d="M24.22,158.53H24.1l-.05,0-.05,0,0-.05,0,0a1099815648218.18,1099815648218.18,0,0,0,0-.12.17.17,0,0,1,0-.07.43.43,0,0,1,0-.05l0-.06,0,0,.05,0,.05,0h.24l.06,0,.05,0,0,0a.14.14,0,0,1,0,.06.08.08,0,0,1,0,.05.17.17,0,0,1,0,.07.13.13,0,0,1,0,.06.14.14,0,0,1,0,.06s0,0,0,0l0,.05A.32.32,0,0,1,24.22,158.53Z" transform="translate(-8.49 -44.95)"/><path class="cls-3" d="M22.32,158.06a.32.32,0,0,1-.23-.09.31.31,0,0,1-.09-.22.28.28,0,0,1,.09-.22.32.32,0,0,1,.29-.09l.06,0s0,0,0,0l.05,0a.29.29,0,0,1,.09.22.31.31,0,0,1-.09.22l-.05,0,0,0-.06,0Z" transform="translate(-8.49 -44.95)"/><path class="cls-3" d="M21.6,165.82a1.5,1.5,0,1,1,1.49-1.5A1.5,1.5,0,0,1,21.6,165.82Zm0-2.7a1.2,1.2,0,1,0,1.19,1.2A1.2,1.2,0,0,0,21.6,163.12Z" transform="translate(-8.49 -44.95)"/><rect class="cls-3" x="12.96" y="117.17" width="0.3" height="0.85"/><path class="cls-3" d="M21.94,162.27h-.69a.15.15,0,0,1-.15-.14.15.15,0,0,1,.15-.15h.69a.15.15,0,0,1,.15.15A.15.15,0,0,1,21.94,162.27Z" transform="translate(-8.49 -44.95)"/><rect class="cls-3" x="20.65" y="162.71" width="0.3" height="0.48" transform="translate(-87.18 -12.72) rotate(-30)"/><path class="cls-3" d="M20.47,163a.16.16,0,0,1-.13-.08.15.15,0,0,1,.06-.2l.42-.24a.15.15,0,0,1,.2,0,.16.16,0,0,1-.05.21l-.42.24Z" transform="translate(-8.49 -44.95)"/><rect class="cls-3" x="19.91" y="163.01" width="0.3" height="0.85" transform="translate(-140 54.14) rotate(-60)"/><path class="cls-3" d="M19.52,163.67a.1.1,0,0,1-.07,0,.15.15,0,0,1-.06-.2l.35-.6a.15.15,0,0,1,.2,0,.15.15,0,0,1,.06.2l-.35.6A.15.15,0,0,1,19.52,163.67Z" transform="translate(-8.49 -44.95)"/><rect class="cls-3" x="11.28" y="119.22" width="0.48" height="0.3"/><path class="cls-3" d="M19.77,164.71a.14.14,0,0,1-.15-.15v-.48a.15.15,0,0,1,.15-.15.15.15,0,0,1,.15.15v.48A.15.15,0,0,1,19.77,164.71Z" transform="translate(-8.49 -44.95)"/><rect class="cls-3" x="19.64" y="165.06" width="0.85" height="0.3" transform="translate(-88.4 -12.8) rotate(-29.99)"/><path class="cls-3" d="M19.87,165.87a.16.16,0,0,1-.13-.08l-.35-.59a.16.16,0,0,1,.06-.21.15.15,0,0,1,.2.06l.35.6a.15.15,0,0,1-.06.2Z" transform="translate(-8.49 -44.95)"/><rect class="cls-3" x="20.56" y="165.55" width="0.48" height="0.3" transform="translate(-141.59 55.91) rotate(-60)"/><path class="cls-3" d="M20.89,166.18l-.07,0-.42-.25a.15.15,0,0,1-.06-.2.16.16,0,0,1,.21-.05l.42.24a.15.15,0,0,1,.05.2A.16.16,0,0,1,20.89,166.18Z" transform="translate(-8.49 -44.95)"/><rect class="cls-3" x="12.96" y="120.72" width="0.3" height="0.85"/><path class="cls-3" d="M21.94,166.67h-.69a.15.15,0,0,1,0-.3h.69a.15.15,0,1,1,0,.3Z" transform="translate(-8.49 -44.95)"/><rect class="cls-3" x="22.24" y="165.46" width="0.3" height="0.48" transform="translate(-88.34 -11.56) rotate(-30)"/><path class="cls-3" d="M22.3,166.18a.16.16,0,0,1-.13-.08.15.15,0,0,1,.06-.2l.42-.24a.15.15,0,0,1,.2.05.14.14,0,0,1-.06.2l-.41.25Z" transform="translate(-8.49 -44.95)"/><rect class="cls-3" x="22.98" y="164.78" width="0.3" height="0.85" transform="translate(-140 57.67) rotate(-60)"/><path class="cls-3" d="M23.33,165.87l-.08,0a.15.15,0,0,1-.05-.2l.34-.6a.16.16,0,0,1,.21-.06.16.16,0,0,1,.05.21l-.35.59A.13.13,0,0,1,23.33,165.87Z" transform="translate(-8.49 -44.95)"/><rect class="cls-3" x="14.45" y="119.22" width="0.48" height="0.3"/><path class="cls-3" d="M23.43,164.71a.14.14,0,0,1-.15-.15v-.48a.15.15,0,0,1,.15-.15.15.15,0,0,1,.14.15v.48A.14.14,0,0,1,23.43,164.71Z" transform="translate(-8.49 -44.95)"/><rect class="cls-3" x="22.71" y="163.29" width="0.85" height="0.3" transform="translate(-87.1 -11.5) rotate(-29.99)"/><path class="cls-3" d="M23.67,163.67a.15.15,0,0,1-.13-.07l-.34-.6a.15.15,0,0,1,.25-.15l.35.6a.15.15,0,0,1-.05.2A.12.12,0,0,1,23.67,163.67Z" transform="translate(-8.49 -44.95)"/><rect class="cls-3" x="22.15" y="162.8" width="0.48" height="0.3" transform="translate(-138.41 55.91) rotate(-60)"/><path class="cls-3" d="M22.72,163l-.07,0-.42-.24a.16.16,0,0,1-.06-.21.16.16,0,0,1,.21,0l.41.24a.14.14,0,0,1,.06.2A.16.16,0,0,1,22.72,163Z" transform="translate(-8.49 -44.95)"/><path class="cls-3" d="M21.15,163.78a.13.13,0,0,1-.1,0,.16.16,0,0,1-.05-.1,82416854698.46,82416854698.46,0,0,0,0-.06,0,0,0,0,1,0,0s0,0,0,0a.15.15,0,0,1,.13,0h.05l0,0,0,0s0,0,0,0,0,0,0,0v0a.14.14,0,0,1,0,.1A.15.15,0,0,1,21.15,163.78Z" transform="translate(-8.49 -44.95)"/><path class="cls-3" d="M22.31,164.06a.21.21,0,0,1-.11,0s0,0,0,0v-.13s0,0,0,0l0,0,0,0,0,0h0a.12.12,0,0,1,.13,0,.12.12,0,0,1,.05.1v0a0,0,0,0,1,0,0s0,0,0,0l0,0A.18.18,0,0,1,22.31,164.06Z" transform="translate(-8.49 -44.95)"/><path class="cls-3" d="M21.78,164.52h-.06l0,0a.15.15,0,0,1,0-.1v-.06s0,0,0,0,0,0,0,0a.17.17,0,0,1,.21,0l0,0s0,0,0,0v0a0,0,0,0,1,0,0,.18.18,0,0,1-.15.15Z" transform="translate(-8.49 -44.95)"/><path class="cls-3" d="M20.88,164.57h-.06l-.05,0,0,0v0s0,0,0,0v-.09s0,0,0,0l0,0a.17.17,0,0,1,.21,0l0,0s0,0,0,0a0,0,0,0,1,0,0s0,0,0,0,0,0,0,0a0,0,0,0,1,0,0,0,0,0,0,1,0,0l0,0,0,0,0,0h-.05Z" transform="translate(-8.49 -44.95)"/><path class="cls-3" d="M21.39,165.33a.16.16,0,0,1-.11-.05l0-.05a.07.07,0,0,1,0,0,.15.15,0,0,1,0-.11.18.18,0,0,1,.14,0h0l0,0a.15.15,0,0,1,0,.11.07.07,0,0,1,0,0,.05.05,0,0,1,0,.05A.14.14,0,0,1,21.39,165.33Z" transform="translate(-8.49 -44.95)"/><path class="cls-3" d="M22.22,164.94h-.06s0,0-.05,0l0,0s0,0,0,0v0a.15.15,0,0,1,0-.11.17.17,0,0,1,.21,0,.15.15,0,0,1,0,.11.14.14,0,0,1-.14.14Z" transform="translate(-8.49 -44.95)"/></g></svg>