<svg id="pulmão" xmlns="http://www.w3.org/2000/svg" viewBox="0 0 217.51 216.43"><defs><style>.cls-1{fill:#df1995;}.cls-2{fill:#409;}</style></defs><title>pulmães</title><path class="cls-1" d="M74.21,236.36a16.27,16.27,0,0,1-9.5-2.73c-8.54-5.88-11.86-20.72-11.86-52.91,0-59.83,39-88.25,62.21-99.87,9.4-4.69,17-5.3,22.52-1.8,8,5.06,7.87,16.54,7.86,17a3.94,3.94,0,0,1-7.87-.14c0-2.1-.68-8-4.21-10.24-3.81-2.38-10.14-.12-14.78,2.21C97,98.7,60.72,125.13,60.72,180.72c0,27.7,2.69,42.45,8.46,46.43,4,2.77,10.85,1,20.58-2.66,17.48-6.64,36.59-24.7,44-32.16a13,13,0,0,0,3.82-9.27V149.45a3.94,3.94,0,0,1,7.87,0v33.61a20.88,20.88,0,0,1-6.1,14.82c-9.65,9.71-28.55,27-46.78,34C86.34,234.21,80,236.36,74.21,236.36Z" transform="translate(-52.85 -19.93)"/><path class="cls-1" d="M249,236.36c-5.76,0-12.13-2.15-18.34-4.51-18.24-6.93-37.14-24.26-46.78-34a20.89,20.89,0,0,1-6.11-14.82V149.45a3.94,3.94,0,0,1,7.87,0v33.61a13.08,13.08,0,0,0,3.82,9.27c7.4,7.46,26.51,25.52,44,32.16,9.74,3.7,16.57,5.43,20.59,2.66,5.77-4,8.46-18.73,8.46-46.43,0-55.59-36.26-82-57.86-92.82-4.64-2.33-11-4.59-14.78-2.21-3.54,2.22-4.25,8.14-4.22,10.24a3.94,3.94,0,0,1-3.87,4,3.89,3.89,0,0,1-4-3.85c0-.48-.15-12,7.86-17,5.54-3.5,13.12-2.9,22.53,1.8,23.23,11.62,62.21,40,62.21,99.87,0,32.19-3.33,47-11.86,52.91A16.31,16.31,0,0,1,249,236.36Z" transform="translate(-52.85 -19.93)"/><path class="cls-1" d="M197.93,150.5a10.83,10.83,0,0,1-7.71-3.19l-28.62-28.6L133,147.31a10.93,10.93,0,0,1-15.43,0l-1.11-1.12a10.89,10.89,0,0,1,0-15.42l33.44-33.43V23.87a3.94,3.94,0,1,1,7.87,0V99a3.93,3.93,0,0,1-1.15,2.78L122,136.33a3,3,0,0,0,0,4.3l1.12,1.11a3,3,0,0,0,4.29,0l31.4-31.37a3.92,3.92,0,0,1,5.56,0l31.4,31.37a3,3,0,0,0,4.29,0l1.12-1.11a3,3,0,0,0,0-4.3l-34.6-34.58A3.93,3.93,0,0,1,165.44,99V23.87a3.94,3.94,0,1,1,7.87,0V97.34l33.44,33.43a10.89,10.89,0,0,1,0,15.42l-1.11,1.12A10.91,10.91,0,0,1,197.93,150.5Z" transform="translate(-52.85 -19.93)"/><path class="cls-2" d="M104.89,118.05a3.93,3.93,0,0,1-3.94-3.93,3.3,3.3,0,0,1,.08-.77,3.79,3.79,0,0,1,.21-.75,3.2,3.2,0,0,1,.38-.67,5.24,5.24,0,0,1,.47-.61,7.26,7.26,0,0,1,.61-.49,3.56,3.56,0,0,1,.67-.35,3.23,3.23,0,0,1,.75-.22,3.94,3.94,0,0,1,1.53,0,3.08,3.08,0,0,1,.73.22,3.73,3.73,0,0,1,.69.35,4.8,4.8,0,0,1,.59.49,5.45,5.45,0,0,1,.49.61,4.32,4.32,0,0,1,.36.67,5.94,5.94,0,0,1,.23.75,4.9,4.9,0,0,1,.08.77,3.94,3.94,0,0,1-1.16,2.77A3.89,3.89,0,0,1,104.89,118.05Z" transform="translate(-52.85 -19.93)"/><path class="cls-2" d="M244,152.37a3.94,3.94,0,0,1-2.77-1.14,4.76,4.76,0,0,1-.5-.61,4.27,4.27,0,0,1-.35-.67,4.69,4.69,0,0,1-.24-.75,4.9,4.9,0,0,1-.08-.77,4,4,0,0,1,1.17-2.77,4,4,0,0,1,5.56,0,4,4,0,0,1,1.14,2.77,3.3,3.3,0,0,1-.07.77,3.23,3.23,0,0,1-.22.75,4.32,4.32,0,0,1-.36.67,5.69,5.69,0,0,1-.49.61A4,4,0,0,1,244,152.37Z" transform="translate(-52.85 -19.93)"/><path class="cls-2" d="M81.25,217.7a10,10,0,1,1,10-10A10,10,0,0,1,81.25,217.7Zm0-18.06a8,8,0,1,0,8,8A8,8,0,0,0,81.25,199.64Z" transform="translate(-52.85 -19.93)"/><rect class="cls-2" x="27.41" y="173" width="1.99" height="5.7"/><path class="cls-2" d="M83.57,193.93H78.93a1,1,0,0,1,0-2h4.64a1,1,0,0,1,0,2Z" transform="translate(-52.85 -19.93)"/><rect class="cls-2" x="74.93" y="196.83" width="1.99" height="3.24" transform="translate(-141.9 44.62) rotate(-30)"/><path class="cls-2" d="M73.71,198.85a1,1,0,0,1-.5-1.86L76,195.37a1,1,0,1,1,1,1.72l-2.82,1.63A1,1,0,0,1,73.71,198.85Z" transform="translate(-52.85 -19.93)"/><rect class="cls-2" x="69.96" y="198.88" width="1.99" height="5.7" transform="translate(-192.07 142.38) rotate(-60)"/><path class="cls-2" d="M67.33,203.31a.93.93,0,0,1-.5-.14,1,1,0,0,1-.36-1.36l2.32-4a1,1,0,0,1,1.72,1l-2.32,4A1,1,0,0,1,67.33,203.31Z" transform="translate(-52.85 -19.93)"/><rect class="cls-2" x="16.13" y="186.74" width="3.24" height="1.99"/><path class="cls-2" d="M69,210.29a1,1,0,0,1-1-1v-3.25a1,1,0,1,1,2,0v3.25A1,1,0,0,1,69,210.29Z" transform="translate(-52.85 -19.93)"/><rect class="cls-2" x="68.11" y="212.62" width="5.7" height="1.99" transform="translate(-150.14 44.15) rotate(-29.99)"/><path class="cls-2" d="M69.65,218a1,1,0,0,1-.86-.5l-2.32-4a1,1,0,1,1,1.72-1l2.32,4a1,1,0,0,1-.86,1.49Z" transform="translate(-52.85 -19.93)"/><rect class="cls-2" x="74.3" y="215.9" width="3.24" height="1.99" transform="translate(-202.73 154.26) rotate(-60)"/><path class="cls-2" d="M76.52,220.11A1,1,0,0,1,76,220l-2.81-1.63a1,1,0,1,1,1-1.72L77,218.25a1,1,0,0,1-.5,1.86Z" transform="translate(-52.85 -19.93)"/><rect class="cls-2" x="27.41" y="196.77" width="1.99" height="5.7"/><path class="cls-2" d="M83.57,223.4H78.93a1,1,0,0,1,0-2h4.64a1,1,0,0,1,0,2Z" transform="translate(-52.85 -19.93)"/><rect class="cls-2" x="85.58" y="215.28" width="1.99" height="3.24" transform="translate(-149.69 52.41) rotate(-30)"/><path class="cls-2" d="M86,220.11a1,1,0,0,1-.5-1.86l2.82-1.62a1,1,0,1,1,1,1.72L86.48,220A1,1,0,0,1,86,220.11Z" transform="translate(-52.85 -19.93)"/><rect class="cls-2" x="90.55" y="210.76" width="1.99" height="5.7" transform="translate(-192.07 166.13) rotate(-60)"/><path class="cls-2" d="M92.85,218a1,1,0,0,1-.49-.13,1,1,0,0,1-.37-1.36l2.32-4a1,1,0,1,1,1.72,1l-2.31,4A1,1,0,0,1,92.85,218Z" transform="translate(-52.85 -19.93)"/><rect class="cls-2" x="37.43" y="186.74" width="3.24" height="1.99"/><path class="cls-2" d="M93.53,210.29a1,1,0,0,1-1-1v-3.25a1,1,0,1,1,2,0v3.25A1,1,0,0,1,93.53,210.29Z" transform="translate(-52.85 -19.93)"/><rect class="cls-2" x="88.69" y="200.74" width="5.7" height="1.99" transform="translate(-141.44 52.85) rotate(-29.99)"/><path class="cls-2" d="M95.17,203.31a1,1,0,0,1-.86-.5l-2.32-4a1,1,0,0,1,1.73-1l2.31,4a1,1,0,0,1-.36,1.36A.93.93,0,0,1,95.17,203.31Z" transform="translate(-52.85 -19.93)"/><rect class="cls-2" x="84.96" y="197.45" width="3.24" height="1.99" transform="translate(-181.42 154.26) rotate(-60)"/><path class="cls-2" d="M88.79,198.85a1,1,0,0,1-.49-.13l-2.82-1.63a1,1,0,0,1,1-1.72L89.29,197a1,1,0,0,1-.5,1.86Z" transform="translate(-52.85 -19.93)"/><path class="cls-2" d="M78.27,204.06a1,1,0,0,1-1-1,.62.62,0,0,1,0-.19,1.05,1.05,0,0,1,0-.19l.09-.17a.93.93,0,0,1,.13-.15,1,1,0,0,1,.9-.27l.18,0,.17.09a.64.64,0,0,1,.15.13.93.93,0,0,1,.13.15l.09.17.06.19a1.23,1.23,0,0,1,0,.19,1,1,0,0,1-.3.7A1,1,0,0,1,78.27,204.06Z" transform="translate(-52.85 -19.93)"/><path class="cls-2" d="M86,205.91a1,1,0,0,1-.7-.29.64.64,0,0,1-.13-.15l-.09-.17-.06-.19a1.21,1.21,0,0,1,0-.19.68.68,0,0,1,0-.2,1.21,1.21,0,0,1,0-.18l.09-.17a1.39,1.39,0,0,1,.28-.28.91.91,0,0,1,.17-.09l.18-.06a1,1,0,0,1,.9.28,1,1,0,0,1,.3.7,1.23,1.23,0,0,1,0,.19l-.06.19-.09.17a.64.64,0,0,1-.13.15A1,1,0,0,1,86,205.91Z" transform="translate(-52.85 -19.93)"/><path class="cls-2" d="M82.47,209a1,1,0,0,1-.38-.08.87.87,0,0,1-.32-.22,1,1,0,0,1-.29-.7.62.62,0,0,1,0-.19,1.05,1.05,0,0,1,0-.19,1,1,0,0,1,.1-.17.44.44,0,0,1,.12-.15,1,1,0,0,1,1.41,0,.61.61,0,0,1,.12.15.91.91,0,0,1,.09.17,1.06,1.06,0,0,1,.06.19,1.23,1.23,0,0,1,0,.19,1,1,0,0,1-1,1Z" transform="translate(-52.85 -19.93)"/><path class="cls-2" d="M76.43,209.32a1,1,0,0,1-.39-.08,1,1,0,0,1-.32-.21l-.13-.15-.09-.18a1.21,1.21,0,0,1,0-.18.68.68,0,0,1,0-.2.62.62,0,0,1,0-.19,1.05,1.05,0,0,1,0-.19l.1-.17a.79.79,0,0,1,.12-.15,1,1,0,0,1,1.41,0,.79.79,0,0,1,.12.15l.1.17a1.05,1.05,0,0,1,.05.19.62.62,0,0,1,0,.19.68.68,0,0,1,0,.2,1.21,1.21,0,0,1-.05.18l-.09.18-.13.15-.15.12a1.08,1.08,0,0,1-.36.15Z" transform="translate(-52.85 -19.93)"/><path class="cls-2" d="M79.84,214.41a1,1,0,0,1-.7-.29,1,1,0,0,1-.3-.71,1,1,0,0,1,1.19-1,.6.6,0,0,1,.19.06l.17.08.16.13a1,1,0,0,1,.29.7,1,1,0,0,1-.08.38,1.15,1.15,0,0,1-.21.33A1,1,0,0,1,79.84,214.41Z" transform="translate(-52.85 -19.93)"/><path class="cls-2" d="M85.41,211.85a1,1,0,0,1-.38-.08.87.87,0,0,1-.32-.22.93.93,0,0,1-.13-.15.91.91,0,0,1-.09-.17,1.27,1.27,0,0,1-.06-.18,1.36,1.36,0,0,1,0-.2,1,1,0,0,1,.3-.7,1,1,0,0,1,1.41,0,1,1,0,0,1-.71,1.7Z" transform="translate(-52.85 -19.93)"/><path class="cls-2" d="M221.43,200.76a19.26,19.26,0,1,1,19.26-19.26A19.28,19.28,0,0,1,221.43,200.76Zm0-34.69a15.43,15.43,0,1,0,15.44,15.43A15.45,15.45,0,0,0,221.43,166.07Z" transform="translate(-52.85 -19.93)"/><rect class="cls-2" x="209.3" y="160.68" width="3.82" height="6.22" transform="translate(-106.44 107.6) rotate(-30)"/><path class="cls-2" d="M207,164.56A1.91,1.91,0,0,1,206,161l5.4-3.12a1.91,1.91,0,1,1,1.91,3.31l-5.4,3.12A1.94,1.94,0,0,1,207,164.56Z" transform="translate(-52.85 -19.93)"/><rect class="cls-2" x="145.02" y="159.66" width="6.22" height="3.82"/><path class="cls-2" d="M197.87,186.53a1.9,1.9,0,0,1-1.91-1.91v-6.24a1.91,1.91,0,0,1,3.82,0v6.24A1.91,1.91,0,0,1,197.87,186.53Z" transform="translate(-52.85 -19.93)"/><rect class="cls-2" x="208.1" y="197.31" width="6.22" height="3.82" transform="matrix(0.5, -0.87, 0.87, 0.5, -119.77, 262.58)"/><path class="cls-2" d="M212.35,205.38a1.93,1.93,0,0,1-.95-.25L206,202a1.91,1.91,0,0,1,1.91-3.31l5.4,3.12a1.91,1.91,0,0,1-1,3.56Z" transform="translate(-52.85 -19.93)"/><rect class="cls-2" x="229.75" y="196.1" width="3.82" height="6.22" transform="translate(-121.42 122.59) rotate(-30)"/><path class="cls-2" d="M230.52,205.38a1.91,1.91,0,0,1-1-3.56l5.4-3.12a1.91,1.91,0,1,1,1.91,3.31l-5.4,3.12A1.93,1.93,0,0,1,230.52,205.38Z" transform="translate(-52.85 -19.93)"/><rect class="cls-2" x="185.93" y="159.66" width="6.22" height="3.82"/><path class="cls-2" d="M245,186.53a1.91,1.91,0,0,1-1.91-1.91v-6.24a1.91,1.91,0,0,1,3.82,0v6.24A1.9,1.9,0,0,1,245,186.53Z" transform="translate(-52.85 -19.93)"/><rect class="cls-2" x="228.55" y="161.88" width="6.22" height="3.82" transform="translate(-78.87 262.58) rotate(-60)"/><path class="cls-2" d="M235.92,164.56a1.94,1.94,0,0,1-1-.25l-5.4-3.12a1.91,1.91,0,0,1,1.91-3.31l5.4,3.12a1.91,1.91,0,0,1-1,3.56Z" transform="translate(-52.85 -19.93)"/><path class="cls-2" d="M217.83,177.44a1.93,1.93,0,0,1-1.35-.57,1.88,1.88,0,0,1-.56-1.35,2.33,2.33,0,0,1,0-.37,2.15,2.15,0,0,1,.11-.36,3.41,3.41,0,0,1,.17-.33,3.36,3.36,0,0,1,.24-.29,2,2,0,0,1,2.71,0,3.25,3.25,0,0,1,.23.29,2.11,2.11,0,0,1,.18.33,1.48,1.48,0,0,1,.1.36,1.55,1.55,0,0,1,0,.37,1.91,1.91,0,0,1-.55,1.35,1.66,1.66,0,0,1-.3.24,1.45,1.45,0,0,1-.32.18,1.58,1.58,0,0,1-.37.11A1.45,1.45,0,0,1,217.83,177.44Z" transform="translate(-52.85 -19.93)"/><path class="cls-2" d="M230.59,178.12a1.93,1.93,0,0,1-1.35-.55,3.5,3.5,0,0,1-.24-.3,2.43,2.43,0,0,1-.18-.32,1.61,1.61,0,0,1-.1-.36,2.21,2.21,0,0,1,0-.37,2.33,2.33,0,0,1,0-.38,1.42,1.42,0,0,1,.11-.35,3.59,3.59,0,0,1,.17-.34,3.36,3.36,0,0,1,.24-.29,1.63,1.63,0,0,1,.29-.23,2.11,2.11,0,0,1,.33-.18l.36-.11a1.84,1.84,0,0,1,.74,0l.37.11a2,2,0,0,1,.32.18,2.17,2.17,0,0,1,.3.23l.24.29a3.59,3.59,0,0,1,.17.34,1.4,1.4,0,0,1,.1.35,1.58,1.58,0,0,1,0,.38,1.5,1.5,0,0,1,0,.37,1.61,1.61,0,0,1-.1.36,2.4,2.4,0,0,1-.17.32,3.5,3.5,0,0,1-.24.3A2,2,0,0,1,230.59,178.12Z" transform="translate(-52.85 -19.93)"/><path class="cls-2" d="M227,190.37a1.61,1.61,0,0,1-.37,0,1.42,1.42,0,0,1-.35-.11A1.59,1.59,0,0,1,226,190a1.27,1.27,0,0,1-.28-.24,1,1,0,0,1-.24-.29,1.14,1.14,0,0,1-.18-.32,2.15,2.15,0,0,1-.11-.36,1.78,1.78,0,0,1,0-.75,2.06,2.06,0,0,1,.12-.35,1.35,1.35,0,0,1,.17-.34,1.27,1.27,0,0,1,.24-.28,1.05,1.05,0,0,1,.28-.24,1.59,1.59,0,0,1,.34-.18,1.42,1.42,0,0,1,.35-.11,1.89,1.89,0,0,1,.75,0,1.65,1.65,0,0,1,.36.11,1.45,1.45,0,0,1,.32.18,1.13,1.13,0,0,1,.3.24,2.2,2.2,0,0,1,.24.28,1.8,1.8,0,0,1,.17.34,1.42,1.42,0,0,1,.11.35,1.61,1.61,0,0,1,0,.37,1.64,1.64,0,0,1,0,.38,1.5,1.5,0,0,1-.11.36,2,2,0,0,1-.17.32,1.76,1.76,0,0,1-.24.29A1.91,1.91,0,0,1,227,190.37Z" transform="translate(-52.85 -19.93)"/><path class="cls-2" d="M215.44,187.52a1.91,1.91,0,0,1-1.91-1.91,1.88,1.88,0,0,1,.56-1.35,1.93,1.93,0,0,1,1.72-.53,2.59,2.59,0,0,1,.37.11,2,2,0,0,1,.32.18,2.25,2.25,0,0,1,.3.24,1.93,1.93,0,0,1,0,2.7,2.25,2.25,0,0,1-.3.24,1.41,1.41,0,0,1-.32.17,1.58,1.58,0,0,1-.37.11A1.45,1.45,0,0,1,215.44,187.52Z" transform="translate(-52.85 -19.93)"/><rect class="cls-2" x="209.3" y="160.68" width="3.82" height="6.22" transform="translate(-106.44 107.6) rotate(-30)"/><path class="cls-2" d="M207,164.56A1.91,1.91,0,0,1,206,161l5.4-3.12a1.91,1.91,0,1,1,1.91,3.31l-5.4,3.12A1.94,1.94,0,0,1,207,164.56Z" transform="translate(-52.85 -19.93)"/><rect class="cls-2" x="145.02" y="159.66" width="6.22" height="3.82"/><path class="cls-2" d="M197.87,186.53a1.9,1.9,0,0,1-1.91-1.91v-6.24a1.91,1.91,0,0,1,3.82,0v6.24A1.91,1.91,0,0,1,197.87,186.53Z" transform="translate(-52.85 -19.93)"/><rect class="cls-2" x="208.1" y="197.31" width="6.22" height="3.82" transform="matrix(0.5, -0.87, 0.87, 0.5, -119.77, 262.58)"/><path class="cls-2" d="M212.35,205.38a1.93,1.93,0,0,1-.95-.25L206,202a1.91,1.91,0,0,1,1.91-3.31l5.4,3.12a1.91,1.91,0,0,1-1,3.56Z" transform="translate(-52.85 -19.93)"/><rect class="cls-2" x="229.75" y="196.1" width="3.82" height="6.22" transform="translate(-121.42 122.59) rotate(-30)"/><path class="cls-2" d="M230.52,205.38a1.91,1.91,0,0,1-1-3.56l5.4-3.12a1.91,1.91,0,1,1,1.91,3.31l-5.4,3.12A1.93,1.93,0,0,1,230.52,205.38Z" transform="translate(-52.85 -19.93)"/><rect class="cls-2" x="185.93" y="159.66" width="6.22" height="3.82"/><path class="cls-2" d="M245,186.53a1.91,1.91,0,0,1-1.91-1.91v-6.24a1.91,1.91,0,0,1,3.82,0v6.24A1.9,1.9,0,0,1,245,186.53Z" transform="translate(-52.85 -19.93)"/><rect class="cls-2" x="228.55" y="161.88" width="6.22" height="3.82" transform="translate(-78.87 262.58) rotate(-60)"/><path class="cls-2" d="M235.92,164.56a1.94,1.94,0,0,1-1-.25l-5.4-3.12a1.91,1.91,0,0,1,1.91-3.31l5.4,3.12a1.91,1.91,0,0,1-1,3.56Z" transform="translate(-52.85 -19.93)"/><rect class="cls-2" x="200.61" y="189.82" width="6.22" height="3.82" transform="translate(-121.41 107.59) rotate(-29.99)"/><path class="cls-2" d="M202.59,197.9a1.9,1.9,0,0,1-1.66-1l-3.12-5.4a1.91,1.91,0,1,1,3.31-1.91l3.12,5.4a1.91,1.91,0,0,1-.7,2.61A1.84,1.84,0,0,1,202.59,197.9Z" transform="translate(-52.85 -19.93)"/><rect class="cls-2" x="166.67" y="178.91" width="3.82" height="6.22"/><path class="cls-2" d="M224.55,207h-6.23a1.91,1.91,0,1,1,0-3.82h6.23a1.91,1.91,0,0,1,0,3.82Z" transform="translate(-52.85 -19.93)"/><rect class="cls-2" x="237.24" y="188.62" width="3.82" height="6.22" transform="translate(-99.32 283.03) rotate(-60)"/><path class="cls-2" d="M240.28,197.9a1.84,1.84,0,0,1-.95-.26,1.9,1.9,0,0,1-.7-2.61l3.12-5.4a1.91,1.91,0,0,1,3.31,1.91l-3.12,5.4A1.9,1.9,0,0,1,240.28,197.9Z" transform="translate(-52.85 -19.93)"/><rect class="cls-2" x="236.04" y="169.36" width="6.22" height="3.82" transform="translate(-106.44 122.56) rotate(-29.99)"/><path class="cls-2" d="M243.4,174.33a1.9,1.9,0,0,1-1.65-1L238.63,168a1.91,1.91,0,1,1,3.31-1.91l3.12,5.4a1.91,1.91,0,0,1-1.66,2.87Z" transform="translate(-52.85 -19.93)"/><rect class="cls-2" x="166.67" y="138" width="3.82" height="6.22"/><path class="cls-2" d="M224.55,159.85h-6.23a1.92,1.92,0,1,1,0-3.83h6.23a1.92,1.92,0,0,1,0,3.83Z" transform="translate(-52.85 -19.93)"/><rect class="cls-2" x="201.81" y="168.16" width="3.82" height="6.22" transform="translate(-99.31 242.15) rotate(-60)"/><path class="cls-2" d="M199.46,174.33a1.91,1.91,0,0,1-1.65-2.87l3.12-5.4a1.91,1.91,0,0,1,3.31,1.91l-3.12,5.41A1.9,1.9,0,0,1,199.46,174.33Z" transform="translate(-52.85 -19.93)"/><rect class="cls-2" x="200.61" y="189.82" width="6.22" height="3.82" transform="translate(-121.41 107.59) rotate(-29.99)"/><path class="cls-2" d="M202.59,197.9a1.9,1.9,0,0,1-1.66-1l-3.12-5.4a1.91,1.91,0,1,1,3.31-1.91l3.12,5.4a1.91,1.91,0,0,1-.7,2.61A1.84,1.84,0,0,1,202.59,197.9Z" transform="translate(-52.85 -19.93)"/><rect class="cls-2" x="166.67" y="178.91" width="3.82" height="6.22"/><path class="cls-2" d="M224.55,207h-6.23a1.91,1.91,0,1,1,0-3.82h6.23a1.91,1.91,0,0,1,0,3.82Z" transform="translate(-52.85 -19.93)"/><rect class="cls-2" x="237.24" y="188.62" width="3.82" height="6.22" transform="translate(-99.32 283.03) rotate(-60)"/><path class="cls-2" d="M240.28,197.9a1.84,1.84,0,0,1-.95-.26,1.9,1.9,0,0,1-.7-2.61l3.12-5.4a1.91,1.91,0,0,1,3.31,1.91l-3.12,5.4A1.9,1.9,0,0,1,240.28,197.9Z" transform="translate(-52.85 -19.93)"/><rect class="cls-2" x="236.04" y="169.36" width="6.22" height="3.82" transform="translate(-106.44 122.56) rotate(-29.99)"/><path class="cls-2" d="M243.4,174.33a1.9,1.9,0,0,1-1.65-1L238.63,168a1.91,1.91,0,1,1,3.31-1.91l3.12,5.4a1.91,1.91,0,0,1-1.66,2.87Z" transform="translate(-52.85 -19.93)"/><rect class="cls-2" x="166.67" y="138" width="3.82" height="6.22"/><path class="cls-2" d="M224.55,159.85h-6.23a1.92,1.92,0,1,1,0-3.83h6.23a1.92,1.92,0,0,1,0,3.83Z" transform="translate(-52.85 -19.93)"/><rect class="cls-2" x="201.81" y="168.16" width="3.82" height="6.22" transform="translate(-99.31 242.15) rotate(-60)"/><path class="cls-2" d="M199.46,174.33a1.91,1.91,0,0,1-1.65-2.87l3.12-5.4a1.91,1.91,0,0,1,3.31,1.91l-3.12,5.41A1.9,1.9,0,0,1,199.46,174.33Z" transform="translate(-52.85 -19.93)"/><path class="cls-2" d="M217.83,177.44a1.93,1.93,0,0,1-1.35-.57,1.88,1.88,0,0,1-.56-1.35,2.33,2.33,0,0,1,0-.37,2.15,2.15,0,0,1,.11-.36,3.41,3.41,0,0,1,.17-.33,3.36,3.36,0,0,1,.24-.29,2,2,0,0,1,2.71,0,3.25,3.25,0,0,1,.23.29,2.11,2.11,0,0,1,.18.33,1.48,1.48,0,0,1,.1.36,1.55,1.55,0,0,1,0,.37,1.91,1.91,0,0,1-.55,1.35,1.66,1.66,0,0,1-.3.24,1.45,1.45,0,0,1-.32.18,1.58,1.58,0,0,1-.37.11A1.45,1.45,0,0,1,217.83,177.44Z" transform="translate(-52.85 -19.93)"/><path class="cls-2" d="M230.59,178.12a1.93,1.93,0,0,1-1.35-.55,3.5,3.5,0,0,1-.24-.3,2.43,2.43,0,0,1-.18-.32,1.61,1.61,0,0,1-.1-.36,2.21,2.21,0,0,1,0-.37,2.33,2.33,0,0,1,0-.38,1.42,1.42,0,0,1,.11-.35,3.59,3.59,0,0,1,.17-.34,3.36,3.36,0,0,1,.24-.29,1.63,1.63,0,0,1,.29-.23,2.11,2.11,0,0,1,.33-.18l.36-.11a1.84,1.84,0,0,1,.74,0l.37.11a2,2,0,0,1,.32.18,2.17,2.17,0,0,1,.3.23l.24.29a3.59,3.59,0,0,1,.17.34,1.4,1.4,0,0,1,.1.35,1.58,1.58,0,0,1,0,.38,1.5,1.5,0,0,1,0,.37,1.61,1.61,0,0,1-.1.36,2.4,2.4,0,0,1-.17.32,3.5,3.5,0,0,1-.24.3A2,2,0,0,1,230.59,178.12Z" transform="translate(-52.85 -19.93)"/><path class="cls-2" d="M227,190.37a1.61,1.61,0,0,1-.37,0,1.42,1.42,0,0,1-.35-.11A1.59,1.59,0,0,1,226,190a1.27,1.27,0,0,1-.28-.24,1,1,0,0,1-.24-.29,1.14,1.14,0,0,1-.18-.32,2.15,2.15,0,0,1-.11-.36,1.78,1.78,0,0,1,0-.75,2.06,2.06,0,0,1,.12-.35,1.35,1.35,0,0,1,.17-.34,1.27,1.27,0,0,1,.24-.28,1.05,1.05,0,0,1,.28-.24,1.59,1.59,0,0,1,.34-.18,1.42,1.42,0,0,1,.35-.11,1.89,1.89,0,0,1,.75,0,1.65,1.65,0,0,1,.36.11,1.45,1.45,0,0,1,.32.18,1.13,1.13,0,0,1,.3.24,2.2,2.2,0,0,1,.24.28,1.8,1.8,0,0,1,.17.34,1.42,1.42,0,0,1,.11.35,1.61,1.61,0,0,1,0,.37,1.64,1.64,0,0,1,0,.38,1.5,1.5,0,0,1-.11.36,2,2,0,0,1-.17.32,1.76,1.76,0,0,1-.24.29A1.91,1.91,0,0,1,227,190.37Z" transform="translate(-52.85 -19.93)"/><path class="cls-2" d="M215.44,187.52a1.91,1.91,0,0,1-1.91-1.91,1.88,1.88,0,0,1,.56-1.35,1.93,1.93,0,0,1,1.72-.53,2.59,2.59,0,0,1,.37.11,2,2,0,0,1,.32.18,2.25,2.25,0,0,1,.3.24,1.93,1.93,0,0,1,0,2.7,2.25,2.25,0,0,1-.3.24,1.41,1.41,0,0,1-.32.17,1.58,1.58,0,0,1-.37.11A1.45,1.45,0,0,1,215.44,187.52Z" transform="translate(-52.85 -19.93)"/><path class="cls-2" d="M216.44,126.93a10,10,0,1,1,10-10A10,10,0,0,1,216.44,126.93Zm0-18.07a8,8,0,1,0,8,8A8.05,8.05,0,0,0,216.44,108.86Z" transform="translate(-52.85 -19.93)"/><rect class="cls-2" x="162.6" y="82.23" width="1.99" height="5.7"/><path class="cls-2" d="M218.75,103.16h-4.63a1,1,0,0,1,0-2h4.63a1,1,0,1,1,0,2Z" transform="translate(-52.85 -19.93)"/><rect class="cls-2" x="210.12" y="106.05" width="1.99" height="3.24" transform="translate(-78.4 100.05) rotate(-30)"/><path class="cls-2" d="M208.9,108.08a1,1,0,0,1-.5-1.86l2.81-1.62a1,1,0,1,1,1,1.72L209.39,108A1,1,0,0,1,208.9,108.08Z" transform="translate(-52.85 -19.93)"/><rect class="cls-2" x="205.15" y="108.11" width="1.99" height="5.7" transform="translate(-45.87 214.07) rotate(-60)"/><path class="cls-2" d="M202.52,112.54a1,1,0,0,1-.5-.14,1,1,0,0,1-.36-1.36l2.31-4a1,1,0,0,1,1.73,1l-2.32,4A1,1,0,0,1,202.52,112.54Z" transform="translate(-52.85 -19.93)"/><rect class="cls-2" x="151.32" y="95.97" width="3.24" height="1.99"/><path class="cls-2" d="M204.16,119.52a1,1,0,0,1-1-1v-3.25a1,1,0,1,1,2,0v3.25A1,1,0,0,1,204.16,119.52Z" transform="translate(-52.85 -19.93)"/><rect class="cls-2" x="203.3" y="121.85" width="5.7" height="1.99" transform="translate(-86.65 99.58) rotate(-29.99)"/><path class="cls-2" d="M204.84,127.27a1,1,0,0,1-.87-.5l-2.31-4a1,1,0,1,1,1.72-1l2.32,4a1,1,0,0,1-.37,1.36A1,1,0,0,1,204.84,127.27Z" transform="translate(-52.85 -19.93)"/><rect class="cls-2" x="209.49" y="125.13" width="3.24" height="1.99" transform="translate(-56.53 225.95) rotate(-60)"/><path class="cls-2" d="M211.71,129.34a1,1,0,0,1-.5-.13l-2.81-1.63a1,1,0,1,1,1-1.72l2.82,1.62a1,1,0,0,1,.36,1.36A1,1,0,0,1,211.71,129.34Z" transform="translate(-52.85 -19.93)"/><rect class="cls-2" x="162.6" y="106" width="1.99" height="5.7"/><path class="cls-2" d="M218.75,132.63h-4.63a1,1,0,0,1,0-2h4.63a1,1,0,1,1,0,2Z" transform="translate(-52.85 -19.93)"/><rect class="cls-2" x="220.77" y="124.51" width="1.99" height="3.24" transform="translate(-86.2 107.84) rotate(-30)"/><path class="cls-2" d="M221.17,129.34a1,1,0,0,1-.5-1.86l2.81-1.62a1,1,0,0,1,1,1.72l-2.81,1.63A1,1,0,0,1,221.17,129.34Z" transform="translate(-52.85 -19.93)"/><rect class="cls-2" x="225.73" y="119.99" width="1.99" height="5.7" transform="translate(-45.88 237.83) rotate(-60)"/><path class="cls-2" d="M228,127.27a1,1,0,0,1-.5-.13,1,1,0,0,1-.36-1.36l2.32-4a1,1,0,1,1,1.72,1l-2.32,4A1,1,0,0,1,228,127.27Z" transform="translate(-52.85 -19.93)"/><rect class="cls-2" x="172.62" y="95.97" width="3.24" height="1.99"/><path class="cls-2" d="M228.71,119.52a1,1,0,0,1-1-1v-3.25a1,1,0,1,1,2,0v3.25A1,1,0,0,1,228.71,119.52Z" transform="translate(-52.85 -19.93)"/><rect class="cls-2" x="223.88" y="109.96" width="5.7" height="1.99" transform="translate(-77.95 108.27) rotate(-29.99)"/><path class="cls-2" d="M230.36,112.54a1,1,0,0,1-.86-.5l-2.32-4a1,1,0,1,1,1.72-1l2.32,4a1,1,0,0,1-.36,1.36A1,1,0,0,1,230.36,112.54Z" transform="translate(-52.85 -19.93)"/><rect class="cls-2" x="220.14" y="106.68" width="3.24" height="1.99" transform="translate(-35.22 225.95) rotate(-60)"/><path class="cls-2" d="M224,108.08a1,1,0,0,1-.5-.13l-2.81-1.63a1,1,0,0,1,1-1.72l2.81,1.62a1,1,0,0,1-.5,1.86Z" transform="translate(-52.85 -19.93)"/><path class="cls-2" d="M213.46,113.29a1,1,0,0,1-.71-.3,1,1,0,0,1-.28-.7.62.62,0,0,1,0-.19,1.05,1.05,0,0,1,0-.19.56.56,0,0,1,.09-.17l.12-.16a1,1,0,0,1,.9-.27.7.7,0,0,1,.19.06.56.56,0,0,1,.17.09l.15.12a1,1,0,0,1,.13.16l.09.17.06.19a1.23,1.23,0,0,1,0,.19,1,1,0,0,1-1,1Z" transform="translate(-52.85 -19.93)"/><path class="cls-2" d="M221.21,115.14a1,1,0,0,1-.71-.29,1.58,1.58,0,0,1-.12-.15,1.4,1.4,0,0,1-.09-.17l-.06-.19a1.21,1.21,0,0,1,0-.19.68.68,0,0,1,0-.2,1.21,1.21,0,0,1,0-.18,1,1,0,0,1,.09-.18.81.81,0,0,1,.12-.14l.15-.13a1.51,1.51,0,0,1,.18-.09,1.27,1.27,0,0,1,.18-.06,1,1,0,0,1,.9.28,1,1,0,0,1,.3.7,1.23,1.23,0,0,1,0,.19l-.06.19-.09.17-.13.15A1,1,0,0,1,221.21,115.14Z" transform="translate(-52.85 -19.93)"/><path class="cls-2" d="M217.66,118.2a1,1,0,0,1-.38-.07,1,1,0,0,1-.32-.22,1,1,0,0,1-.29-.7.68.68,0,0,1,0-.2,1.21,1.21,0,0,1,.05-.18,1,1,0,0,1,.1-.17.44.44,0,0,1,.12-.15,1,1,0,0,1,1.4,0,.64.64,0,0,1,.13.15.91.91,0,0,1,.09.17,1.27,1.27,0,0,1,.06.18,1.36,1.36,0,0,1,0,.2,1,1,0,0,1-1,1Z" transform="translate(-52.85 -19.93)"/><path class="cls-2" d="M211.61,118.55a1,1,0,0,1-.38-.08.87.87,0,0,1-.32-.22.64.64,0,0,1-.13-.15l-.09-.17a1.21,1.21,0,0,1-.05-.18.68.68,0,0,1,0-.2.62.62,0,0,1,0-.19,1.05,1.05,0,0,1,.05-.19,1,1,0,0,1,.1-.17.61.61,0,0,1,.12-.16,1.06,1.06,0,0,1,1.41,0,.61.61,0,0,1,.12.16,1,1,0,0,1,.1.17c0,.06,0,.12.05.19a1.23,1.23,0,0,1,0,.19,1.36,1.36,0,0,1,0,.2,1.21,1.21,0,0,1-.05.18l-.09.17a.64.64,0,0,1-.13.15l-.15.13a1.08,1.08,0,0,1-.36.15Z" transform="translate(-52.85 -19.93)"/><path class="cls-2" d="M215,123.64a1,1,0,0,1-.92-.62,1,1,0,0,1-.08-.38,1,1,0,0,1,1.19-1l.19.06.17.09.16.13a1,1,0,0,1,.28.7,1,1,0,0,1-.07.38,1.15,1.15,0,0,1-.21.33A1,1,0,0,1,215,123.64Z" transform="translate(-52.85 -19.93)"/><path class="cls-2" d="M220.6,121.08a1,1,0,0,1-.38-.08.87.87,0,0,1-.32-.22.93.93,0,0,1-.13-.15.91.91,0,0,1-.09-.17,1.06,1.06,0,0,1-.06-.19,1.23,1.23,0,0,1,0-.2,1,1,0,0,1,.3-.7,1.06,1.06,0,0,1,1.41,0,1,1,0,0,1,.28.7,1,1,0,0,1-.28.71A1,1,0,0,1,220.6,121.08Z" transform="translate(-52.85 -19.93)"/><path class="cls-2" d="M91.92,177.71a19.25,19.25,0,1,1,19.25-19.25A19.27,19.27,0,0,1,91.92,177.71Zm0-34.68a15.43,15.43,0,1,0,15.43,15.43A15.45,15.45,0,0,0,91.92,143Z" transform="translate(-52.85 -19.93)"/><rect class="cls-2" x="79.78" y="137.63" width="3.82" height="6.22" transform="translate(-112.27 39.76) rotate(-30)"/><path class="cls-2" d="M77.44,141.52a1.91,1.91,0,0,1-1-3.57l5.4-3.11a1.91,1.91,0,0,1,1.91,3.31l-5.4,3.12A1.93,1.93,0,0,1,77.44,141.52Z" transform="translate(-52.85 -19.93)"/><rect class="cls-2" x="15.5" y="136.61" width="6.22" height="3.82"/><path class="cls-2" d="M68.35,163.49a1.92,1.92,0,0,1-1.91-1.91v-6.24a1.91,1.91,0,0,1,3.82,0v6.24A1.91,1.91,0,0,1,68.35,163.49Z" transform="translate(-52.85 -19.93)"/><rect class="cls-2" x="78.58" y="174.26" width="6.22" height="3.82" transform="matrix(0.5, -0.87, 0.87, 0.5, -164.57, 138.89)"/><path class="cls-2" d="M82.83,182.34a1.84,1.84,0,0,1-1-.26L76.48,179a1.92,1.92,0,0,1,1.91-3.32l5.4,3.12a1.91,1.91,0,0,1-1,3.57Z" transform="translate(-52.85 -19.93)"/><rect class="cls-2" x="100.23" y="173.06" width="3.82" height="6.22" transform="translate(-127.25 54.75) rotate(-30)"/><path class="cls-2" d="M101,182.34a1.89,1.89,0,0,1-1.65-1,1.9,1.9,0,0,1,.7-2.61l5.4-3.12a1.92,1.92,0,0,1,1.91,3.32l-5.4,3.11A1.85,1.85,0,0,1,101,182.34Z" transform="translate(-52.85 -19.93)"/><rect class="cls-2" x="56.41" y="136.61" width="6.22" height="3.82"/><path class="cls-2" d="M115.49,163.49a1.92,1.92,0,0,1-1.92-1.91v-6.24a1.92,1.92,0,0,1,3.83,0v6.24A1.92,1.92,0,0,1,115.49,163.49Z" transform="translate(-52.85 -19.93)"/><rect class="cls-2" x="99.03" y="138.83" width="6.22" height="3.82" transform="translate(-123.67 138.89) rotate(-60)"/><path class="cls-2" d="M106.4,141.52a1.93,1.93,0,0,1-1-.25l-5.4-3.12a1.91,1.91,0,0,1,1.91-3.31l5.4,3.11a1.91,1.91,0,0,1-1,3.57Z" transform="translate(-52.85 -19.93)"/><path class="cls-2" d="M88.32,154.39a1.9,1.9,0,0,1-1.35-.56,1.87,1.87,0,0,1-.57-1.35,2.21,2.21,0,0,1,0-.37,2.29,2.29,0,0,1,.12-.37,1.66,1.66,0,0,1,.17-.32,2.25,2.25,0,0,1,.24-.3,2,2,0,0,1,2.7,0,2.17,2.17,0,0,1,.23.3,1.29,1.29,0,0,1,.18.32,1.58,1.58,0,0,1,.11.37,1.5,1.5,0,0,1,0,.37,1.9,1.9,0,0,1-.56,1.35,2.17,2.17,0,0,1-.29.24,2.11,2.11,0,0,1-.33.18,1.48,1.48,0,0,1-.36.1A1.55,1.55,0,0,1,88.32,154.39Z" transform="translate(-52.85 -19.93)"/><path class="cls-2" d="M101.07,155.08a1.91,1.91,0,0,1-1.34-.55,2.1,2.1,0,0,1-.24-.3,1.32,1.32,0,0,1-.18-.33,2,2,0,0,1-.11-.35,2.33,2.33,0,0,1,0-.37,2.22,2.22,0,0,1,0-.38c0-.12.07-.24.11-.36a2.11,2.11,0,0,1,.18-.33,1.32,1.32,0,0,1,.24-.29,2.2,2.2,0,0,1,.28-.24,2.16,2.16,0,0,1,.34-.17,1.42,1.42,0,0,1,.35-.11,1.89,1.89,0,0,1,.75,0,1.65,1.65,0,0,1,.36.11,2,2,0,0,1,.32.17,3.5,3.5,0,0,1,.3.24,2.31,2.31,0,0,1,.24.29,2.06,2.06,0,0,1,.17.33,1.65,1.65,0,0,1,.11.36,2.36,2.36,0,0,1,0,.75,1.42,1.42,0,0,1-.11.35,1.71,1.71,0,0,1-.17.33,3.15,3.15,0,0,1-.24.3A1.94,1.94,0,0,1,101.07,155.08Z" transform="translate(-52.85 -19.93)"/><path class="cls-2" d="M97.53,167.32a1.5,1.5,0,0,1-.37,0,1.48,1.48,0,0,1-.36-.1,2.11,2.11,0,0,1-.33-.18,1.68,1.68,0,0,1-.29-.24,1.32,1.32,0,0,1-.24-.29,1.45,1.45,0,0,1-.18-.32,2.26,2.26,0,0,1-.11-.37c0-.12,0-.24,0-.37s0-.25,0-.37a2.17,2.17,0,0,1,.12-.36,1.71,1.71,0,0,1,.17-.33,2,2,0,0,1,.53-.53l.33-.18a2.12,2.12,0,0,1,.36-.1,1.84,1.84,0,0,1,.74,0,2.12,2.12,0,0,1,.36.1,3.47,3.47,0,0,1,.33.18,2.17,2.17,0,0,1,.29.24,1.68,1.68,0,0,1,.24.29,1.74,1.74,0,0,1,.18.33,2.12,2.12,0,0,1,.1.36,1.55,1.55,0,0,1,0,.37,1.5,1.5,0,0,1,0,.37,2.24,2.24,0,0,1-.1.37,2,2,0,0,1-.18.32,1.68,1.68,0,0,1-.24.29A1.9,1.9,0,0,1,97.53,167.32Z" transform="translate(-52.85 -19.93)"/><path class="cls-2" d="M85.93,164.47A1.91,1.91,0,0,1,84,162.56a1.89,1.89,0,0,1,.57-1.34,1.93,1.93,0,0,1,1.72-.53l.36.1A2.17,2.17,0,0,1,87,161a1.61,1.61,0,0,1,.29.24,1.91,1.91,0,0,1,0,2.7,3.36,3.36,0,0,1-.29.24,2.06,2.06,0,0,1-.33.17,1.5,1.5,0,0,1-.36.11A1.54,1.54,0,0,1,85.93,164.47Z" transform="translate(-52.85 -19.93)"/><rect class="cls-2" x="79.78" y="137.63" width="3.82" height="6.22" transform="translate(-112.27 39.76) rotate(-30)"/><path class="cls-2" d="M77.44,141.52a1.91,1.91,0,0,1-1-3.57l5.4-3.11a1.91,1.91,0,0,1,1.91,3.31l-5.4,3.12A1.93,1.93,0,0,1,77.44,141.52Z" transform="translate(-52.85 -19.93)"/><rect class="cls-2" x="15.5" y="136.61" width="6.22" height="3.82"/><path class="cls-2" d="M68.35,163.49a1.92,1.92,0,0,1-1.91-1.91v-6.24a1.91,1.91,0,0,1,3.82,0v6.24A1.91,1.91,0,0,1,68.35,163.49Z" transform="translate(-52.85 -19.93)"/><rect class="cls-2" x="78.58" y="174.26" width="6.22" height="3.82" transform="matrix(0.5, -0.87, 0.87, 0.5, -164.57, 138.89)"/><path class="cls-2" d="M82.83,182.34a1.84,1.84,0,0,1-1-.26L76.48,179a1.92,1.92,0,0,1,1.91-3.32l5.4,3.12a1.91,1.91,0,0,1-1,3.57Z" transform="translate(-52.85 -19.93)"/><rect class="cls-2" x="100.23" y="173.06" width="3.82" height="6.22" transform="translate(-127.25 54.75) rotate(-30)"/><path class="cls-2" d="M101,182.34a1.89,1.89,0,0,1-1.65-1,1.9,1.9,0,0,1,.7-2.61l5.4-3.12a1.92,1.92,0,0,1,1.91,3.32l-5.4,3.11A1.85,1.85,0,0,1,101,182.34Z" transform="translate(-52.85 -19.93)"/><rect class="cls-2" x="56.41" y="136.61" width="6.22" height="3.82"/><path class="cls-2" d="M115.49,163.49a1.92,1.92,0,0,1-1.92-1.91v-6.24a1.92,1.92,0,0,1,3.83,0v6.24A1.92,1.92,0,0,1,115.49,163.49Z" transform="translate(-52.85 -19.93)"/><rect class="cls-2" x="99.03" y="138.83" width="6.22" height="3.82" transform="translate(-123.67 138.89) rotate(-60)"/><path class="cls-2" d="M106.4,141.52a1.93,1.93,0,0,1-1-.25l-5.4-3.12a1.91,1.91,0,0,1,1.91-3.31l5.4,3.11a1.91,1.91,0,0,1-1,3.57Z" transform="translate(-52.85 -19.93)"/><rect class="cls-2" x="71.09" y="166.78" width="6.22" height="3.82" transform="translate(-127.24 39.75) rotate(-29.99)"/><path class="cls-2" d="M73.07,174.86a1.93,1.93,0,0,1-1.66-1l-3.11-5.4a1.91,1.91,0,1,1,3.31-1.91l3.11,5.4a1.9,1.9,0,0,1-.7,2.61A1.94,1.94,0,0,1,73.07,174.86Z" transform="translate(-52.85 -19.93)"/><rect class="cls-2" x="37.16" y="155.87" width="3.82" height="6.22"/><path class="cls-2" d="M95,183.94H88.8a1.91,1.91,0,0,1,0-3.82H95a1.91,1.91,0,0,1,0,3.82Z" transform="translate(-52.85 -19.93)"/><rect class="cls-2" x="107.72" y="165.57" width="3.82" height="6.22" transform="translate(-144.12 159.35) rotate(-60)"/><path class="cls-2" d="M110.77,174.86a2,2,0,0,1-1-.26,1.92,1.92,0,0,1-.7-2.61l3.12-5.4a1.91,1.91,0,0,1,3.31,1.91l-3.12,5.4A1.91,1.91,0,0,1,110.77,174.86Z" transform="translate(-52.85 -19.93)"/><rect class="cls-2" x="106.52" y="146.32" width="6.22" height="3.82" transform="translate(-112.27 54.73) rotate(-29.99)"/><path class="cls-2" d="M113.89,151.29a1.91,1.91,0,0,1-1.66-1l-3.12-5.4a1.91,1.91,0,0,1,3.31-1.91l3.12,5.4a1.9,1.9,0,0,1-.7,2.61A1.84,1.84,0,0,1,113.89,151.29Z" transform="translate(-52.85 -19.93)"/><rect class="cls-2" x="37.16" y="114.96" width="3.82" height="6.22"/><path class="cls-2" d="M95,136.8H88.8a1.91,1.91,0,0,1,0-3.82H95a1.91,1.91,0,0,1,0,3.82Z" transform="translate(-52.85 -19.93)"/><rect class="cls-2" x="72.29" y="145.12" width="3.82" height="6.22" transform="translate(-144.12 118.45) rotate(-60)"/><path class="cls-2" d="M70,151.29a1.88,1.88,0,0,1-1-.26,1.91,1.91,0,0,1-.69-2.61l3.11-5.4a1.91,1.91,0,0,1,3.31,1.91l-3.11,5.4A1.91,1.91,0,0,1,70,151.29Z" transform="translate(-52.85 -19.93)"/><rect class="cls-2" x="71.09" y="166.78" width="6.22" height="3.82" transform="translate(-127.24 39.75) rotate(-29.99)"/><path class="cls-2" d="M73.07,174.86a1.93,1.93,0,0,1-1.66-1l-3.11-5.4a1.91,1.91,0,1,1,3.31-1.91l3.11,5.4a1.9,1.9,0,0,1-.7,2.61A1.94,1.94,0,0,1,73.07,174.86Z" transform="translate(-52.85 -19.93)"/><rect class="cls-2" x="37.16" y="155.87" width="3.82" height="6.22"/><path class="cls-2" d="M95,183.94H88.8a1.91,1.91,0,0,1,0-3.82H95a1.91,1.91,0,0,1,0,3.82Z" transform="translate(-52.85 -19.93)"/><rect class="cls-2" x="107.72" y="165.57" width="3.82" height="6.22" transform="translate(-144.12 159.35) rotate(-60)"/><path class="cls-2" d="M110.77,174.86a2,2,0,0,1-1-.26,1.92,1.92,0,0,1-.7-2.61l3.12-5.4a1.91,1.91,0,0,1,3.31,1.91l-3.12,5.4A1.91,1.91,0,0,1,110.77,174.86Z" transform="translate(-52.85 -19.93)"/><rect class="cls-2" x="106.52" y="146.32" width="6.22" height="3.82" transform="translate(-112.27 54.73) rotate(-29.99)"/><path class="cls-2" d="M113.89,151.29a1.91,1.91,0,0,1-1.66-1l-3.12-5.4a1.91,1.91,0,0,1,3.31-1.91l3.12,5.4a1.9,1.9,0,0,1-.7,2.61A1.84,1.84,0,0,1,113.89,151.29Z" transform="translate(-52.85 -19.93)"/><rect class="cls-2" x="37.16" y="114.96" width="3.82" height="6.22"/><path class="cls-2" d="M95,136.8H88.8a1.91,1.91,0,0,1,0-3.82H95a1.91,1.91,0,0,1,0,3.82Z" transform="translate(-52.85 -19.93)"/><rect class="cls-2" x="72.29" y="145.12" width="3.82" height="6.22" transform="translate(-144.12 118.45) rotate(-60)"/><path class="cls-2" d="M70,151.29a1.88,1.88,0,0,1-1-.26,1.91,1.91,0,0,1-.69-2.61l3.11-5.4a1.91,1.91,0,0,1,3.31,1.91l-3.11,5.4A1.91,1.91,0,0,1,70,151.29Z" transform="translate(-52.85 -19.93)"/><path class="cls-2" d="M88.32,154.39a1.9,1.9,0,0,1-1.35-.56,1.87,1.87,0,0,1-.57-1.35,2.21,2.21,0,0,1,0-.37,2.29,2.29,0,0,1,.12-.37,1.66,1.66,0,0,1,.17-.32,2.25,2.25,0,0,1,.24-.3,2,2,0,0,1,2.7,0,2.17,2.17,0,0,1,.23.3,1.29,1.29,0,0,1,.18.32,1.58,1.58,0,0,1,.11.37,1.5,1.5,0,0,1,0,.37,1.9,1.9,0,0,1-.56,1.35,2.17,2.17,0,0,1-.29.24,2.11,2.11,0,0,1-.33.18,1.48,1.48,0,0,1-.36.1A1.55,1.55,0,0,1,88.32,154.39Z" transform="translate(-52.85 -19.93)"/><path class="cls-2" d="M101.07,155.08a1.91,1.91,0,0,1-1.34-.55,2.1,2.1,0,0,1-.24-.3,1.32,1.32,0,0,1-.18-.33,2,2,0,0,1-.11-.35,2.33,2.33,0,0,1,0-.37,2.22,2.22,0,0,1,0-.38c0-.12.07-.24.11-.36a2.11,2.11,0,0,1,.18-.33,1.32,1.32,0,0,1,.24-.29,2.2,2.2,0,0,1,.28-.24,2.16,2.16,0,0,1,.34-.17,1.42,1.42,0,0,1,.35-.11,1.89,1.89,0,0,1,.75,0,1.65,1.65,0,0,1,.36.11,2,2,0,0,1,.32.17,3.5,3.5,0,0,1,.3.24,2.31,2.31,0,0,1,.24.29,2.06,2.06,0,0,1,.17.33,1.65,1.65,0,0,1,.11.36,2.36,2.36,0,0,1,0,.75,1.42,1.42,0,0,1-.11.35,1.71,1.71,0,0,1-.17.33,3.15,3.15,0,0,1-.24.3A1.94,1.94,0,0,1,101.07,155.08Z" transform="translate(-52.85 -19.93)"/><path class="cls-2" d="M97.53,167.32a1.5,1.5,0,0,1-.37,0,1.48,1.48,0,0,1-.36-.1,2.11,2.11,0,0,1-.33-.18,1.68,1.68,0,0,1-.29-.24,1.32,1.32,0,0,1-.24-.29,1.45,1.45,0,0,1-.18-.32,2.26,2.26,0,0,1-.11-.37c0-.12,0-.24,0-.37s0-.25,0-.37a2.17,2.17,0,0,1,.12-.36,1.71,1.71,0,0,1,.17-.33,2,2,0,0,1,.53-.53l.33-.18a2.12,2.12,0,0,1,.36-.1,1.84,1.84,0,0,1,.74,0,2.12,2.12,0,0,1,.36.1,3.47,3.47,0,0,1,.33.18,2.17,2.17,0,0,1,.29.24,1.68,1.68,0,0,1,.24.29,1.74,1.74,0,0,1,.18.33,2.12,2.12,0,0,1,.1.36,1.55,1.55,0,0,1,0,.37,1.5,1.5,0,0,1,0,.37,2.24,2.24,0,0,1-.1.37,2,2,0,0,1-.18.32,1.68,1.68,0,0,1-.24.29A1.9,1.9,0,0,1,97.53,167.32Z" transform="translate(-52.85 -19.93)"/><path class="cls-2" d="M85.93,164.47A1.91,1.91,0,0,1,84,162.56a1.89,1.89,0,0,1,.57-1.34,1.93,1.93,0,0,1,1.72-.53l.36.1A2.17,2.17,0,0,1,87,161a1.61,1.61,0,0,1,.29.24,1.91,1.91,0,0,1,0,2.7,3.36,3.36,0,0,1-.29.24,2.06,2.06,0,0,1-.33.17,1.5,1.5,0,0,1-.36.11A1.54,1.54,0,0,1,85.93,164.47Z" transform="translate(-52.85 -19.93)"/></svg>