<svg id="Camada_2" data-name="Camada 2" xmlns="http://www.w3.org/2000/svg" viewBox="0 0 224.46 224.46"><defs><style>.cls-1{fill:#409;}.cls-2{fill:#df1995;}</style></defs><title>rede neural</title><path class="cls-1" d="M69.53,137.45c-3.75,5.38-4.24,13-1.08,19.75,3,6.28,8.23,10.11,14.41,10.56-1.11,4.72.35,9.71,4.12,13.7,4.31,4.58,10.64,6.78,16,5.76,2,5.35,10.94,9.82,15.87,10.38a12.29,12.29,0,0,0,1.47.08,8.1,8.1,0,0,0,5.52-1.85,8.09,8.09,0,0,0,5.52,1.86,12.46,12.46,0,0,0,1.47-.09c4.93-.56,13.84-5,15.86-10.38,5.34,1,11.66-1.2,16-5.76,3.76-4,5.23-9,4.12-13.7,6.18-.45,11.46-4.28,14.41-10.57,3.13-6.67,2.68-14.25-1-19.61,7.51-3.09,11.1-11.67,10.73-19.22-.42-8.68-5.49-15.28-13.19-17.55,5.21-6,6-15.33,1.61-23.75-3.68-7.12-12-14.27-23.41-11.86-1.4-7.47-5.41-13-11.44-15.71-6.38-2.86-14.22-2-20.65,2.1-6.43-4.12-14.26-5-20.65-2.1-6,2.7-10,8.24-11.44,15.71C82.26,62.79,74,69.94,70.28,77.07c-4.28,8.3-3.61,17.49,1.42,23.51-6.28,1.57-11.22,7.44-12.54,15.33S60.61,133.28,69.53,137.45Zm58-83.32c5.53-3.5,12.21-4.2,17.6-1.78s9,7.76,9.88,15c0,0,0,0,0,0s-.05.08,0,.12a12.07,12.07,0,0,1-3.18,9.09,1.57,1.57,0,1,0,2.29,2.14,15.16,15.16,0,0,0,4-10.27c10-2.26,17.21,3.88,20.41,10.07,3.44,6.67,4,16.4-3,22a1.57,1.57,0,0,0,.77,2.78c9.45,1.3,13.16,8.73,13.47,15.23.34,6.93-3.15,14.84-10.44,16.69a12,12,0,0,1-9.27-2.45,1.57,1.57,0,1,0-2,2.45,15.25,15.25,0,0,0,9.44,3.28c.42,0,.83-.06,1.25-.1,4.3,5.11,3.93,12.38,1.54,17.49-2.75,5.83-8,9.16-13.63,8.78a1.69,1.69,0,0,0-1.37.66,1.57,1.57,0,0,0-.17,1.5c1.74,4.2.71,8.76-2.81,12.49-4,4.21-9.86,6.06-14.32,4.51a1.61,1.61,0,0,0-1.38.18,1.58,1.58,0,0,0-.69,1.21c-.25,4-8.73,8.74-13.51,9.29-1.74.17-3.88-.05-4.85-1.31-.1-1.71-.2-10-.21-32.73h8.18a1.57,1.57,0,0,0,0-3.13h-8.18V146.5c0-15.23,0-35.1.11-60.82l10.95,10.95a1.57,1.57,0,0,0,2.21-2.22L127.48,81.26c0-6.86,0-14.07.06-21.76C127.55,57,127.56,55.13,127.56,54.13Zm-65.31,62.3c1.09-6.54,5.49-13.14,12.85-13.14a1.57,1.57,0,0,0,1-2.79c-7-5.6-6.45-15.33-3-22,3.19-6.19,10.39-12.32,20.36-10.09a15.19,15.19,0,0,0,4,10.28,1.57,1.57,0,0,0,1.14.5,1.56,1.56,0,0,0,1.07-.42,1.58,1.58,0,0,0,.08-2.22,12.06,12.06,0,0,1-3.17-9.09s0,0,0-.08,0,0,.05-.07c.91-7.21,4.43-12.53,9.88-15s12.07-1.72,17.59,1.78l0,2.51c0,8.62,0,16.8.07,24.68L111,94.41a1.57,1.57,0,1,0,2.21,2.22l10.89-10.89c.07,23.06.1,42.78.11,58.81v12.77h-8a1.57,1.57,0,0,0,0,3.13h8c0,19.32-.09,30.65-.21,32.73-1,1.26-3.1,1.5-4.86,1.31-4.77-.55-13.24-5.34-13.5-9.29A1.58,1.58,0,0,0,105,184a1.63,1.63,0,0,0-.87-.26,1.81,1.81,0,0,0-.51.08c-4.49,1.56-10.37-.3-14.32-4.5-3.53-3.74-4.55-8.29-2.82-12.5a1.52,1.52,0,0,0-.17-1.5,1.65,1.65,0,0,0-1.37-.66c-5.58.38-10.88-3-13.61-8.78-2.4-5.1-2.77-12.37,1.52-17.49a12.08,12.08,0,0,0,1.21.1,15.25,15.25,0,0,0,9.44-3.28,1.57,1.57,0,1,0-1.95-2.45,12,12,0,0,1-9.13,2.46C63.17,131.93,61.15,123.07,62.25,116.43Z" transform="translate(-13.64 -10.51)"/><path class="cls-1" d="M91,104.17a1.56,1.56,0,0,0,.67,2.11,1.45,1.45,0,0,0,.72.18,1.56,1.56,0,0,0,1.39-.84c4-7.65,2.87-15.77-2.85-20.66a1.56,1.56,0,0,0-2,2.37C94.44,92.09,93.49,99.38,91,104.17Z" transform="translate(-13.64 -10.51)"/><path class="cls-1" d="M101.07,118.89c6.9,2.41,8.67,9.54,8.08,14.91a1.57,1.57,0,0,0,1.39,1.73h.17a1.55,1.55,0,0,0,1.55-1.39c.95-8.58-3-15.74-10.16-18.22a1.59,1.59,0,0,0-2,1A1.57,1.57,0,0,0,101.07,118.89Z" transform="translate(-13.64 -10.51)"/><path class="cls-1" d="M91,154.31a1.57,1.57,0,0,0,1,2c7,2.22,8.93,9.3,8.49,14.69a1.57,1.57,0,0,0,1.44,1.69h.12a1.55,1.55,0,0,0,1.56-1.43c.71-8.61-3.48-15.65-10.66-17.93A1.57,1.57,0,0,0,91,154.31Z" transform="translate(-13.64 -10.51)"/><path class="cls-1" d="M159.53,106.68a1.55,1.55,0,0,0,1.39-2.29c-2.5-4.79-3.46-12.08,2.1-16.83a1.57,1.57,0,0,0-2-2.39c-5.73,4.9-6.84,13-2.85,20.67A1.56,1.56,0,0,0,159.53,106.68Z" transform="translate(-13.64 -10.51)"/><path class="cls-1" d="M139.64,134.37a1.57,1.57,0,0,0,1.56,1.39h.17a1.58,1.58,0,0,0,1.39-1.73c-.59-5.38,1.18-12.51,8.08-14.92a1.57,1.57,0,1,0-1-3C142.7,118.63,138.71,125.78,139.64,134.37Z" transform="translate(-13.64 -10.51)"/><path class="cls-1" d="M148.27,171.45a1.56,1.56,0,0,0,1.56,1.43H150a1.56,1.56,0,0,0,1.43-1.69c-.43-5.39,1.53-12.47,8.5-14.69a1.57,1.57,0,0,0,1-2,1.59,1.59,0,0,0-2-1C151.77,155.8,147.57,162.84,148.27,171.45Z" transform="translate(-13.64 -10.51)"/><path class="cls-2" d="M15.21,164.57a1.57,1.57,0,1,0,0,3.14H31.52v29a20.38,20.38,0,0,0,20.36,20.36h29V233.4a1.57,1.57,0,1,0,3.13,0V217.09H102.6V233.4a1.57,1.57,0,1,0,3.13,0V217.09H124.3V233.4a1.57,1.57,0,1,0,3.13,0V217.09H146V233.4a1.57,1.57,0,1,0,3.13,0V217.09h18.57V233.4a1.57,1.57,0,1,0,3.13,0V217.09h29a20.39,20.39,0,0,0,20.37-20.36v-29h16.3a1.57,1.57,0,0,0,0-3.14h-16.3V146h16.3a1.57,1.57,0,1,0,0-3.14h-16.3V124.3h16.3a1.57,1.57,0,1,0,0-3.13h-16.3V102.6h16.3a1.57,1.57,0,1,0,0-3.13h-16.3V80.89h16.3a1.57,1.57,0,1,0,0-3.13h-16.3v-29a20.4,20.4,0,0,0-20.37-20.37h-29V12.07a1.57,1.57,0,0,0-3.13,0V28.38H149.14V12.07a1.57,1.57,0,0,0-3.13,0V28.38H127.43V12.07a1.57,1.57,0,0,0-3.13,0V28.38H105.73V12.07a1.57,1.57,0,0,0-3.13,0V28.38H84V12.07a1.57,1.57,0,0,0-3.13,0V28.38h-29A20.39,20.39,0,0,0,31.52,48.75v29H15.21a1.57,1.57,0,1,0,0,3.13H31.52V99.47H15.21a1.57,1.57,0,1,0,0,3.13H31.52v18.57H15.21a1.57,1.57,0,1,0,0,3.13H31.52v18.57H15.21a1.57,1.57,0,0,0,0,3.14H31.52v18.56ZM34.65,48.75A17.24,17.24,0,0,1,51.88,31.52h148a17.24,17.24,0,0,1,17.23,17.23v148A17.25,17.25,0,0,1,199.86,214h-148a17.25,17.25,0,0,1-17.23-17.23Z" transform="translate(-13.64 -10.51)"/></svg>