<svg id="rede" xmlns="http://www.w3.org/2000/svg" viewBox="0 0 212.22 207.62"><defs><style>.cls-1{fill:#409;}.cls-2{fill:#df1995;}.cls-3{fill:#fff;}.cls-4,.cls-5{fill:none;stroke-linecap:round;stroke-linejoin:round;stroke-width:1.66px;}.cls-4{stroke:#409;}.cls-5{stroke:#df1995;}</style></defs><title>redeLupa</title><path class="cls-1" d="M104.68,128.7c-3.21,4.6-3.63,11.14-.93,16.88,2.52,5.37,7,8.64,12.32,9a12.7,12.7,0,0,0,3.52,11.7c3.68,3.91,9.09,5.8,13.63,4.93,1.73,4.57,9.35,8.38,13.56,8.86a10.71,10.71,0,0,0,1.25.07,6.9,6.9,0,0,0,4.72-1.58,6.9,6.9,0,0,0,4.72,1.59,10.9,10.9,0,0,0,1.25-.08c4.21-.48,11.83-4.29,13.56-8.86,4.56.87,10-1,13.64-4.93a12.75,12.75,0,0,0,3.52-11.7c5.27-.39,9.78-3.66,12.31-9,2.67-5.7,2.28-12.18-.85-16.76,6.42-2.64,9.48-10,9.17-16.42-.36-7.42-4.69-13.06-11.27-15,4.45-5.14,5.09-13.1,1.38-20.29C197,71,189.94,64.91,180.17,67c-1.19-6.38-4.62-11.12-9.77-13.42-5.46-2.44-12.16-1.73-17.65,1.79-5.49-3.52-12.18-4.24-17.64-1.79-5.16,2.3-8.59,7-9.78,13.42-9.78-2.06-16.86,4-20,10.15-3.66,7.09-3.09,14.94,1.21,20.08-5.36,1.34-9.59,6.36-10.71,13.1S97.05,125.15,104.68,128.7Zm49.59-71.18a16,16,0,0,1,15-1.53c4.66,2.09,7.66,6.63,8.44,12.8,0,0,0,0,0,0s0,.07,0,.11A10.28,10.28,0,0,1,175,76.68a1.34,1.34,0,0,0,.06,1.89,1.36,1.36,0,0,0,.92.37,1.34,1.34,0,0,0,1-.43,13,13,0,0,0,3.4-8.77c8.55-1.94,14.7,3.31,17.44,8.6,2.94,5.69,3.39,14-2.57,18.8a1.33,1.33,0,0,0,.65,2.37c8.08,1.11,11.25,7.46,11.51,13,.29,5.92-2.69,12.68-8.91,14.26a10.3,10.3,0,0,1-7.93-2.1,1.34,1.34,0,0,0-1.67,2.1,13.08,13.08,0,0,0,8.06,2.8c.36,0,.71-.06,1.07-.09,3.67,4.37,3.36,10.58,1.31,14.94-2.34,5-6.8,7.83-11.64,7.51a1.45,1.45,0,0,0-1.17.56,1.35,1.35,0,0,0-.14,1.29c1.48,3.59.6,7.48-2.4,10.67-3.39,3.6-8.43,5.18-12.25,3.85a1.35,1.35,0,0,0-1.17.16,1.3,1.3,0,0,0-.59,1c-.22,3.37-7.46,7.47-11.54,7.93-1.49.15-3.32,0-4.15-1.11-.09-1.46-.17-8.5-.18-28h7a1.34,1.34,0,0,0,0-2.68h-7v-9.24c0-13,0-30,.09-52l9.36,9.36a1.34,1.34,0,1,0,1.89-1.9L154.19,80.69c0-5.86,0-12,.06-18.59C154.25,59.94,154.26,58.37,154.27,57.52ZM98.46,110.75c.93-5.59,4.69-11.23,11-11.23a1.33,1.33,0,0,0,.83-2.38c-6-4.79-5.51-13.1-2.57-18.8,2.73-5.28,8.88-10.52,17.4-8.61a13,13,0,0,0,3.39,8.78,1.36,1.36,0,0,0,1,.43,1.32,1.32,0,0,0,.91-.37,1.34,1.34,0,0,0,.07-1.89,10.28,10.28,0,0,1-2.71-7.76s0,0,0-.07,0,0,0-.06c.79-6.17,3.79-10.71,8.45-12.8a16,16,0,0,1,15,1.53v2.14c0,7.37,0,14.35.07,21.09L140.12,91.93a1.35,1.35,0,0,0,0,1.9,1.34,1.34,0,0,0,1.89,0l9.31-9.31c.05,19.71.08,36.55.09,50.25v10.91h-6.85a1.34,1.34,0,1,0,0,2.68h6.85c0,16.51-.07,26.19-.18,28-.83,1.07-2.65,1.28-4.15,1.11-4.08-.46-11.32-4.56-11.54-7.93a1.36,1.36,0,0,0-.59-1,1.34,1.34,0,0,0-.74-.23,1.62,1.62,0,0,0-.44.07c-3.84,1.33-8.86-.26-12.23-3.84-3-3.2-3.89-7.09-2.41-10.68a1.37,1.37,0,0,0-.14-1.29,1.46,1.46,0,0,0-1.18-.56c-4.76.33-9.29-2.52-11.63-7.51-2.05-4.35-2.37-10.56,1.3-14.93.34,0,.69.08,1,.08a13.14,13.14,0,0,0,8.08-2.8,1.34,1.34,0,0,0-1.68-2.1,10.28,10.28,0,0,1-7.8,2.1C99.24,124,97.52,116.42,98.46,110.75Z" transform="translate(-56.92 -20.24)"/><path class="cls-1" d="M123,100.27a1.34,1.34,0,0,0,.57,1.81,1.31,1.31,0,0,0,.61.15,1.34,1.34,0,0,0,1.19-.72C128.8,95,127.84,88,123,83.86a1.34,1.34,0,1,0-1.75,2C126,90,125.15,96.18,123,100.27Z" transform="translate(-56.92 -20.24)"/><path class="cls-1" d="M131.63,112.85c5.9,2.06,7.4,8.15,6.91,12.74a1.33,1.33,0,0,0,1.18,1.48h.14a1.33,1.33,0,0,0,1.33-1.19c.81-7.33-2.6-13.45-8.68-15.57a1.34,1.34,0,1,0-.88,2.53Z" transform="translate(-56.92 -20.24)"/><path class="cls-1" d="M123,143.12a1.33,1.33,0,0,0,.87,1.68c6,1.89,7.63,7.94,7.25,12.55a1.34,1.34,0,0,0,1.23,1.44h.11a1.34,1.34,0,0,0,1.33-1.23c.6-7.36-3-13.37-9.11-15.32A1.33,1.33,0,0,0,123,143.12Z" transform="translate(-56.92 -20.24)"/><path class="cls-1" d="M181.58,102.42a1.34,1.34,0,0,0,1.19-2c-2.14-4.1-3-10.32,1.79-14.38a1.34,1.34,0,0,0-1.73-2c-4.9,4.19-5.85,11.12-2.44,17.66A1.35,1.35,0,0,0,181.58,102.42Z" transform="translate(-56.92 -20.24)"/><path class="cls-1" d="M164.58,126.07a1.35,1.35,0,0,0,1.34,1.2h.14a1.35,1.35,0,0,0,1.19-1.48c-.5-4.59,1-10.69,6.91-12.74a1.34,1.34,0,0,0-.88-2.53C167.2,112.63,163.79,118.73,164.58,126.07Z" transform="translate(-56.92 -20.24)"/><path class="cls-1" d="M172,157.76a1.34,1.34,0,0,0,1.33,1.23h.11a1.34,1.34,0,0,0,1.23-1.44c-.37-4.61,1.3-10.66,7.26-12.55a1.34,1.34,0,1,0-.82-2.55C175,144.39,171.36,150.4,172,157.76Z" transform="translate(-56.92 -20.24)"/><path class="cls-2" d="M58.26,151.88a1.34,1.34,0,1,0,0,2.68H72.2v24.8a17.42,17.42,0,0,0,17.4,17.4h24.79V210.7a1.34,1.34,0,0,0,2.68,0V196.76h15.87V210.7a1.34,1.34,0,0,0,2.67,0V196.76h15.87V210.7a1.34,1.34,0,0,0,2.68,0V196.76H170V210.7a1.34,1.34,0,0,0,2.67,0V196.76h15.87V210.7a1.34,1.34,0,0,0,2.67,0V196.76H216a17.42,17.42,0,0,0,17.4-17.4v-24.8h13.94a1.34,1.34,0,1,0,0-2.68H233.44V136h13.94a1.34,1.34,0,0,0,0-2.68H233.44V117.47h13.94a1.34,1.34,0,1,0,0-2.67H233.44V98.93h13.94a1.34,1.34,0,1,0,0-2.68H233.44V80.38h13.94a1.34,1.34,0,1,0,0-2.67H233.44V52.92A17.42,17.42,0,0,0,216,35.51h-24.8V21.58a1.34,1.34,0,1,0-2.67,0V35.51H172.7V21.58a1.34,1.34,0,1,0-2.67,0V35.51H154.16V21.58a1.34,1.34,0,0,0-2.68,0V35.51H135.61V21.58a1.34,1.34,0,1,0-2.67,0V35.51H117.07V21.58a1.34,1.34,0,1,0-2.68,0V35.51H89.6A17.42,17.42,0,0,0,72.2,52.92V77.71H58.26a1.34,1.34,0,1,0,0,2.67H72.2V96.25H58.26a1.34,1.34,0,1,0,0,2.68H72.2V114.8H58.26a1.34,1.34,0,1,0,0,2.67H72.2v15.87H58.26a1.34,1.34,0,1,0,0,2.68H72.2v15.86Zm16.61-99A14.74,14.74,0,0,1,89.6,38.19H216a14.74,14.74,0,0,1,14.73,14.73V179.36A14.74,14.74,0,0,1,216,194.08H89.6a14.74,14.74,0,0,1-14.73-14.72Z" transform="translate(-56.92 -20.24)"/><circle class="cls-3" cx="163.76" cy="162.94" r="35"/><polyline class="cls-4" points="187.3 161.02 175.75 161.02 167.84 145.67 155.99 171.97 149.3 156.92 134.17 156.92"/><rect class="cls-5" x="251.54" y="194.62" width="5.3" height="36.53" rx="1.58" ry="1.58" transform="translate(527.53 163.45) rotate(135)"/><path class="cls-5" d="M217.82,145.76A32.23,32.23,0,1,1,185.59,178,32.23,32.23,0,0,1,217.82,145.76Zm0,59.16A26.93,26.93,0,1,0,190.89,178,26.93,26.93,0,0,0,217.82,204.92Z" transform="translate(-56.92 -20.24)"/></svg>