<svg id="Camada_1" data-name="Camada 1" xmlns="http://www.w3.org/2000/svg" viewBox="0 0 386.7 199.11"><defs><style>.cls-1{fill:#422883;}.cls-2{fill:#409;}</style></defs><title>SquairRoxo</title><path class="cls-1" d="M139,347.75a58.18,58.18,0,0,0-9.25-4.19c-3.41-1.3-6.2-2.5-8.37-3.58a16.64,16.64,0,0,1-5.35-4.09,9,9,0,0,1-2.1-6,10.21,10.21,0,0,1,3.91-8.24q3.92-3.21,10.42-3.21a30.08,30.08,0,0,1,8,1.12,44.34,44.34,0,0,1,7.44,2.7l1.77-3.54a42.31,42.31,0,0,0-8.51-3.07,38.13,38.13,0,0,0-9.26-1.21,22.82,22.82,0,0,0-9.44,2.1,15.76,15.76,0,0,0-6.6,5.58,14.5,14.5,0,0,0-2.38,8.23,12.45,12.45,0,0,0,2.47,7.91,18.5,18.5,0,0,0,6.09,5.07,77.33,77.33,0,0,0,9.21,3.95A63.41,63.41,0,0,1,135.4,351a16.54,16.54,0,0,1,5.48,4.79,12,12,0,0,1,2.19,7.34,13.28,13.28,0,0,1-2.37,8,14.47,14.47,0,0,1-6.14,4.93,19.92,19.92,0,0,1-8,1.63,26.7,26.7,0,0,1-9.76-2,35.24,35.24,0,0,1-8.47-4.55l-2.14,3.72q10.33,6.78,20.84,6.79a23.89,23.89,0,0,0,10.74-2.33,17.39,17.39,0,0,0,7.31-6.56,18.21,18.21,0,0,0,2.6-9.72,16.43,16.43,0,0,0-2.51-9.44A18.94,18.94,0,0,0,139,347.75Z" transform="translate(-106.23 -182.49)"/><path class="cls-1" d="M230.47,364.35a33.48,33.48,0,0,0-.23-33.3,34.3,34.3,0,0,0-12.38-12.37,32.76,32.76,0,0,0-16.93-4.61,32.29,32.29,0,0,0-16.84,4.61,34.47,34.47,0,0,0-12.27,12.37,32.75,32.75,0,0,0-4.56,16.88,33.43,33.43,0,0,0,4.51,17.21A32.41,32.41,0,0,0,184,377.23a34.56,34.56,0,0,0,24,3.63h28.65v-4.37H218.89A34.06,34.06,0,0,0,230.47,364.35Zm-29.63,12.88a27.68,27.68,0,0,1-14.51-4,29.48,29.48,0,0,1-10.51-10.65,28.4,28.4,0,0,1-3.91-14.6,29,29,0,0,1,3.86-14.61,29.61,29.61,0,0,1,10.51-10.84,27.62,27.62,0,0,1,14.65-4,28,28,0,0,1,14.61,4,30,30,0,0,1,10.65,10.74,28.52,28.52,0,0,1,3.95,14.65,29.12,29.12,0,0,1-29.3,29.3Z" transform="translate(-106.23 -182.49)"/><path class="cls-1" d="M300.84,358.54a19.92,19.92,0,0,1-2.37,9.9A16.4,16.4,0,0,1,292,375a19.26,19.26,0,0,1-9.45,2.27,19.06,19.06,0,0,1-9.35-2.27,16.1,16.1,0,0,1-6.46-6.52,20.23,20.23,0,0,1-2.33-9.9V314.81h-4.55v44a23.84,23.84,0,0,0,3,12.18,20.31,20.31,0,0,0,8.14,7.86,26,26,0,0,0,23.26,0,20.31,20.31,0,0,0,8.14-7.86,23.85,23.85,0,0,0,3-12.18v-44h-4.47Z" transform="translate(-106.23 -182.49)"/><path class="cls-1" d="M354.14,309.7l-30.88,71.16h13.3l5.58-13.39h22.7l5.3,13.39h15.63L354.89,309.7Zm-7.25,46.42,6.88-16.65,6.6,16.65Z" transform="translate(-106.23 -182.49)"/><rect class="cls-1" x="296.19" y="129.9" width="13.49" height="68.47"/><path class="cls-1" d="M477,356a19.62,19.62,0,0,0,8.14-8.69,27.09,27.09,0,0,0,2.65-11.86q0-10.7-7-16.89T461,312.4H440.29v68.46h13.48V359.09h9l14.41,21.77h15.73Zm-5.68-13.16q-2.5,3.21-8,3.21h-9.58V325.42h9.68q6.14,0,8.28,3.4a13.17,13.17,0,0,1,2.14,7.11A11,11,0,0,1,471.35,342.86Z" transform="translate(-106.23 -182.49)"/><polygon class="cls-1" points="300.89 0 299.79 0 299.79 1.1 299.79 82.07 299.79 83.18 300.89 83.18 305.03 83.18 306.13 83.18 306.13 82.07 306.13 1.1 306.13 0 305.03 0 300.89 0"/><polygon class="cls-1" points="276.16 36.15 275.06 36.15 275.06 37.25 275.06 55.22 275.06 56.32 276.16 56.32 280.3 56.32 281.4 56.32 281.4 55.22 281.4 37.25 281.4 36.15 280.3 36.15 276.16 36.15"/><polygon class="cls-1" points="325.1 11.15 324 11.15 324 12.26 324 67 324 68.1 325.1 68.1 329.24 68.1 330.34 68.1 330.34 67 330.34 12.26 330.34 11.15 329.24 11.15 325.1 11.15"/><polygon class="cls-1" points="349.49 24.99 348.39 24.99 348.39 26.1 348.39 84.14 348.39 85.24 349.49 85.24 353.63 85.24 354.73 85.24 354.73 84.14 354.73 26.1 354.73 24.99 353.63 24.99 349.49 24.99"/><polygon class="cls-1" points="373.94 29.72 372.84 29.72 372.84 30.82 372.84 67 372.84 68.1 373.94 68.1 378.08 68.1 379.18 68.1 379.18 67 379.18 30.82 379.18 29.72 378.08 29.72 373.94 29.72"/><path class="cls-2" d="M139,347.75a58.18,58.18,0,0,0-9.25-4.19c-3.41-1.3-6.2-2.5-8.37-3.58a16.64,16.64,0,0,1-5.35-4.09,9,9,0,0,1-2.1-6,10.21,10.21,0,0,1,3.91-8.24q3.92-3.21,10.42-3.21a30.08,30.08,0,0,1,8,1.12,44.34,44.34,0,0,1,7.44,2.7l1.77-3.54a42.31,42.31,0,0,0-8.51-3.07,38.13,38.13,0,0,0-9.26-1.21,22.82,22.82,0,0,0-9.44,2.1,15.76,15.76,0,0,0-6.6,5.58,14.5,14.5,0,0,0-2.38,8.23,12.45,12.45,0,0,0,2.47,7.91,18.5,18.5,0,0,0,6.09,5.07,77.33,77.33,0,0,0,9.21,3.95A63.41,63.41,0,0,1,135.4,351a16.54,16.54,0,0,1,5.48,4.79,12,12,0,0,1,2.19,7.34,13.28,13.28,0,0,1-2.37,8,14.47,14.47,0,0,1-6.14,4.93,19.92,19.92,0,0,1-8,1.63,26.7,26.7,0,0,1-9.76-2,35.24,35.24,0,0,1-8.47-4.55l-2.14,3.72q10.33,6.78,20.84,6.79a23.89,23.89,0,0,0,10.74-2.33,17.39,17.39,0,0,0,7.31-6.56,18.21,18.21,0,0,0,2.6-9.72,16.43,16.43,0,0,0-2.51-9.44A18.94,18.94,0,0,0,139,347.75Z" transform="translate(-106.23 -182.49)"/><path class="cls-2" d="M230.47,364.35a33.48,33.48,0,0,0-.23-33.3,34.3,34.3,0,0,0-12.38-12.37,32.76,32.76,0,0,0-16.93-4.61,32.29,32.29,0,0,0-16.84,4.61,34.47,34.47,0,0,0-12.27,12.37,32.75,32.75,0,0,0-4.56,16.88,33.43,33.43,0,0,0,4.51,17.21A32.41,32.41,0,0,0,184,377.23a34.56,34.56,0,0,0,24,3.63h28.65v-4.37H218.89A34.06,34.06,0,0,0,230.47,364.35Zm-29.63,12.88a27.68,27.68,0,0,1-14.51-4,29.48,29.48,0,0,1-10.51-10.65,28.4,28.4,0,0,1-3.91-14.6,29,29,0,0,1,3.86-14.61,29.61,29.61,0,0,1,10.51-10.84,27.62,27.62,0,0,1,14.65-4,28,28,0,0,1,14.61,4,30,30,0,0,1,10.65,10.74,28.52,28.52,0,0,1,3.95,14.65,29.12,29.12,0,0,1-29.3,29.3Z" transform="translate(-106.23 -182.49)"/><path class="cls-2" d="M300.84,358.54a19.92,19.92,0,0,1-2.37,9.9A16.4,16.4,0,0,1,292,375a19.26,19.26,0,0,1-9.45,2.27,19.06,19.06,0,0,1-9.35-2.27,16.1,16.1,0,0,1-6.46-6.52,20.23,20.23,0,0,1-2.33-9.9V314.81h-4.55v44a23.84,23.84,0,0,0,3,12.18,20.31,20.31,0,0,0,8.14,7.86,26,26,0,0,0,23.26,0,20.31,20.31,0,0,0,8.14-7.86,23.85,23.85,0,0,0,3-12.18v-44h-4.47Z" transform="translate(-106.23 -182.49)"/><path class="cls-2" d="M354.14,309.7l-30.88,71.16h13.3l5.58-13.39h22.7l5.3,13.39h15.63L354.89,309.7Zm-7.25,46.42,6.88-16.65,6.6,16.65Z" transform="translate(-106.23 -182.49)"/><rect class="cls-2" x="296.19" y="129.9" width="13.49" height="68.47"/><path class="cls-2" d="M477,356a19.62,19.62,0,0,0,8.14-8.69,27.09,27.09,0,0,0,2.65-11.86q0-10.7-7-16.89T461,312.4H440.29v68.46h13.48V359.09h9l14.41,21.77h15.73Zm-5.68-13.16q-2.5,3.21-8,3.21h-9.58V325.42h9.68q6.14,0,8.28,3.4a13.17,13.17,0,0,1,2.14,7.11A11,11,0,0,1,471.35,342.86Z" transform="translate(-106.23 -182.49)"/><polygon class="cls-2" points="300.89 0 299.79 0 299.79 1.1 299.79 82.07 299.79 83.18 300.89 83.18 305.03 83.18 306.13 83.18 306.13 82.07 306.13 1.1 306.13 0 305.03 0 300.89 0"/><polygon class="cls-2" points="276.16 36.15 275.06 36.15 275.06 37.25 275.06 55.22 275.06 56.32 276.16 56.32 280.3 56.32 281.4 56.32 281.4 55.22 281.4 37.25 281.4 36.15 280.3 36.15 276.16 36.15"/><polygon class="cls-2" points="325.1 11.15 324 11.15 324 12.26 324 67 324 68.1 325.1 68.1 329.24 68.1 330.34 68.1 330.34 67 330.34 12.26 330.34 11.15 329.24 11.15 325.1 11.15"/><polygon class="cls-2" points="349.49 24.99 348.39 24.99 348.39 26.1 348.39 84.14 348.39 85.24 349.49 85.24 353.63 85.24 354.73 85.24 354.73 84.14 354.73 26.1 354.73 24.99 353.63 24.99 349.49 24.99"/><polygon class="cls-2" points="373.94 29.72 372.84 29.72 372.84 30.82 372.84 67 372.84 68.1 373.94 68.1 378.08 68.1 379.18 68.1 379.18 67 379.18 30.82 379.18 29.72 378.08 29.72 373.94 29.72"/></svg>