<svg id="Camada_2" data-name="Camada 2" xmlns="http://www.w3.org/2000/svg" viewBox="0 0 386.7 199.11"><defs><style>.cls-1{fill:#fff;}</style></defs><title>SquairBranco</title><path class="cls-1" d="M137.08,363.34a58.33,58.33,0,0,0-9.26-4.19c-3.41-1.3-6.2-2.5-8.37-3.58a16.87,16.87,0,0,1-5.35-4.09,9,9,0,0,1-2.09-6,10.18,10.18,0,0,1,3.91-8.24q3.9-3.21,10.42-3.21a30.14,30.14,0,0,1,8,1.12,44.66,44.66,0,0,1,7.44,2.7l1.77-3.54a42.41,42.41,0,0,0-8.52-3.07,38.05,38.05,0,0,0-9.25-1.21,22.78,22.78,0,0,0-9.44,2.1,15.73,15.73,0,0,0-6.61,5.58,14.57,14.57,0,0,0-2.37,8.23,12.51,12.51,0,0,0,2.46,7.91,18.64,18.64,0,0,0,6.1,5.07,76.62,76.62,0,0,0,9.21,3.95,64.67,64.67,0,0,1,8.32,3.67,16.82,16.82,0,0,1,5.49,4.8,12,12,0,0,1,2.19,7.34,13.21,13.21,0,0,1-2.38,8,14.49,14.49,0,0,1-6.14,4.93,19.91,19.91,0,0,1-8,1.63,27,27,0,0,1-9.77-2,35,35,0,0,1-8.46-4.55l-2.14,3.72q10.32,6.78,20.84,6.79a23.89,23.89,0,0,0,10.74-2.33,17.36,17.36,0,0,0,7.3-6.56,18.13,18.13,0,0,0,2.61-9.72,16.43,16.43,0,0,0-2.51-9.44A19,19,0,0,0,137.08,363.34Z" transform="translate(-104.29 -198.08)"/><path class="cls-1" d="M228.52,379.94a33.41,33.41,0,0,0-.23-33.3,34.27,34.27,0,0,0-12.37-12.37A32.76,32.76,0,0,0,199,329.66a32.29,32.29,0,0,0-16.84,4.61,34.5,34.5,0,0,0-12.28,12.37,32.75,32.75,0,0,0-4.56,16.88,33.44,33.44,0,0,0,4.52,17.21,32.34,32.34,0,0,0,12.23,12.09A33.7,33.7,0,0,0,199,397.2a34.05,34.05,0,0,0,7.07-.75h28.65v-4.37H216.94A33.89,33.89,0,0,0,228.52,379.94ZM198.9,392.82a27.71,27.71,0,0,1-14.52-3.95,29.64,29.64,0,0,1-10.51-10.65,28.51,28.51,0,0,1-3.9-14.6A29.12,29.12,0,0,1,173.82,349a29.64,29.64,0,0,1,10.52-10.84,27.59,27.59,0,0,1,14.65-4,27.91,27.91,0,0,1,14.6,4,29.79,29.79,0,0,1,10.65,10.74,28.44,28.44,0,0,1,4,14.65,29.12,29.12,0,0,1-29.3,29.3Z" transform="translate(-104.29 -198.08)"/><path class="cls-1" d="M298.9,374.13a19.82,19.82,0,0,1-2.38,9.9,16.4,16.4,0,0,1-6.51,6.52,20.58,20.58,0,0,1-18.79,0,16,16,0,0,1-6.46-6.52,20.23,20.23,0,0,1-2.33-9.9V330.4h-4.56v44a23.75,23.75,0,0,0,3,12.18,20.25,20.25,0,0,0,8.14,7.86,25.95,25.95,0,0,0,23.25,0,20.27,20.27,0,0,0,8.15-7.86,23.84,23.84,0,0,0,3-12.18v-44H298.9Z" transform="translate(-104.29 -198.08)"/><path class="cls-1" d="M352.2,325.29l-30.88,71.16h13.3l5.58-13.39h22.7l5.3,13.39h15.63l-30.89-71.16Zm-7.26,46.42,6.89-16.65,6.6,16.65Z" transform="translate(-104.29 -198.08)"/><rect class="cls-1" x="296.19" y="129.9" width="13.49" height="68.47"/><path class="cls-1" d="M475.09,371.61a19.6,19.6,0,0,0,8.13-8.69,27.09,27.09,0,0,0,2.65-11.86q0-10.69-7-16.89T459.08,328H438.34v68.46h13.49V374.68h9l14.42,21.77H491Zm-5.68-13.16q-2.51,3.21-8,3.21h-9.58V341h9.67c4.1,0,6.85,1.13,8.28,3.4a13.09,13.09,0,0,1,2.14,7.11A11,11,0,0,1,469.41,358.45Z" transform="translate(-104.29 -198.08)"/><polygon class="cls-1" points="300.89 0 299.79 0 299.79 1.1 299.79 82.07 299.79 83.18 300.89 83.18 305.03 83.18 306.13 83.18 306.13 82.07 306.13 1.1 306.13 0 305.03 0 300.89 0"/><polygon class="cls-1" points="276.16 36.15 275.06 36.15 275.06 37.25 275.06 55.22 275.06 56.32 276.16 56.32 280.3 56.32 281.4 56.32 281.4 55.22 281.4 37.25 281.4 36.15 280.3 36.15 276.16 36.15"/><polygon class="cls-1" points="325.1 11.15 324 11.15 324 12.26 324 67 324 68.1 325.1 68.1 329.24 68.1 330.34 68.1 330.34 67 330.34 12.26 330.34 11.15 329.24 11.15 325.1 11.15"/><polygon class="cls-1" points="349.49 24.99 348.39 24.99 348.39 26.1 348.39 84.14 348.39 85.24 349.49 85.24 353.63 85.24 354.73 85.24 354.73 84.14 354.73 26.1 354.73 24.99 353.63 24.99 349.49 24.99"/><polygon class="cls-1" points="373.94 29.72 372.84 29.72 372.84 30.82 372.84 67 372.84 68.1 373.94 68.1 378.08 68.1 379.18 68.1 379.18 67 379.18 30.82 379.18 29.72 378.08 29.72 373.94 29.72"/></svg>